<svg width="18" height="18" viewBox="0 0 18 18" fill="none" xmlns="http://www.w3.org/2000/svg">
    <path d="M1.75005 6.77703L9.00005 2.61203L16.2501 6.77703C16.3643 6.83681 16.4973 6.85012 16.6211 6.81419C16.745 6.77826 16.8502 6.69586 16.9147 6.58421C16.9792 6.47256 16.9981 6.34029 16.9675 6.21503C16.9368 6.08978 16.8589 5.98122 16.7501 5.91203L9.00005 1.45703L1.25005 5.91203C1.1903 5.94329 1.13748 5.98631 1.09479 6.03851C1.05209 6.0907 1.0204 6.151 1.00161 6.21576C0.982822 6.28053 0.977328 6.34842 0.98546 6.41536C0.993591 6.48231 1.01518 6.54691 1.04893 6.6053C1.08267 6.66368 1.12788 6.71463 1.18183 6.75509C1.23578 6.79555 1.29736 6.82467 1.36286 6.84072C1.42835 6.85676 1.49642 6.85939 1.56296 6.84844C1.6295 6.8375 1.69314 6.81321 1.75005 6.77703Z" fill="#746D6D"/>
    <path d="M2 13.0004C2 13.133 2.05268 13.2602 2.14645 13.354C2.24021 13.4478 2.36739 13.5004 2.5 13.5004H15.5C15.6326 13.5004 15.7598 13.4478 15.8536 13.354C15.9473 13.2602 16 13.133 16 13.0004C16 12.8678 15.9473 12.7406 15.8536 12.6469C15.7598 12.5531 15.6326 12.5004 15.5 12.5004H14V8.81543H13V12.5004H9.5V8.81543H8.5V12.5004H5V8.81543H4V12.5004H2.5C2.36739 12.5004 2.24021 12.5531 2.14645 12.6469C2.05268 12.7406 2 12.8678 2 13.0004Z" fill="#746D6D"/>
    <path d="M15.51 6.99805H2.51001V7.99805H15.51V6.99805Z" fill="#746D6D"/>
    <path d="M16.5 14.498H1.5C1.36739 14.498 1.24021 14.5507 1.14645 14.6445C1.05268 14.7383 1 14.8654 1 14.998C1 15.1307 1.05268 15.2578 1.14645 15.3516C1.24021 15.4454 1.36739 15.498 1.5 15.498H16.5C16.6326 15.498 16.7598 15.4454 16.8536 15.3516C16.9473 15.2578 17 15.1307 17 14.998C17 14.8654 16.9473 14.7383 16.8536 14.6445C16.7598 14.5507 16.6326 14.498 16.5 14.498Z" fill="#746D6D"/>
    <path d="M11.0749 5.78925H12.6799L9.32494 3.85925C9.26413 3.82415 9.19516 3.80566 9.12494 3.80566C9.05473 3.80566 8.98575 3.82415 8.92494 3.85925L5.56494 5.78925H7.16994L9.11994 4.66925L11.0749 5.78925Z" fill="#746D6D"/>
</svg>
