<svg width="37" height="28" viewBox="0 0 37 28" fill="none" xmlns="http://www.w3.org/2000/svg">
    <path d="M35.3001 10.4033L34.5001 9.56796L31.6924 2.10387C31.214 0.843094 29.9906 0.00773481 28.6259 0H8.57209C7.20746 0 5.984 0.843094 5.50559 2.10387L2.73711 9.47514L1.58423 10.5271C0.580361 11.3702 0 12.6077 0 13.9072V24.7823C0.00784272 26.5613 1.47443 28 3.27826 28H5.34874C7.15256 28 8.61915 26.5613 8.62699 24.7823V23.2044H28.0769V24.7823C28.0848 26.5613 29.5514 28 31.3552 28H33.4257C35.2295 28 36.6961 26.5613 36.7039 24.7823V13.621C36.6961 12.4066 36.1942 11.2464 35.3001 10.4033ZM6.98002 2.62983C7.23099 1.97238 7.86625 1.54696 8.57209 1.54696H28.6338C29.3396 1.54696 29.9749 1.98011 30.2258 2.62983L32.6728 9.12707H30.8454C30.4141 6.22652 27.677 4.2232 24.7359 4.65635C22.391 4.99669 20.5479 6.81436 20.2029 9.12707H4.53309L6.98002 2.62983ZM29.2455 9.12707H21.7871C22.2184 7.09282 24.2419 5.79337 26.3045 6.21878C27.7789 6.52818 28.9318 7.66519 29.2455 9.12707ZM7.05845 24.7823C7.05061 25.7105 6.28986 26.453 5.34874 26.453H3.27826C2.33713 26.453 1.57639 25.7105 1.56854 24.7823V22.7558C2.03911 23.0575 2.65868 23.2044 3.27826 23.2044H7.05845V24.7823ZM35.1354 24.7823C35.1276 25.7105 34.3668 26.453 33.4257 26.453H31.3552C30.4141 26.453 29.6533 25.7028 29.6455 24.7823V23.2044H33.4257C34.0453 23.2044 34.6648 23.0575 35.1354 22.7558V24.7823ZM33.4257 21.6575H3.27826C2.34497 21.6652 1.57639 20.9304 1.56854 20.0022V13.9072C1.56854 13.0564 1.95284 12.2442 2.61163 11.695C2.61947 11.6873 2.63515 11.6718 2.643 11.6641L3.70961 10.674H33.41L34.1629 11.4707C34.1707 11.4862 34.1943 11.4939 34.2021 11.5094C34.7903 12.0586 35.1276 12.8243 35.1276 13.621V20.0022H35.1354C35.1276 20.9227 34.359 21.6652 33.4257 21.6575Z" fill="#934DC6"/>
    <path d="M10.3524 13.7686H4.47037C4.03902 13.7686 3.6861 14.1166 3.6861 14.542V18.5641C3.6861 18.9895 4.03902 19.3376 4.47037 19.3376H10.3524C10.7838 19.3376 11.1367 18.9895 11.1367 18.5641V14.542C11.1367 14.1166 10.7838 13.7686 10.3524 13.7686ZM9.56814 17.7907H5.25464V15.3155H9.56814V17.7907Z" fill="#934DC6"/>
    <path d="M32.2335 13.7686H26.3515C25.9201 13.7686 25.5672 14.1166 25.5672 14.542V18.5641C25.5672 18.9895 25.9201 19.3376 26.3515 19.3376H32.2335C32.6649 19.3376 33.0178 18.9895 33.0178 18.5641V14.542C33.0178 14.1166 32.6649 13.7686 32.2335 13.7686ZM31.4493 17.7907H27.1358V15.3155H31.4493V17.7907Z" fill="#934DC6"/>
    <path d="M22.14 17.0166H14.5639C14.1326 17.0166 13.7796 17.3647 13.7796 17.7901C13.7796 18.2155 14.1326 18.5636 14.5639 18.5636H22.14C22.5713 18.5636 22.9242 18.2155 22.9242 17.7901C22.9242 17.3647 22.5713 17.0166 22.14 17.0166Z" fill="#934DC6"/>
    <path d="M22.14 14.6182H14.5639C14.1326 14.6182 13.7796 14.9662 13.7796 15.3916C13.7796 15.8171 14.1326 16.1651 14.5639 16.1651H22.14C22.5713 16.1651 22.9242 15.8171 22.9242 15.3916C22.9242 14.9662 22.5713 14.6182 22.14 14.6182Z" fill="#934DC6"/>
</svg>
