<svg width="20" height="15" viewBox="0 0 20 15" fill="none" xmlns="http://www.w3.org/2000/svg">
<mask id="path-1-inside-1" fill="white">
<path d="M18.3374 0H1.66259C1.22199 0.000359673 0.799516 0.175453 0.487838 0.486876C0.17616 0.798299 0.000720373 1.22063 0 1.66122L0 12.7578C0.000360307 13.1987 0.175641 13.6213 0.487358 13.9331C0.799075 14.2448 1.22175 14.42 1.66259 14.4204H18.3374C18.7782 14.42 19.2009 14.2448 19.5126 13.9331C19.8244 13.6213 19.9996 13.1987 20 12.7578V1.66122C19.9993 1.22063 19.8238 0.798299 19.5122 0.486876C19.2005 0.175453 18.778 0.000359669 18.3374 0V0ZM19.1837 12.7592C19.1837 12.8703 19.1618 12.9804 19.1193 13.083C19.0767 13.1857 19.0144 13.279 18.9358 13.3576C18.8572 13.4362 18.7639 13.4985 18.6613 13.541C18.5586 13.5836 18.4485 13.6054 18.3374 13.6054H1.66259C1.43825 13.6051 1.22321 13.5158 1.06459 13.3572C0.905961 13.1986 0.816686 12.9835 0.816327 12.7592V4.35374H19.1837V12.7592ZM19.1837 3.53742H0.816327V1.66122C0.816686 1.43689 0.905961 1.22185 1.06459 1.06323C1.22321 0.9046 1.43825 0.815326 1.66259 0.814966H18.3374C18.4485 0.814966 18.5586 0.836855 18.6613 0.879384C18.7639 0.921912 18.8572 0.984247 18.9358 1.06283C19.0144 1.14141 19.0767 1.2347 19.1193 1.33738C19.1618 1.44005 19.1837 1.55009 19.1837 1.66122V3.53742ZM2.88027 6.62041H10.1361C10.2443 6.62041 10.3481 6.57741 10.4247 6.50086C10.5012 6.42431 10.5442 6.3205 10.5442 6.21225C10.5442 6.10399 10.5012 6.00018 10.4247 5.92363C10.3481 5.84708 10.2443 5.80408 10.1361 5.80408H2.88027C2.77202 5.80408 2.6682 5.84708 2.59166 5.92363C2.51511 6.00018 2.47211 6.10399 2.47211 6.21225C2.47211 6.3205 2.51511 6.42431 2.59166 6.50086C2.6682 6.57741 2.77202 6.62041 2.88027 6.62041V6.62041Z"/>
</mask>
<path d="M18.3374 0H1.66259C1.22199 0.000359673 0.799516 0.175453 0.487838 0.486876C0.17616 0.798299 0.000720373 1.22063 0 1.66122L0 12.7578C0.000360307 13.1987 0.175641 13.6213 0.487358 13.9331C0.799075 14.2448 1.22175 14.42 1.66259 14.4204H18.3374C18.7782 14.42 19.2009 14.2448 19.5126 13.9331C19.8244 13.6213 19.9996 13.1987 20 12.7578V1.66122C19.9993 1.22063 19.8238 0.798299 19.5122 0.486876C19.2005 0.175453 18.778 0.000359669 18.3374 0V0ZM19.1837 12.7592C19.1837 12.8703 19.1618 12.9804 19.1193 13.083C19.0767 13.1857 19.0144 13.279 18.9358 13.3576C18.8572 13.4362 18.7639 13.4985 18.6613 13.541C18.5586 13.5836 18.4485 13.6054 18.3374 13.6054H1.66259C1.43825 13.6051 1.22321 13.5158 1.06459 13.3572C0.905961 13.1986 0.816686 12.9835 0.816327 12.7592V4.35374H19.1837V12.7592ZM19.1837 3.53742H0.816327V1.66122C0.816686 1.43689 0.905961 1.22185 1.06459 1.06323C1.22321 0.9046 1.43825 0.815326 1.66259 0.814966H18.3374C18.4485 0.814966 18.5586 0.836855 18.6613 0.879384C18.7639 0.921912 18.8572 0.984247 18.9358 1.06283C19.0144 1.14141 19.0767 1.2347 19.1193 1.33738C19.1618 1.44005 19.1837 1.55009 19.1837 1.66122V3.53742ZM2.88027 6.62041H10.1361C10.2443 6.62041 10.3481 6.57741 10.4247 6.50086C10.5012 6.42431 10.5442 6.3205 10.5442 6.21225C10.5442 6.10399 10.5012 6.00018 10.4247 5.92363C10.3481 5.84708 10.2443 5.80408 10.1361 5.80408H2.88027C2.77202 5.80408 2.6682 5.84708 2.59166 5.92363C2.51511 6.00018 2.47211 6.10399 2.47211 6.21225C2.47211 6.3205 2.51511 6.42431 2.59166 6.50086C2.6682 6.57741 2.77202 6.62041 2.88027 6.62041V6.62041Z" fill="#746D6D"/>
<path d="M18.3374 0H19.3374V-1H18.3374V0ZM1.66259 0L1.66259 -1L1.66177 -1L1.66259 0ZM0 1.66122L-1 1.65959V1.66122H0ZM0 12.7578L-1 12.7578L-1 12.7586L0 12.7578ZM1.66259 14.4204L1.66177 15.4204H1.66259V14.4204ZM18.3374 14.4204L18.3374 15.4204L18.3382 15.4204L18.3374 14.4204ZM20 12.7578L21 12.7586V12.7578H20ZM20 1.66122L21 1.66122L21 1.65959L20 1.66122ZM18.3374 0H17.3374V0.999184L18.3366 1L18.3374 0ZM19.1837 12.7592H20.1837H19.1837ZM18.3374 13.6054L18.3374 12.6054H18.3374V13.6054ZM1.66259 13.6054L1.66098 14.6054H1.66259V13.6054ZM0.816327 12.7592L-0.183675 12.7592L-0.183672 12.7608L0.816327 12.7592ZM0.816327 4.35374V3.35374H-0.183673V4.35374H0.816327ZM19.1837 4.35374H20.1837V3.35374H19.1837V4.35374ZM19.1837 3.53742V4.53742H20.1837V3.53742H19.1837ZM0.816327 3.53742H-0.183673V4.53742H0.816327V3.53742ZM0.816327 1.66122L-0.183673 1.65962V1.66122H0.816327ZM1.66259 0.814966L1.66259 -0.185035L1.66098 -0.185033L1.66259 0.814966ZM18.3374 0.814966L18.3374 1.81497L18.3374 1.81497L18.3374 0.814966ZM19.1837 1.66122L18.1837 1.66122V1.66122H19.1837ZM18.3374 -1H1.66259V1H18.3374V-1ZM1.66177 -1C0.956378 -0.999424 0.280011 -0.719102 -0.218979 -0.22052L1.19466 1.19427C1.31902 1.07001 1.48759 1.00014 1.6634 1L1.66177 -1ZM-0.218979 -0.22052C-0.71797 0.278063 -0.998845 0.9542 -0.999999 1.65959L0.999999 1.66286C1.00029 1.48705 1.07029 1.31854 1.19466 1.19427L-0.218979 -0.22052ZM-1 1.66122L-1 12.7578H1L1 1.66122H-1ZM-1 12.7586C-0.999423 13.4644 -0.718802 14.1411 -0.219749 14.6402L1.19446 13.2259C1.07008 13.1016 1.00014 12.9329 1 12.757L-1 12.7586ZM-0.219749 14.6402C0.279304 15.1392 0.956 15.4198 1.66177 15.4204L1.6634 13.4204C1.4875 13.4203 1.31885 13.3503 1.19446 13.2259L-0.219749 14.6402ZM1.66259 15.4204H18.3374V13.4204H1.66259V15.4204ZM18.3382 15.4204C19.044 15.4198 19.7207 15.1392 20.2197 14.6402L18.8055 13.2259C18.6812 13.3503 18.5125 13.4203 18.3366 13.4204L18.3382 15.4204ZM20.2197 14.6402C20.7188 14.1411 20.9994 13.4644 21 12.7586L19 12.757C18.9999 12.9329 18.9299 13.1016 18.8055 13.2259L20.2197 14.6402ZM21 12.7578V1.66122H19V12.7578H21ZM21 1.65959C20.9988 0.9542 20.718 0.278063 20.219 -0.22052L18.8053 1.19427C18.9297 1.31854 18.9997 1.48705 19 1.66286L21 1.65959ZM20.219 -0.22052C19.72 -0.719103 19.0436 -0.999424 18.3382 -1L18.3366 1C18.5124 1.00014 18.681 1.07001 18.8053 1.19427L20.219 -0.22052ZM19.3374 0V0H17.3374V0H19.3374ZM18.1837 12.7592C18.1837 12.739 18.1876 12.719 18.1954 12.7003L20.0431 13.4657C20.1359 13.2417 20.1837 13.0016 20.1837 12.7592L18.1837 12.7592ZM18.1954 12.7003C18.2031 12.6817 18.2144 12.6647 18.2287 12.6505L19.6429 14.0647C19.8144 13.8932 19.9504 13.6897 20.0431 13.4657L18.1954 12.7003ZM18.2287 12.6505C18.243 12.6362 18.2599 12.6249 18.2786 12.6171L19.0439 14.4649C19.268 14.3721 19.4715 14.2361 19.6429 14.0647L18.2287 12.6505ZM18.2786 12.6171C18.2972 12.6094 18.3172 12.6054 18.3374 12.6054L18.3374 14.6054C18.5799 14.6054 18.8199 14.5577 19.0439 14.4649L18.2786 12.6171ZM18.3374 12.6054H1.66259V14.6054H18.3374V12.6054ZM1.66419 12.6054C1.70452 12.6055 1.74318 12.6216 1.77169 12.6501L0.357481 14.0643C0.703251 14.4101 1.17199 14.6047 1.66098 14.6054L1.66419 12.6054ZM1.77169 12.6501C1.80021 12.6786 1.81626 12.7173 1.81633 12.7576L-0.183672 12.7608C-0.182888 13.2498 0.0117108 13.7185 0.357481 14.0643L1.77169 12.6501ZM1.81633 12.7592V4.35374H-0.183673V12.7592H1.81633ZM0.816327 5.35374H19.1837V3.35374H0.816327V5.35374ZM18.1837 4.35374V12.7592H20.1837V4.35374H18.1837ZM19.1837 2.53742H0.816327V4.53742H19.1837V2.53742ZM1.81633 3.53742V1.66122H-0.183673V3.53742H1.81633ZM1.81633 1.66283C1.81626 1.70316 1.80021 1.74182 1.77169 1.77033L0.357481 0.35612C0.0117106 0.70189 -0.182888 1.17063 -0.183672 1.65962L1.81633 1.66283ZM1.77169 1.77033C1.74318 1.79885 1.70452 1.8149 1.66419 1.81496L1.66098 -0.185033C1.17199 -0.184248 0.70325 0.0103501 0.357481 0.35612L1.77169 1.77033ZM1.66259 1.81497H18.3374V-0.185034H1.66259V1.81497ZM18.3374 1.81497C18.3172 1.81497 18.2972 1.81099 18.2786 1.80326L19.0439 -0.0444959C18.8199 -0.137279 18.5799 -0.185034 18.3374 -0.185034L18.3374 1.81497ZM18.2786 1.80326C18.2599 1.79554 18.243 1.78421 18.2287 1.76994L19.6429 0.355723C19.4715 0.184283 19.2679 0.0482878 19.0439 -0.0444959L18.2786 1.80326ZM18.2287 1.76994C18.2144 1.75566 18.2031 1.73871 18.1954 1.72006L20.0431 0.954692C19.9504 0.730691 19.8144 0.527161 19.6429 0.355723L18.2287 1.76994ZM18.1954 1.72006C18.1876 1.7014 18.1837 1.68141 18.1837 1.66122L20.1837 1.66122C20.1837 1.41877 20.1359 1.17869 20.0431 0.954692L18.1954 1.72006ZM18.1837 1.66122V3.53742H20.1837V1.66122H18.1837ZM2.88027 7.62041H10.1361V5.62041H2.88027V7.62041ZM10.1361 7.62041C10.5095 7.62041 10.8677 7.47205 11.1318 7.20797L9.71756 5.79375C9.82855 5.68276 9.97909 5.62041 10.1361 5.62041V7.62041ZM11.1318 7.20797C11.3959 6.94389 11.5442 6.58572 11.5442 6.21225H9.54422C9.54422 6.05528 9.60657 5.90474 9.71756 5.79375L11.1318 7.20797ZM11.5442 6.21225C11.5442 5.83878 11.3959 5.4806 11.1318 5.21652L9.71756 6.63074C9.60657 6.51975 9.54422 6.36921 9.54422 6.21225H11.5442ZM11.1318 5.21652C10.8677 4.95244 10.5095 4.80408 10.1361 4.80408V6.80408C9.97909 6.80408 9.82855 6.74173 9.71756 6.63074L11.1318 5.21652ZM10.1361 4.80408H2.88027V6.80408H10.1361V4.80408ZM2.88027 4.80408C2.5068 4.80408 2.14863 4.95244 1.88455 5.21652L3.29876 6.63074C3.18777 6.74173 3.03724 6.80408 2.88027 6.80408V4.80408ZM1.88455 5.21652C1.62047 5.4806 1.47211 5.83878 1.47211 6.21225H3.47211C3.47211 6.36921 3.40975 6.51975 3.29876 6.63074L1.88455 5.21652ZM1.47211 6.21225C1.47211 6.58571 1.62047 6.94389 1.88455 7.20797L3.29876 5.79375C3.40975 5.90474 3.47211 6.05528 3.47211 6.21225H1.47211ZM1.88455 7.20797C2.14863 7.47205 2.5068 7.62041 2.88027 7.62041V5.62041C3.03724 5.62041 3.18777 5.68276 3.29876 5.79375L1.88455 7.20797Z" fill="black" mask="url(#path-1-inside-1)"/>
</svg>
