<svg width="80" height="90" viewBox="0 0 80 90" fill="none" xmlns="http://www.w3.org/2000/svg">
    <path d="M35.0034 19.1245L26.6654 16.8554C25.754 16.6074 24.7317 16.8129 23.9974 17.3915C23.4389 17.8313 23.0911 18.4545 23.0155 19.1347L22.0918 22.6361C21.8196 23.2766 21.8173 24.0074 22.0929 24.6829C22.1836 24.9052 22.3021 25.1158 22.4433 25.3109C21.5607 27.1774 20.5544 29.4792 19.4982 32.0401C19.4969 32.0431 19.4957 32.0459 19.4945 32.0488C18.5719 34.2861 17.6117 36.7196 16.6632 39.2324C13.4299 40.1232 9.30677 43.9668 8.1072 48.5125L0.170426 78.5972C-0.593345 81.4929 1.28225 84.5281 4.35135 85.3632L12.4766 87.5745C12.4766 87.5745 12.4769 87.5745 12.4769 87.5747L20.6018 89.7858C21.1304 89.9296 21.6673 90.001 22.1991 90.001C23.1252 90.001 24.036 89.7848 24.8596 89.3597C26.2186 88.6584 27.1753 87.4827 27.5535 86.0494L28.6452 81.911C28.6454 81.9105 28.6457 81.9098 28.6457 81.9093C28.6459 81.9088 28.6459 81.9082 28.6461 81.9077L35.4904 55.9649C36.6898 51.419 35.011 45.9967 32.6496 43.5831C33.2445 39.7783 33.7391 36.101 34.0885 32.9252C34.0896 32.9161 34.0908 32.9069 34.0917 32.8976C34.2665 31.3063 34.4044 29.8425 34.5005 28.5514C35.2497 28.1786 35.844 27.4939 36.0766 26.6131L37.086 22.7876C37.5057 21.1945 36.5714 19.5513 35.0034 19.1245ZM24.2099 85.1391C24.0893 85.5959 23.7632 85.9818 23.2914 86.2252C22.7575 86.5007 22.1204 86.5592 21.4975 86.3897L13.3728 84.1788C13.3726 84.1788 13.3726 84.1786 13.3724 84.1786L5.24717 81.9673C4.04241 81.6395 3.2487 80.5127 3.51385 79.5069L4.1582 77.0644L24.8542 82.6968L24.2099 85.1391ZM25.7502 79.3011L5.05402 73.6687L11.0031 51.1202L31.6991 56.7525L25.7502 79.3011ZM32.4132 53.3072L12.0803 47.7737C13.581 44.7649 16.6264 42.5877 17.972 42.5532C18.6749 42.5353 19.2974 42.087 19.5468 41.4192C20.4463 39.0104 21.3604 36.6644 22.2452 34.4858H30.4239C30.1387 36.846 29.784 39.4262 29.3765 42.0916L28.9533 41.9765C28.0296 41.7251 27.081 42.2816 26.8337 43.2194C26.5864 44.1572 27.1341 45.121 28.0575 45.3722L30.0442 45.9129C31.1717 46.8282 32.5866 50.0959 32.4132 53.3072ZM32.8384 25.3037C32.8248 25.3039 32.8113 25.3055 32.7976 25.306C32.7848 25.3064 32.7723 25.3072 32.7597 25.3081C32.7176 25.3108 32.6759 25.3148 32.6346 25.3204C32.6202 25.3224 32.606 25.3241 32.5918 25.3264C32.5504 25.3331 32.5096 25.3415 32.4689 25.3512C32.4572 25.354 32.445 25.3561 32.4333 25.3593C32.3836 25.3723 32.3346 25.3872 32.2865 25.4046C32.2709 25.4103 32.2559 25.4171 32.2403 25.4231C32.2079 25.4359 32.1757 25.4491 32.1442 25.4637C32.1247 25.4728 32.1056 25.4827 32.0866 25.4925C32.0594 25.5064 32.0328 25.5208 32.0063 25.5361C31.9878 25.5468 31.9693 25.5579 31.9511 25.5693C31.9236 25.5866 31.8969 25.605 31.8704 25.6238C31.8552 25.6347 31.8398 25.6451 31.8249 25.6565C31.7898 25.6832 31.7559 25.7114 31.7228 25.7407C31.7176 25.7453 31.7121 25.7493 31.7071 25.7541C31.6681 25.7896 31.6311 25.827 31.5953 25.8659C31.5878 25.874 31.5811 25.8826 31.5738 25.8908C31.5466 25.9216 31.5203 25.9532 31.4952 25.9861C31.485 25.9995 31.4753 26.0134 31.4654 26.0271C31.4449 26.0555 31.4251 26.0847 31.4063 26.1146C31.3957 26.1313 31.3853 26.1484 31.3753 26.1654C31.359 26.1932 31.3438 26.2218 31.3289 26.2507C31.3189 26.2702 31.3088 26.2895 31.2995 26.3094C31.2865 26.3375 31.2747 26.3663 31.2631 26.3952C31.2545 26.4164 31.2451 26.4373 31.2375 26.459C31.2223 26.5015 31.209 26.5451 31.1968 26.5894C31.1825 26.6419 31.1709 26.6956 31.1612 26.7499C31.1591 26.7613 31.156 26.7727 31.1541 26.7842C31.1529 26.7915 31.1527 26.7994 31.1515 26.8072C31.1439 26.8603 31.1378 26.9133 31.1349 26.9663C31.0719 28.1171 30.9625 29.469 30.8131 30.9704H23.7095C24.6043 28.8819 25.4373 27.0524 26.1551 25.6103C26.1777 25.5646 26.198 25.5171 26.2168 25.469C26.2201 25.4604 26.2246 25.4519 26.2279 25.4433C26.2314 25.4338 26.2338 25.4238 26.2373 25.4143C26.2563 25.3609 26.2729 25.3071 26.2868 25.2528C26.298 25.2083 26.3081 25.1636 26.3157 25.1192C26.3195 25.0974 26.3216 25.0756 26.3245 25.0538C26.3288 25.0214 26.3331 24.9893 26.3356 24.9571C26.3373 24.9365 26.338 24.916 26.3389 24.8954C26.3404 24.8609 26.3413 24.8267 26.3408 24.7926C26.3404 24.7743 26.3401 24.756 26.3392 24.7379C26.3376 24.6999 26.3345 24.6623 26.3306 24.6249C26.329 24.6103 26.3276 24.5957 26.3257 24.5811C26.3198 24.5363 26.312 24.4918 26.3027 24.4477C26.3011 24.4403 26.3001 24.4331 26.2985 24.4257C26.2866 24.3726 26.2724 24.3202 26.2558 24.2687C26.2547 24.2656 26.2535 24.2626 26.2525 24.2596C26.2374 24.2139 26.2203 24.1687 26.2016 24.1246C26.1947 24.1084 26.1871 24.0926 26.1798 24.0766C26.1658 24.0458 26.1512 24.0154 26.1353 23.9856C26.1255 23.9667 26.1151 23.9483 26.1045 23.9298C26.0893 23.9033 26.0732 23.8773 26.0566 23.8514C26.0446 23.8328 26.0327 23.8142 26.0201 23.7959C26.001 23.7686 25.9806 23.7425 25.96 23.7163C25.9486 23.7017 25.9379 23.6866 25.9257 23.6723C25.8932 23.6336 25.8588 23.5964 25.8229 23.5607C25.812 23.5498 25.8004 23.54 25.7892 23.5294C25.7611 23.5029 25.7324 23.477 25.7025 23.4522C25.6897 23.4417 25.6763 23.4315 25.6632 23.4213C25.6319 23.3969 25.5997 23.3737 25.5664 23.3513C25.5545 23.3434 25.5427 23.3353 25.5304 23.3276C25.5195 23.3206 25.509 23.3127 25.4979 23.306L26.2688 20.387L33.6086 22.3844L32.8384 25.3037Z" fill="#C322A4"/>
    <path d="M24.0228 40.6341L23.9823 40.6232C23.059 40.3732 22.1104 40.9306 21.8641 41.8686C21.6176 42.8067 22.1666 43.7698 23.0903 44.02L23.1308 44.0311C23.2802 44.0715 23.4302 44.0908 23.5779 44.0908C24.3427 44.0908 25.0426 43.5717 25.249 42.7855C25.4953 41.8473 24.9463 40.8842 24.0228 40.6341Z" fill="#DF2CBC"/>
    <path d="M24.0278 61.8963C23.1562 60.3629 21.749 59.2664 20.0651 58.8082C19.5116 58.6575 18.9424 58.5811 18.3733 58.5811C15.427 58.5811 12.8362 60.6016 12.0733 63.4946C11.6221 65.2046 11.8535 66.9907 12.7251 68.5239C13.5967 70.057 15.004 71.1537 16.6876 71.6118C17.2411 71.7624 17.8103 71.8387 18.3794 71.8387C21.3256 71.8387 23.9165 69.8183 24.6796 66.9252C25.131 65.2153 24.8994 63.4292 24.0278 61.8963ZM21.3364 66.0155C20.9779 67.3743 19.7621 68.3231 18.3796 68.3231C18.1129 68.3231 17.8451 68.2871 17.5834 68.2159C16.7928 68.0008 16.1321 67.4857 15.7229 66.7659C15.3136 66.0459 15.2049 65.2074 15.4169 64.4043C15.7752 63.0455 16.991 62.0965 18.3735 62.0965C18.6402 62.0965 18.908 62.1325 19.1697 62.2037C19.9602 62.4189 20.621 62.9339 21.0304 63.6539C21.4393 64.3739 21.548 65.2125 21.3364 66.0155Z" fill="#DF2CBC"/>
    <path d="M79.4433 78.597L71.5064 48.5124C70.307 43.9664 66.1839 40.1228 62.9505 39.2323C62.0021 36.7195 61.0419 34.2858 60.1192 32.0487C60.118 32.0457 60.1168 32.0429 60.1156 32.0399C59.0593 29.479 58.0531 27.1771 57.1702 25.3109C57.3113 25.1159 57.4298 24.9052 57.5205 24.683C57.7962 24.0075 57.7938 23.2766 57.5217 22.636L56.5979 19.1347C56.5222 18.4546 56.1747 17.8314 55.6162 17.3916C54.8819 16.8128 53.8595 16.6073 52.9479 16.8555L44.6098 19.1245C43.8514 19.331 43.2169 19.8262 42.8234 20.5188C42.4296 21.2115 42.3246 22.0173 42.5279 22.7875L43.5369 26.6132C43.7695 27.4941 44.3639 28.1787 45.1133 28.5514C45.2092 29.8418 45.3469 31.3046 45.5216 32.8951C45.5226 32.9063 45.5242 32.9176 45.5254 32.9288C45.8746 36.1036 46.3691 39.7793 46.9638 43.5828C44.6024 45.9963 42.9237 51.4189 44.123 55.9646L52.0599 86.049C52.4382 87.4825 53.395 88.6581 54.754 89.3593C55.5776 89.7845 56.4883 90.0005 57.4144 90.0005C57.9461 90.0005 58.4832 89.9293 59.0116 89.7854L75.2622 85.3629C76.7112 84.9687 77.9462 84.0697 78.7398 82.8319C79.5717 81.5343 79.8215 80.0305 79.4433 78.597ZM47.0366 25.3281C47.0109 25.3239 46.9847 25.3204 46.9586 25.3172C46.9288 25.3135 46.899 25.3107 46.8689 25.3086C46.8485 25.3072 46.8281 25.3058 46.8073 25.3051C46.7964 25.3047 46.7859 25.3035 46.7751 25.3033L46.0051 22.384L53.345 20.3871L54.1153 23.3061C54.1042 23.313 54.0937 23.3207 54.0828 23.3277C54.0705 23.3356 54.0584 23.3437 54.0463 23.3518C54.0134 23.3739 53.9814 23.3971 53.9502 23.4212C53.9369 23.4318 53.9234 23.442 53.9102 23.4527C53.8808 23.4771 53.8524 23.5026 53.8247 23.5288C53.8133 23.5397 53.8012 23.5501 53.7899 23.5612C53.7545 23.5967 53.7202 23.6337 53.6878 23.6721C53.6752 23.687 53.6638 23.703 53.6517 23.7185C53.6318 23.7438 53.612 23.7693 53.5935 23.7955C53.5804 23.8141 53.5682 23.8333 53.5558 23.8526C53.5395 23.8777 53.5238 23.903 53.5089 23.9291C53.498 23.9479 53.4874 23.967 53.4772 23.9864C53.4616 24.0157 53.4474 24.0454 53.4336 24.0755C53.426 24.092 53.418 24.1084 53.4111 24.1251C53.3929 24.1683 53.3763 24.2124 53.3614 24.2571C53.36 24.2611 53.3583 24.2652 53.3571 24.2692C53.3405 24.3205 53.3265 24.3727 53.3145 24.4255C53.3128 24.4335 53.3116 24.4416 53.31 24.4497C53.3008 24.493 53.2931 24.5367 53.2872 24.5809C53.2853 24.5958 53.284 24.6109 53.2823 24.6259C53.2783 24.6629 53.2754 24.7002 53.2737 24.7378C53.2728 24.7561 53.2723 24.7746 53.2719 24.793C53.2716 24.8269 53.2725 24.8609 53.274 24.8951C53.2749 24.9161 53.2757 24.9366 53.2771 24.9575C53.2797 24.9897 53.2841 25.0217 53.2884 25.0539C53.2913 25.0757 53.2934 25.0976 53.2974 25.1193C53.3055 25.166 53.3156 25.2126 53.3277 25.2592C53.3401 25.3081 53.3557 25.3566 53.3727 25.4047C53.3772 25.4176 53.3806 25.4311 53.3853 25.4439C53.3874 25.4494 53.3901 25.4547 53.3922 25.4599C53.4123 25.512 53.4343 25.5628 53.4589 25.6118C54.1766 27.0537 55.0092 28.8825 55.9039 30.9705H48.8004C48.6511 29.4689 48.5415 28.117 48.4787 26.9664C48.4757 26.9131 48.4697 26.8595 48.4619 26.8059C48.4609 26.7987 48.4605 26.7915 48.4595 26.7844C48.4576 26.7728 48.4545 26.7612 48.4522 26.7496C48.443 26.6979 48.4325 26.6466 48.419 26.5965C48.4063 26.5494 48.392 26.5034 48.3757 26.4582C48.3686 26.4381 48.36 26.4188 48.352 26.3989C48.3397 26.3682 48.3271 26.3374 48.3132 26.3077C48.3046 26.2893 48.2951 26.2712 48.2857 26.2529C48.2701 26.2225 48.254 26.1924 48.2371 26.163C48.2276 26.1469 48.2179 26.1311 48.208 26.1152C48.1886 26.0845 48.1682 26.0544 48.1469 26.0251C48.1372 26.0117 48.128 25.9982 48.118 25.9852C48.0934 25.953 48.0676 25.9221 48.0412 25.8918C48.0328 25.8825 48.0252 25.8728 48.0169 25.8637C47.9821 25.8259 47.946 25.7895 47.9082 25.7551C47.8953 25.7431 47.8812 25.7324 47.8679 25.7208C47.8433 25.6997 47.8189 25.6788 47.7931 25.6593C47.7717 25.6426 47.7492 25.6273 47.7269 25.6116C47.7087 25.5991 47.6907 25.5867 47.6722 25.5749C47.6462 25.5582 47.6196 25.5422 47.5926 25.5269C47.5777 25.5185 47.5626 25.5106 47.5476 25.5025C47.5173 25.4865 47.4868 25.4708 47.4557 25.4566C47.4461 25.4524 47.4366 25.4487 47.4271 25.4445C47.3224 25.3991 47.2128 25.3643 47.0991 25.3408C47.0785 25.3364 47.0578 25.3318 47.0366 25.3281ZM49.5701 45.9128L51.5566 45.3723C52.48 45.1211 53.0279 44.1571 52.7804 43.2195C52.5329 42.2819 51.5836 41.725 50.6608 41.9766L50.2376 42.0917C49.8302 39.4262 49.4756 36.8457 49.1902 34.4859H57.3691C58.2538 36.6645 59.1682 39.0105 60.0675 41.4193C60.3169 42.087 60.9392 42.5352 61.6423 42.5531C62.9877 42.5876 66.0329 44.7648 67.5337 47.7738L47.2007 53.3073C47.0273 50.0957 48.4423 46.8279 49.5701 45.9128ZM53.8635 79.3012L47.9146 56.7525L68.6107 51.1201L74.5595 73.6688L53.8635 79.3012ZM75.8392 80.9138C75.5123 81.4235 74.9895 81.7978 74.3667 81.9672L58.1161 86.3897C57.4932 86.5591 56.8564 86.5008 56.3223 86.2251C55.8505 85.9817 55.5245 85.596 55.4039 85.139L54.7595 82.6967L75.4555 77.0644L76.0999 79.5068C76.2204 79.9639 76.1279 80.4636 75.8392 80.9138Z" fill="#C322A4"/>
    <path d="M57.7491 41.8671C57.5018 40.9295 56.5534 40.3724 55.6297 40.6238L55.5894 40.6349C54.666 40.8861 54.1181 41.8499 54.3654 42.7875C54.5724 43.573 55.2716 44.0911 56.0361 44.0911C56.184 44.0911 56.335 44.0716 56.4848 44.0308L56.5252 44.0197C57.4485 43.7685 57.9965 42.8047 57.7491 41.8671Z" fill="#DF2CBC"/>
    <path d="M67.5404 63.4948C66.7773 60.6016 64.1864 58.5811 61.2402 58.5811C60.6711 58.5811 60.1019 58.6575 59.5484 58.8082C57.8646 59.2662 56.4575 60.3629 55.5857 61.8963C54.7143 63.4294 54.4827 65.2155 54.9338 66.9257C55.697 69.8183 58.2879 71.8389 61.2339 71.8391C61.2341 71.8391 61.2341 71.8391 61.2343 71.8391C61.8032 71.8391 62.3724 71.7626 62.9259 71.6122C64.6096 71.1541 66.0168 70.0574 66.8884 68.5242C67.76 66.9909 67.9916 65.2048 67.5404 63.4948ZM63.891 66.7663C63.4816 67.4862 62.8209 68.0011 62.0304 68.2163C61.7689 68.2875 61.501 68.3235 61.2345 68.3235C61.2345 68.3235 61.2345 68.3235 61.2343 68.3235C59.852 68.3235 58.6358 67.3744 58.2774 66.0158C58.0655 65.2129 58.1742 64.3742 58.5833 63.6542C58.9927 62.9342 59.6534 62.4194 60.444 62.2041C60.7056 62.1329 60.9735 62.0968 61.2402 62.0968C62.6225 62.0968 63.8385 63.0459 64.197 64.4048C64.4088 65.2076 64.3001 66.0463 63.891 66.7663Z" fill="#DF2CBC"/>
    <path d="M39.8069 0C38.851 0 38.0761 0.786967 38.0761 1.7578V6.46238C38.0761 7.43321 38.851 8.22018 39.8069 8.22018C40.7626 8.22018 41.5376 7.43321 41.5376 6.46238V1.7578C41.5376 0.786967 40.7628 0 39.8069 0Z" fill="#FFB822"/>
    <path d="M34.0186 8.82191L31.6655 4.74768C31.182 3.91026 30.1214 3.62954 29.297 4.12084C28.4725 4.61197 28.1963 5.68898 28.6798 6.52639L31.0329 10.6006C31.3552 11.1585 31.9334 11.4693 32.5274 11.4693C32.8249 11.4693 33.1264 11.3915 33.4014 11.2275C34.226 10.7361 34.5022 9.65915 34.0186 8.82191Z" fill="#FFB822"/>
    <path d="M50.3171 4.12081C49.4924 3.6295 48.432 3.9104 47.9484 4.74764L45.5953 8.82187C45.1117 9.65928 45.388 10.7363 46.2125 11.2274C46.4877 11.3914 46.789 11.4693 47.0865 11.4693C47.6805 11.4693 48.2587 11.1585 48.5812 10.6006L50.9343 6.52636C51.4178 5.68894 51.1414 4.61194 50.3171 4.12081Z" fill="#FFB822"/>
</svg>
