<svg width="18" height="18" viewBox="0 0 18 18" fill="none" xmlns="http://www.w3.org/2000/svg">
    <mask id="path-1-outside-1" maskUnits="userSpaceOnUse" x="0" y="0" width="18" height="18" fill="black">
        <rect fill="white" width="18" height="18"/>
        <path d="M16.1763 7.22222H14.6794C14.4388 7.22222 14.2406 7.08978 14.1484 6.86756C14.0563 6.64533 14.1031 6.41126 14.2729 6.24118L15.3313 5.18311C15.4868 5.02756 15.5724 4.82044 15.5724 4.60059C15.5724 4.38044 15.4868 4.17363 15.3313 4.01778L13.9822 2.66874C13.6711 2.35763 13.1286 2.35704 12.8169 2.66874L11.7588 3.72681C11.5887 3.89659 11.3541 3.944 11.1324 3.85156C10.9102 3.75941 10.7778 3.56119 10.7778 3.32059V1.8237C10.7778 1.36948 10.4083 1 9.95407 1H8.04593C7.5917 1 7.22222 1.36948 7.22222 1.8237V3.32059C7.22222 3.56119 7.08978 3.75941 6.86756 3.85156C6.64593 3.9443 6.41126 3.89659 6.24118 3.72681L5.18311 2.66874C4.87141 2.35704 4.32889 2.35763 4.01778 2.66874L2.66874 4.01778C2.51319 4.17333 2.42756 4.38044 2.42756 4.60059C2.42756 4.82044 2.51319 5.02726 2.66874 5.18311L3.72711 6.24118C3.89689 6.41126 3.94341 6.64533 3.85156 6.86756C3.7597 7.08978 3.56119 7.22222 3.32059 7.22222H1.8237C1.36948 7.22222 1 7.5917 1 8.04593V9.95378C1 10.4083 1.36948 10.7778 1.8237 10.7778H3.32059C3.56119 10.7778 3.75941 10.9102 3.85156 11.1324C3.9437 11.3547 3.89689 11.5887 3.72711 11.7588L2.66874 12.8169C2.51319 12.9724 2.42756 13.1796 2.42756 13.3994C2.42756 13.6196 2.51319 13.8264 2.66874 13.9822L4.01778 15.3313C4.32919 15.6427 4.87141 15.6433 5.18311 15.3313L6.24118 14.2729C6.41126 14.1031 6.64504 14.0563 6.86756 14.1484C7.08978 14.2406 7.22222 14.4388 7.22222 14.6794V16.1763C7.22222 16.6305 7.5917 17 8.04593 17H9.95378C10.408 17 10.7775 16.6305 10.7775 16.1763V14.6794C10.7775 14.4388 10.9099 14.2406 11.1321 14.1484C11.3547 14.056 11.5884 14.1031 11.7585 14.2729L12.8166 15.3313C13.1283 15.643 13.6708 15.6424 13.9819 15.3313L15.331 13.9822C15.4865 13.8267 15.5721 13.6196 15.5721 13.3994C15.5721 13.1796 15.4865 12.9727 15.331 12.8169L14.2726 11.7588C14.1028 11.5887 14.0563 11.3547 14.1481 11.1324C14.24 10.9102 14.4388 10.7778 14.6794 10.7778H16.1763C16.6305 10.7778 17 10.4083 17 9.95407V8.04593C17 7.5917 16.6305 7.22222 16.1763 7.22222ZM16.4074 9.95407C16.4074 10.0815 16.3037 10.1852 16.1763 10.1852H14.6794C14.1982 10.1852 13.7849 10.4613 13.6009 10.9058C13.4166 11.3502 13.5135 11.8379 13.8539 12.1781L14.9123 13.2361C15.0027 13.3265 15.0027 13.4732 14.9123 13.5633L13.5633 14.9123C13.4732 15.0024 13.3265 15.003 13.2361 14.9123L12.1781 13.8539C11.8376 13.5135 11.3502 13.4172 10.9058 13.6009C10.4613 13.7849 10.1852 14.1982 10.1852 14.6794V16.1763C10.1852 16.3037 10.0815 16.4074 9.95407 16.4074H8.04593C7.91852 16.4074 7.81481 16.3037 7.81481 16.1763V14.6794C7.81481 14.1982 7.53867 13.7849 7.09422 13.6009C6.94519 13.539 6.7917 13.5087 6.64 13.5087C6.33956 13.5087 6.0483 13.6273 5.82193 13.8536L4.76385 14.912C4.67319 15.0027 4.52652 15.0021 4.43674 14.912L3.0877 13.563C2.99733 13.4726 2.99733 13.3259 3.0877 13.2359L4.14607 12.1778C4.48622 11.8376 4.58341 11.3499 4.39911 10.9055C4.21511 10.4613 3.80178 10.1852 3.32059 10.1852H1.8237C1.6963 10.1852 1.59259 10.0815 1.59259 9.95407V8.04593C1.59259 7.91852 1.6963 7.81481 1.8237 7.81481H3.32059C3.80178 7.81481 4.21511 7.53867 4.39911 7.09422C4.58341 6.64978 4.48652 6.16207 4.14607 5.82193L3.0877 4.76385C2.99733 4.67348 2.99733 4.52681 3.0877 4.43674L4.43674 3.0877C4.52681 2.99733 4.67348 2.99733 4.76385 3.0877L5.82193 4.14578C6.16178 4.48563 6.64919 4.58311 7.09422 4.39881C7.53867 4.21511 7.81481 3.80178 7.81481 3.32059V1.8237C7.81481 1.6963 7.91852 1.59259 8.04593 1.59259H9.95378C10.0815 1.59259 10.1852 1.6963 10.1852 1.8237V3.32059C10.1852 3.80178 10.4613 4.21511 10.9058 4.39911C11.3508 4.58341 11.8379 4.48622 12.1781 4.14607L13.2361 3.088C13.3268 2.99763 13.4735 2.99763 13.5633 3.088L14.9123 4.43704C15.0027 4.52741 15.0027 4.67407 14.9123 4.76415L13.8539 5.82222C13.5138 6.16237 13.4166 6.65007 13.6009 7.09452C13.7849 7.53896 14.1982 7.81511 14.6794 7.81511H16.1763C16.3037 7.81481 16.4074 7.91852 16.4074 8.04593V9.95407Z"/>
    </mask>
    <path d="M16.1763 7.22222H14.6794C14.4388 7.22222 14.2406 7.08978 14.1484 6.86756C14.0563 6.64533 14.1031 6.41126 14.2729 6.24118L15.3313 5.18311C15.4868 5.02756 15.5724 4.82044 15.5724 4.60059C15.5724 4.38044 15.4868 4.17363 15.3313 4.01778L13.9822 2.66874C13.6711 2.35763 13.1286 2.35704 12.8169 2.66874L11.7588 3.72681C11.5887 3.89659 11.3541 3.944 11.1324 3.85156C10.9102 3.75941 10.7778 3.56119 10.7778 3.32059V1.8237C10.7778 1.36948 10.4083 1 9.95407 1H8.04593C7.5917 1 7.22222 1.36948 7.22222 1.8237V3.32059C7.22222 3.56119 7.08978 3.75941 6.86756 3.85156C6.64593 3.9443 6.41126 3.89659 6.24118 3.72681L5.18311 2.66874C4.87141 2.35704 4.32889 2.35763 4.01778 2.66874L2.66874 4.01778C2.51319 4.17333 2.42756 4.38044 2.42756 4.60059C2.42756 4.82044 2.51319 5.02726 2.66874 5.18311L3.72711 6.24118C3.89689 6.41126 3.94341 6.64533 3.85156 6.86756C3.7597 7.08978 3.56119 7.22222 3.32059 7.22222H1.8237C1.36948 7.22222 1 7.5917 1 8.04593V9.95378C1 10.4083 1.36948 10.7778 1.8237 10.7778H3.32059C3.56119 10.7778 3.75941 10.9102 3.85156 11.1324C3.9437 11.3547 3.89689 11.5887 3.72711 11.7588L2.66874 12.8169C2.51319 12.9724 2.42756 13.1796 2.42756 13.3994C2.42756 13.6196 2.51319 13.8264 2.66874 13.9822L4.01778 15.3313C4.32919 15.6427 4.87141 15.6433 5.18311 15.3313L6.24118 14.2729C6.41126 14.1031 6.64504 14.0563 6.86756 14.1484C7.08978 14.2406 7.22222 14.4388 7.22222 14.6794V16.1763C7.22222 16.6305 7.5917 17 8.04593 17H9.95378C10.408 17 10.7775 16.6305 10.7775 16.1763V14.6794C10.7775 14.4388 10.9099 14.2406 11.1321 14.1484C11.3547 14.056 11.5884 14.1031 11.7585 14.2729L12.8166 15.3313C13.1283 15.643 13.6708 15.6424 13.9819 15.3313L15.331 13.9822C15.4865 13.8267 15.5721 13.6196 15.5721 13.3994C15.5721 13.1796 15.4865 12.9727 15.331 12.8169L14.2726 11.7588C14.1028 11.5887 14.0563 11.3547 14.1481 11.1324C14.24 10.9102 14.4388 10.7778 14.6794 10.7778H16.1763C16.6305 10.7778 17 10.4083 17 9.95407V8.04593C17 7.5917 16.6305 7.22222 16.1763 7.22222ZM16.4074 9.95407C16.4074 10.0815 16.3037 10.1852 16.1763 10.1852H14.6794C14.1982 10.1852 13.7849 10.4613 13.6009 10.9058C13.4166 11.3502 13.5135 11.8379 13.8539 12.1781L14.9123 13.2361C15.0027 13.3265 15.0027 13.4732 14.9123 13.5633L13.5633 14.9123C13.4732 15.0024 13.3265 15.003 13.2361 14.9123L12.1781 13.8539C11.8376 13.5135 11.3502 13.4172 10.9058 13.6009C10.4613 13.7849 10.1852 14.1982 10.1852 14.6794V16.1763C10.1852 16.3037 10.0815 16.4074 9.95407 16.4074H8.04593C7.91852 16.4074 7.81481 16.3037 7.81481 16.1763V14.6794C7.81481 14.1982 7.53867 13.7849 7.09422 13.6009C6.94519 13.539 6.7917 13.5087 6.64 13.5087C6.33956 13.5087 6.0483 13.6273 5.82193 13.8536L4.76385 14.912C4.67319 15.0027 4.52652 15.0021 4.43674 14.912L3.0877 13.563C2.99733 13.4726 2.99733 13.3259 3.0877 13.2359L4.14607 12.1778C4.48622 11.8376 4.58341 11.3499 4.39911 10.9055C4.21511 10.4613 3.80178 10.1852 3.32059 10.1852H1.8237C1.6963 10.1852 1.59259 10.0815 1.59259 9.95407V8.04593C1.59259 7.91852 1.6963 7.81481 1.8237 7.81481H3.32059C3.80178 7.81481 4.21511 7.53867 4.39911 7.09422C4.58341 6.64978 4.48652 6.16207 4.14607 5.82193L3.0877 4.76385C2.99733 4.67348 2.99733 4.52681 3.0877 4.43674L4.43674 3.0877C4.52681 2.99733 4.67348 2.99733 4.76385 3.0877L5.82193 4.14578C6.16178 4.48563 6.64919 4.58311 7.09422 4.39881C7.53867 4.21511 7.81481 3.80178 7.81481 3.32059V1.8237C7.81481 1.6963 7.91852 1.59259 8.04593 1.59259H9.95378C10.0815 1.59259 10.1852 1.6963 10.1852 1.8237V3.32059C10.1852 3.80178 10.4613 4.21511 10.9058 4.39911C11.3508 4.58341 11.8379 4.48622 12.1781 4.14607L13.2361 3.088C13.3268 2.99763 13.4735 2.99763 13.5633 3.088L14.9123 4.43704C15.0027 4.52741 15.0027 4.67407 14.9123 4.76415L13.8539 5.82222C13.5138 6.16237 13.4166 6.65007 13.6009 7.09452C13.7849 7.53896 14.1982 7.81511 14.6794 7.81511H16.1763C16.3037 7.81481 16.4074 7.91852 16.4074 8.04593V9.95407Z" fill="#CE26BA"/>
    <path d="M16.1763 7.22222H14.6794C14.4388 7.22222 14.2406 7.08978 14.1484 6.86756C14.0563 6.64533 14.1031 6.41126 14.2729 6.24118L15.3313 5.18311C15.4868 5.02756 15.5724 4.82044 15.5724 4.60059C15.5724 4.38044 15.4868 4.17363 15.3313 4.01778L13.9822 2.66874C13.6711 2.35763 13.1286 2.35704 12.8169 2.66874L11.7588 3.72681C11.5887 3.89659 11.3541 3.944 11.1324 3.85156C10.9102 3.75941 10.7778 3.56119 10.7778 3.32059V1.8237C10.7778 1.36948 10.4083 1 9.95407 1H8.04593C7.5917 1 7.22222 1.36948 7.22222 1.8237V3.32059C7.22222 3.56119 7.08978 3.75941 6.86756 3.85156C6.64593 3.9443 6.41126 3.89659 6.24118 3.72681L5.18311 2.66874C4.87141 2.35704 4.32889 2.35763 4.01778 2.66874L2.66874 4.01778C2.51319 4.17333 2.42756 4.38044 2.42756 4.60059C2.42756 4.82044 2.51319 5.02726 2.66874 5.18311L3.72711 6.24118C3.89689 6.41126 3.94341 6.64533 3.85156 6.86756C3.7597 7.08978 3.56119 7.22222 3.32059 7.22222H1.8237C1.36948 7.22222 1 7.5917 1 8.04593V9.95378C1 10.4083 1.36948 10.7778 1.8237 10.7778H3.32059C3.56119 10.7778 3.75941 10.9102 3.85156 11.1324C3.9437 11.3547 3.89689 11.5887 3.72711 11.7588L2.66874 12.8169C2.51319 12.9724 2.42756 13.1796 2.42756 13.3994C2.42756 13.6196 2.51319 13.8264 2.66874 13.9822L4.01778 15.3313C4.32919 15.6427 4.87141 15.6433 5.18311 15.3313L6.24118 14.2729C6.41126 14.1031 6.64504 14.0563 6.86756 14.1484C7.08978 14.2406 7.22222 14.4388 7.22222 14.6794V16.1763C7.22222 16.6305 7.5917 17 8.04593 17H9.95378C10.408 17 10.7775 16.6305 10.7775 16.1763V14.6794C10.7775 14.4388 10.9099 14.2406 11.1321 14.1484C11.3547 14.056 11.5884 14.1031 11.7585 14.2729L12.8166 15.3313C13.1283 15.643 13.6708 15.6424 13.9819 15.3313L15.331 13.9822C15.4865 13.8267 15.5721 13.6196 15.5721 13.3994C15.5721 13.1796 15.4865 12.9727 15.331 12.8169L14.2726 11.7588C14.1028 11.5887 14.0563 11.3547 14.1481 11.1324C14.24 10.9102 14.4388 10.7778 14.6794 10.7778H16.1763C16.6305 10.7778 17 10.4083 17 9.95407V8.04593C17 7.5917 16.6305 7.22222 16.1763 7.22222ZM16.4074 9.95407C16.4074 10.0815 16.3037 10.1852 16.1763 10.1852H14.6794C14.1982 10.1852 13.7849 10.4613 13.6009 10.9058C13.4166 11.3502 13.5135 11.8379 13.8539 12.1781L14.9123 13.2361C15.0027 13.3265 15.0027 13.4732 14.9123 13.5633L13.5633 14.9123C13.4732 15.0024 13.3265 15.003 13.2361 14.9123L12.1781 13.8539C11.8376 13.5135 11.3502 13.4172 10.9058 13.6009C10.4613 13.7849 10.1852 14.1982 10.1852 14.6794V16.1763C10.1852 16.3037 10.0815 16.4074 9.95407 16.4074H8.04593C7.91852 16.4074 7.81481 16.3037 7.81481 16.1763V14.6794C7.81481 14.1982 7.53867 13.7849 7.09422 13.6009C6.94519 13.539 6.7917 13.5087 6.64 13.5087C6.33956 13.5087 6.0483 13.6273 5.82193 13.8536L4.76385 14.912C4.67319 15.0027 4.52652 15.0021 4.43674 14.912L3.0877 13.563C2.99733 13.4726 2.99733 13.3259 3.0877 13.2359L4.14607 12.1778C4.48622 11.8376 4.58341 11.3499 4.39911 10.9055C4.21511 10.4613 3.80178 10.1852 3.32059 10.1852H1.8237C1.6963 10.1852 1.59259 10.0815 1.59259 9.95407V8.04593C1.59259 7.91852 1.6963 7.81481 1.8237 7.81481H3.32059C3.80178 7.81481 4.21511 7.53867 4.39911 7.09422C4.58341 6.64978 4.48652 6.16207 4.14607 5.82193L3.0877 4.76385C2.99733 4.67348 2.99733 4.52681 3.0877 4.43674L4.43674 3.0877C4.52681 2.99733 4.67348 2.99733 4.76385 3.0877L5.82193 4.14578C6.16178 4.48563 6.64919 4.58311 7.09422 4.39881C7.53867 4.21511 7.81481 3.80178 7.81481 3.32059V1.8237C7.81481 1.6963 7.91852 1.59259 8.04593 1.59259H9.95378C10.0815 1.59259 10.1852 1.6963 10.1852 1.8237V3.32059C10.1852 3.80178 10.4613 4.21511 10.9058 4.39911C11.3508 4.58341 11.8379 4.48622 12.1781 4.14607L13.2361 3.088C13.3268 2.99763 13.4735 2.99763 13.5633 3.088L14.9123 4.43704C15.0027 4.52741 15.0027 4.67407 14.9123 4.76415L13.8539 5.82222C13.5138 6.16237 13.4166 6.65007 13.6009 7.09452C13.7849 7.53896 14.1982 7.81511 14.6794 7.81511H16.1763C16.3037 7.81481 16.4074 7.91852 16.4074 8.04593V9.95407Z" stroke="#9EA5B6" stroke-width="0.56" mask="url(#path-1-outside-1)"/>
    <path d="M8.99999 6.19301C7.45216 6.19301 6.19333 7.45184 6.19333 8.99967C6.19333 10.5475 7.45216 11.8063 8.99999 11.8063C10.5478 11.8063 11.8067 10.5475 11.8067 8.99967C11.8067 7.45184 10.5478 6.19301 8.99999 6.19301ZM8.99999 10.9337C7.93391 10.9337 7.06592 10.0658 7.06592 8.99967C7.06592 7.93359 7.93391 7.0656 8.99999 7.0656C10.0661 7.0656 10.9341 7.93359 10.9341 8.99967C10.9341 10.0658 10.0661 10.9337 8.99999 10.9337Z" fill="#CE26BA" stroke="#9EA5B6" stroke-width="0.28"/>
</svg>
