<svg width="19" height="17" viewBox="0 0 19 17" fill="none" xmlns="http://www.w3.org/2000/svg">
<path d="M2.59947 17.0001H12.4255C12.7668 17.0001 13.1049 16.9328 13.4203 16.8022C13.7356 16.6716 14.0222 16.4801 14.2636 16.2387C14.505 15.9973 14.6964 15.7108 14.8271 15.3954C14.9577 15.08 15.025 14.742 15.025 14.4006V5.71837C15.025 5.02895 14.7511 4.36776 14.2636 3.88026C13.7761 3.39277 13.1149 3.1189 12.4255 3.1189H2.59947C1.91005 3.1189 1.24886 3.39277 0.761368 3.88026C0.273872 4.36776 0 5.02895 0 5.71837V14.4006C0 14.742 0.0672374 15.08 0.197873 15.3954C0.328509 15.7108 0.519985 15.9973 0.761368 16.2387C1.00275 16.4801 1.28931 16.6716 1.6047 16.8022C1.92008 16.9328 2.25811 17.0001 2.59947 17.0001ZM1.03979 5.71837C1.03979 5.30472 1.20411 4.908 1.49661 4.61551C1.78911 4.32301 2.18582 4.15869 2.59947 4.15869H12.4255C12.6303 4.15869 12.8331 4.19903 13.0223 4.27741C13.2116 4.35579 13.3835 4.47068 13.5283 4.61551C13.6732 4.76034 13.7881 4.93227 13.8664 5.1215C13.9448 5.31073 13.9852 5.51355 13.9852 5.71837V14.4006C13.9852 14.8143 13.8208 15.211 13.5283 15.5035C13.2358 15.796 12.8391 15.9603 12.4255 15.9603H2.59947C2.18582 15.9603 1.78911 15.796 1.49661 15.5035C1.20411 15.211 1.03979 14.8143 1.03979 14.4006V5.71837Z" fill="#8B93A6"/>
<path d="M18.1461 12.9194V3.11937C18.1461 2.29206 17.8175 1.49864 17.2325 0.913642C16.6475 0.328647 15.8541 0 15.0268 0H4.057C3.91912 0 3.78688 0.0547746 3.68938 0.152274C3.59188 0.249773 3.53711 0.38201 3.53711 0.519895C3.53711 0.657779 3.59188 0.790017 3.68938 0.887516C3.78688 0.985015 3.91912 1.03979 4.057 1.03979H15.0268C15.5783 1.03979 16.1073 1.25889 16.4973 1.64888C16.8873 2.03888 17.1064 2.56783 17.1064 3.11937V12.9194C17.1064 13.0573 17.1611 13.1895 17.2586 13.287C17.3561 13.3845 17.4884 13.4393 17.6263 13.4393C17.7641 13.4393 17.8964 13.3845 17.9939 13.287C18.0914 13.1895 18.1461 13.0573 18.1461 12.9194Z" fill="#8B93A6"/>
</svg>
