<svg width="20" height="12" viewBox="0 0 20 12" fill="none" xmlns="http://www.w3.org/2000/svg">
    <path d="M11.9964 5.99997C11.9964 9.31437 9.31141 11.9999 5.99819 11.9999C2.68497 11.9999 0 9.31378 0 5.99997C0 2.68615 2.68563 0 5.99819 0C9.31075 0 11.9964 2.68615 11.9964 5.99997Z" fill="#E2574C"/>
    <path d="M13.2018 0C11.8566 0 10.6182 0.448208 9.61739 1.19643L9.62219 1.19702C9.81902 1.3872 10.0362 1.52105 10.2036 1.73999L8.95557 1.7598C8.75999 1.95721 8.58179 2.17201 8.41379 2.39522H10.6146C10.782 2.59619 10.9367 2.77085 11.0772 2.99281H8.0148C7.9026 3.18602 7.79883 3.38462 7.70821 3.59099H11.4258C11.523 3.79677 11.61 3.9522 11.6838 4.17002H7.48802C7.42143 4.37705 7.36444 4.58881 7.3212 4.80479H11.8596C11.904 5.01241 11.9382 5.20437 11.9616 5.40001H7.23118C7.21137 5.59743 7.20117 5.79781 7.20117 6.00003H11.9958C11.9958 6.21246 11.9808 6.40922 11.9592 6.60006H7.23118C7.25158 6.80346 7.28159 7.00325 7.3212 7.20008H11.8524C11.8056 7.39447 11.7516 7.59005 11.6838 7.79286H7.4742C7.53777 7.99805 7.61523 8.19724 7.69979 8.39164H11.4258C11.3226 8.61005 11.2056 8.78463 11.0766 8.98923H8.00408C8.12529 9.19921 8.25908 9.39959 8.40424 9.59162L10.6146 9.62459C10.4262 9.85076 10.1844 9.98698 9.96419 10.185C9.97616 10.1946 9.61199 10.1838 8.89496 10.1724C9.98577 11.298 11.5104 12 13.2017 12C16.5155 12 19.2017 9.31378 19.2017 6.00003C19.2017 2.68628 16.5161 0 13.2018 0Z" fill="#F4B459"/>
</svg>
