<svg width="36" height="36" viewBox="0 0 36 36" fill="none" xmlns="http://www.w3.org/2000/svg">
    <path d="M19.72 10.4701C17.609 10.0577 15.425 10.2376 13.41 10.9901C13.3122 11.0289 13.2229 11.0865 13.1474 11.1597C13.0718 11.233 13.0114 11.3204 12.9696 11.4169C12.8852 11.612 12.8818 11.8326 12.96 12.0301C13.0382 12.2277 13.1918 12.3861 13.3868 12.4705C13.5818 12.5549 13.8024 12.5584 14 12.4801C15.735 11.8241 17.617 11.6581 19.44 12.0001C19.5469 12.0283 19.6584 12.034 19.7676 12.0168C19.8767 11.9997 19.9812 11.9602 20.0743 11.9007C20.1674 11.8412 20.2472 11.763 20.3086 11.6712C20.3701 11.5793 20.4118 11.4757 20.4312 11.3669C20.4506 11.2582 20.4472 11.1465 20.4214 11.0391C20.3955 10.9317 20.3476 10.8308 20.2808 10.7428C20.214 10.6548 20.1297 10.5815 20.0331 10.5277C19.9366 10.4739 19.83 10.4407 19.72 10.4301V10.4701Z" fill="#803CB2"/>
    <path d="M25.38 18.0696C26.1311 18.0696 26.74 17.4607 26.74 16.7096C26.74 15.9585 26.1311 15.3496 25.38 15.3496C24.6289 15.3496 24.02 15.9585 24.02 16.7096C24.02 17.4607 24.6289 18.0696 25.38 18.0696Z" fill="#803CB2"/>
    <path d="M35.51 18.6299C35.4173 18.4927 35.2921 18.3807 35.1455 18.304C34.9989 18.2272 34.8355 18.188 34.67 18.1899C33.8621 18.0777 33.1208 17.6805 32.58 17.0699C31.5393 15.9323 30.6548 14.6611 29.95 13.2899L32.83 8.78985C33.0048 8.52908 33.1118 8.22888 33.1415 7.91636C33.1712 7.60385 33.1225 7.28886 33 6.99985C32.8773 6.73692 32.6918 6.5082 32.4598 6.33382C32.2279 6.15944 31.9567 6.04475 31.67 5.99985C29.8386 5.75303 27.9745 6.01241 26.28 6.74985C25.3089 7.1776 24.3951 7.72519 23.56 8.37985C21.9244 7.64643 20.1827 7.17726 18.4 6.98985C11.31 6.29985 4.83 10.8999 4 16.9999C3.67653 16.8543 3.38684 16.6432 3.14928 16.3798C2.91172 16.1164 2.73148 15.8066 2.62 15.4699C2.5487 15.239 2.52435 14.9961 2.5484 14.7557C2.57244 14.5152 2.64439 14.282 2.76 14.0699C2.86367 13.8917 3.01184 13.7435 3.19 13.6399C3.31147 13.5663 3.41727 13.4696 3.50135 13.3551C3.58544 13.2407 3.64616 13.1108 3.68005 12.9729C3.71394 12.8351 3.72035 12.6918 3.69889 12.5515C3.67743 12.4111 3.62854 12.2763 3.555 12.1549C3.48146 12.0334 3.38471 11.9276 3.27028 11.8435C3.15586 11.7594 3.02599 11.6987 2.88809 11.6648C2.7502 11.6309 2.60698 11.6245 2.46661 11.646C2.32624 11.6674 2.19147 11.7163 2.07 11.7899C1.58592 12.087 1.18644 12.5037 0.909998 12.9999C0.652981 13.4655 0.491414 13.9778 0.434751 14.5066C0.378088 15.0355 0.427467 15.5703 0.579998 16.0799C0.767747 16.6973 1.07909 17.2701 1.49511 17.7635C1.91113 18.2569 2.42313 18.6605 3 18.9499L3.92 19.4099C4.03493 21.8441 4.65471 24.2279 5.74 26.4099L5.91 26.7899C6.77734 28.6242 7.88361 30.3357 9.2 31.8799C9.29371 31.9865 9.40906 32.072 9.53838 32.1306C9.66769 32.1893 9.80801 32.2197 9.95 32.2199H14.47C14.6338 32.219 14.7949 32.178 14.9391 32.1004C15.0833 32.0227 15.2062 31.9108 15.2971 31.7746C15.3879 31.6383 15.4439 31.4818 15.4601 31.3188C15.4763 31.1558 15.4522 30.9914 15.39 30.8399L15 29.9399L16.18 30.0699C17.5101 30.2013 18.8499 30.2013 20.18 30.0699C20.55 30.6699 20.95 31.2699 21.39 31.8599C21.4821 31.9859 21.6024 32.0886 21.7413 32.1598C21.8802 32.231 22.0339 32.2687 22.19 32.2699H26.53C26.6951 32.2697 26.8575 32.2287 27.0029 32.1505C27.1482 32.0724 27.272 31.9594 27.3631 31.8218C27.4542 31.6841 27.5098 31.5261 27.525 31.3617C27.5401 31.1974 27.5144 31.0318 27.45 30.8799C27.28 30.4799 27.11 30.0499 26.98 29.6799C26.8 29.1499 26.66 28.6799 26.55 28.2299C27.6544 27.6336 28.668 26.8827 29.56 25.9999C30.5564 26.1203 31.5636 26.1203 32.56 25.9999C32.7329 25.9737 32.8959 25.9027 33.0327 25.7939C33.1696 25.6851 33.2755 25.5424 33.34 25.3799L35.6 19.5699C35.6636 19.4179 35.6886 19.2526 35.6729 19.0886C35.6572 18.9246 35.6013 18.767 35.51 18.6299ZM31.73 24.0699C30.945 24.1145 30.1574 24.0777 29.38 23.9599C28.4947 23.8103 27.64 23.5164 26.85 23.0899C26.616 22.9738 26.346 22.954 26.0975 23.0345C25.8491 23.115 25.642 23.2894 25.5205 23.5206C25.399 23.7518 25.3728 24.0214 25.4475 24.2716C25.5221 24.5219 25.6917 24.733 25.92 24.8599C26.3379 25.079 26.7687 25.2727 27.21 25.4399C26.6647 25.9054 26.0593 26.2956 25.41 26.5999L24.35 27.0799C24.35 27.0799 24.84 29.2699 25.17 30.2399H22.79C22.55 29.8999 21.34 27.8799 21.34 27.8799L20.67 27.9699C19.2626 28.1728 17.8366 28.2131 16.42 28.0899C15.76 28.0299 14.66 27.8899 13.8 27.7399L12.25 27.4699C12.25 27.4699 12.88 29.8999 13 30.2099H10.42C9.36611 28.9194 8.47289 27.5057 7.76 25.9999L7.58 25.6099C6.2807 23.1088 5.73201 20.2855 6 17.4799C6.54 12.2899 12.12 8.36985 18.19 8.93985C19.9558 9.13779 21.6742 9.63845 23.27 10.4199L23.89 10.7099L24.39 10.2399C25.1687 9.54403 26.0488 8.9708 27 8.53985C28.2586 7.99399 29.6334 7.77058 31 7.88985L27.62 13.1799L27.87 13.6799C28.7434 15.439 29.8574 17.068 31.18 18.5199C31.7943 19.1202 32.5217 19.5927 33.32 19.9099L31.73 24.0699Z" fill="#803CB2"/>
</svg>
