<svg width="35" height="30" viewBox="0 0 21 30" fill="none" xmlns="http://www.w3.org/2000/svg">
<path d="M18.2817 5.27473C18.1918 5.24476 18.1319 5.18482 18.042 5.15485C18.6114 4.64535 18.971 3.8961 18.971 3.05694V2.87712C18.971 1.28871 17.6823 0 16.0939 0H4.70529C3.11688 0 1.82817 1.28871 1.82817 2.87712V3.05694C1.82817 3.8961 2.18781 4.61538 2.75724 5.15485C1.13886 5.87413 0 7.46254 0 9.35065V25.4146C0 27.9321 2.06793 30 4.58541 30H16.2438C18.7612 30 20.8292 27.9321 20.8292 25.4146V9.35065C20.8292 7.64236 19.8402 6.05395 18.2817 5.27473ZM2.997 2.90709C2.997 1.94805 3.77622 1.1988 4.70529 1.1988H16.0939C17.0529 1.1988 17.8022 1.97802 17.8022 2.90709V3.05694C17.8022 4.01598 17.023 4.76523 16.0939 4.76523H4.70529C3.74625 4.76523 2.997 3.98601 2.997 3.05694V2.90709ZM19.6603 25.4146C19.6603 27.3027 18.1319 28.8312 16.2438 28.8312H4.58541C2.6973 28.8312 1.16883 27.3027 1.16883 25.4146V9.35065C1.16883 7.46254 2.6973 5.93407 4.58541 5.93407H4.70529H16.0939H16.2138C16.7532 5.93407 17.2627 6.05395 17.7423 6.29371C18.9111 6.89311 19.6304 8.06194 19.6304 9.35065V25.4146H19.6603Z" fill="#934DC6"/>
<rect x="4.16577" y="25.0605" width="11.988" height="1.4985" rx="0.749251" fill="#934DC6"/>
<rect x="4.16577" y="21.4785" width="11.988" height="1.4985" rx="0.749251" fill="#934DC6"/>
<rect x="4.16577" y="17.8965" width="11.988" height="1.4985" rx="0.749251" fill="#934DC6"/>
</svg>
