<svg width="20" height="20" viewBox="0 0 20 20" fill="none" xmlns="http://www.w3.org/2000/svg">
<path d="M13.8117 6.89531L12.2462 6.83789L11.9067 16.1068L13.4723 16.164L13.8117 6.89531Z" fill="white" fill-opacity="0.7"/>
<path d="M10.7834 6.8667H9.2168V16.1357H10.7834V6.8667Z" fill="white" fill-opacity="0.7"/>
<path d="M8.09319 16.1068L7.75378 6.83789L6.18823 6.89535L6.52768 16.1642L8.09319 16.1068Z" fill="white" fill-opacity="0.7"/>
<path d="M0.678955 3.00244V4.569H2.31134L3.60634 19.2852C3.64185 19.6896 3.98052 19.9998 4.38649 19.9998H15.5873C15.9933 19.9998 16.3322 19.6894 16.3674 19.2849L17.6625 4.569H19.3212V3.00244H0.678955ZM14.8698 18.4333H5.10376L3.88392 4.569H16.0899L14.8698 18.4333Z" fill="white" fill-opacity="0.7"/>
<path d="M12.5587 0H7.44121C6.72137 0 6.13574 0.585625 6.13574 1.30547V3.7859H7.7023V1.56656H12.2976V3.7859H13.8642V1.30547C13.8642 0.585625 13.2785 0 12.5587 0Z" fill="white" fill-opacity="0.7"/>
</svg>
