<svg width="32" height="10" viewBox="0 0 32 10" fill="none" xmlns="http://www.w3.org/2000/svg">
    <path d="M13.0616 0L11.4579 9.97996H14.0213L15.624 0H13.0616ZM20.7937 4.06528C19.8979 3.62291 19.3488 3.32435 19.3488 2.87191C19.3598 2.46054 19.8132 2.0391 20.8257 2.0391C21.6585 2.01818 22.2707 2.2139 22.735 2.40863L22.9677 2.51246L23.3162 0.424402C22.8098 0.228684 22.007 0.0130328 21.0154 0.0130328C18.484 0.0130328 16.7015 1.32917 16.6905 3.21154C16.6695 4.60062 17.9666 5.37145 18.9373 5.83385C19.9289 6.3082 20.2665 6.61574 20.2665 7.03718C20.2555 7.68425 19.4647 7.98281 18.7267 7.98281C17.7042 7.98281 17.1549 7.82903 16.3211 7.46848L15.9836 7.31471L15.6251 9.48469C16.2273 9.75237 17.3347 9.98795 18.4841 10C21.1743 10 22.9248 8.70379 22.9469 6.69766C22.9556 5.59717 22.2716 4.75429 20.7937 4.06528ZM29.8879 0.0308852H27.9046C27.2935 0.0308852 26.8291 0.20667 26.5645 0.833799L22.7568 9.97996H25.447L26.188 7.99978H29.1978L29.5822 9.98795H31.9549L29.8879 0.0308852ZM26.934 6.00142C26.986 6.00646 27.9666 2.76896 27.9666 2.76896L28.7475 6.00142C28.7475 6.00142 27.4404 6.00142 26.934 6.00142ZM9.31594 0L6.80447 6.78046L6.53088 5.44329C6.0665 3.90044 4.61061 2.22386 2.98584 1.39105L5.2856 9.96999H7.99783L12.0282 0.00109463H9.31594V0Z" fill="#2394BC"/>
    <path d="M5.686 1.2871C5.49028 0.52613 4.86611 0.0129054 4.0184 0.00195312H0.0409616L0 0.186609C3.10268 0.951517 5.70692 3.30517 6.55178 5.51907L5.686 1.2871Z" fill="#EFC75E"/>
</svg>
