<svg width="1440" height="211" viewBox="0 0 1440 211" fill="none" xmlns="http://www.w3.org/2000/svg">
<g opacity="0.5">
<g opacity="0.768392">
<path fill-rule="evenodd" clip-rule="evenodd" d="M-156 272.828L-44.6038 184.811L66.7924 272.828V325.088L-44.6038 237.071L-156 325.088V272.828Z" stroke="#2F094B"/>
<path fill-rule="evenodd" clip-rule="evenodd" d="M289.585 272.828L400.981 184.811L512.377 272.828V325.088L400.981 237.071L289.585 325.088V272.828Z" stroke="#2F094B"/>
<path fill-rule="evenodd" clip-rule="evenodd" d="M-156 167.621L-44.6038 79.6038L66.7924 167.621V219.88L-44.6038 131.864L-156 219.88V167.621Z" stroke="#2F094B"/>
<path fill-rule="evenodd" clip-rule="evenodd" d="M289.585 167.621L400.981 79.6038L512.377 167.621V219.88L400.981 131.864L289.585 219.88V167.621Z" stroke="#2F094B"/>
<path fill-rule="evenodd" clip-rule="evenodd" d="M66.7925 272.828L178.189 184.811L289.585 272.828V325.088L178.189 237.071L66.7925 325.088V272.828Z" fill="#2F094B"/>
<path fill-rule="evenodd" clip-rule="evenodd" d="M512.377 272.828L623.774 184.811L735.17 272.828V325.088L623.774 237.071L512.377 325.088V272.828Z" fill="#2F094B"/>
<path fill-rule="evenodd" clip-rule="evenodd" d="M66.7925 167.621L178.189 79.6038L289.585 167.621V219.88L178.189 131.864L66.7925 219.88V167.621Z" fill="#2F094B"/>
<path fill-rule="evenodd" clip-rule="evenodd" d="M512.377 167.621L623.774 79.6038L735.17 167.621V219.88L623.774 131.864L512.377 219.88V167.621Z" fill="#2F094B"/>
<path fill-rule="evenodd" clip-rule="evenodd" d="M-156 220.224L-44.6038 132.208L66.7924 220.224V272.484L-44.6038 184.467L-156 272.484V220.224Z" fill="#2F094B"/>
<path fill-rule="evenodd" clip-rule="evenodd" d="M289.585 220.224L400.981 132.208L512.377 220.224V272.484L400.981 184.467L289.585 272.484V220.224Z" fill="#2F094B"/>
<path fill-rule="evenodd" clip-rule="evenodd" d="M-156 115.017L-44.6038 27L66.7924 115.017V167.277L-44.6038 79.26L-156 167.277V115.017Z" fill="#2F094B"/>
<path fill-rule="evenodd" clip-rule="evenodd" d="M289.585 115.017L400.981 27L512.377 115.017V167.277L400.981 79.26L289.585 167.277V115.017Z" fill="#2F094B"/>
<path fill-rule="evenodd" clip-rule="evenodd" d="M66.7925 220.224L178.189 132.208L289.585 220.224V272.484L178.189 184.467L66.7925 272.484V220.224Z" stroke="#2F094B"/>
<path fill-rule="evenodd" clip-rule="evenodd" d="M512.377 220.224L623.774 132.208L735.17 220.224V272.484L623.774 184.467L512.377 272.484V220.224Z" stroke="#2F094B"/>
<path fill-rule="evenodd" clip-rule="evenodd" d="M66.7925 115.017L178.189 27L289.585 115.017V167.277L178.189 79.26L66.7925 167.277V115.017Z" stroke="#2F094B"/>
<path fill-rule="evenodd" clip-rule="evenodd" d="M512.377 115.017L623.774 27L735.17 115.017V167.277L623.774 79.26L512.377 167.277V115.017Z" stroke="#2F094B"/>
</g>
<g opacity="0.768392">
<path fill-rule="evenodd" clip-rule="evenodd" d="M736 246.828L847.396 158.811L958.792 246.828V299.088L847.396 211.071L736 299.088V246.828Z" stroke="#2F094B"/>
<path fill-rule="evenodd" clip-rule="evenodd" d="M1181.58 246.828L1292.98 158.811L1404.38 246.828V299.088L1292.98 211.071L1181.58 299.088V246.828Z" stroke="#2F094B"/>
<path fill-rule="evenodd" clip-rule="evenodd" d="M736 141.621L847.396 53.6038L958.792 141.621V193.88L847.396 105.864L736 193.88V141.621Z" stroke="#2F094B"/>
<path fill-rule="evenodd" clip-rule="evenodd" d="M1181.58 141.621L1292.98 53.6038L1404.38 141.621V193.88L1292.98 105.864L1181.58 193.88V141.621Z" stroke="#2F094B"/>
<path fill-rule="evenodd" clip-rule="evenodd" d="M958.792 246.828L1070.19 158.811L1181.58 246.828V299.088L1070.19 211.071L958.792 299.088V246.828Z" fill="#2F094B"/>
<path fill-rule="evenodd" clip-rule="evenodd" d="M1404.38 246.828L1515.77 158.811L1627.17 246.828V299.088L1515.77 211.071L1404.38 299.088V246.828Z" fill="#2F094B"/>
<path fill-rule="evenodd" clip-rule="evenodd" d="M958.792 141.621L1070.19 53.6038L1181.58 141.621V193.88L1070.19 105.864L958.792 193.88V141.621Z" fill="#2F094B"/>
<path fill-rule="evenodd" clip-rule="evenodd" d="M1404.38 141.621L1515.77 53.6038L1627.17 141.621V193.88L1515.77 105.864L1404.38 193.88V141.621Z" fill="#2F094B"/>
<path fill-rule="evenodd" clip-rule="evenodd" d="M736 194.224L847.396 106.208L958.792 194.224V246.484L847.396 158.467L736 246.484V194.224Z" fill="#2F094B"/>
<path fill-rule="evenodd" clip-rule="evenodd" d="M1181.58 194.224L1292.98 106.208L1404.38 194.224V246.484L1292.98 158.467L1181.58 246.484V194.224Z" fill="#2F094B"/>
<path fill-rule="evenodd" clip-rule="evenodd" d="M736 89.0168L847.396 1L958.792 89.0168V141.277L847.396 53.26L736 141.277V89.0168Z" fill="#2F094B"/>
<path fill-rule="evenodd" clip-rule="evenodd" d="M1181.58 89.0168L1292.98 1L1404.38 89.0168V141.277L1292.98 53.26L1181.58 141.277V89.0168Z" fill="#2F094B"/>
<path fill-rule="evenodd" clip-rule="evenodd" d="M958.792 194.224L1070.19 106.208L1181.58 194.224V246.484L1070.19 158.467L958.792 246.484V194.224Z" stroke="#2F094B"/>
<path fill-rule="evenodd" clip-rule="evenodd" d="M1404.38 194.224L1515.77 106.208L1627.17 194.224V246.484L1515.77 158.467L1404.38 246.484V194.224Z" stroke="#2F094B"/>
<path fill-rule="evenodd" clip-rule="evenodd" d="M958.792 89.0168L1070.19 1L1181.58 89.0168V141.277L1070.19 53.26L958.792 141.277V89.0168Z" stroke="#2F094B"/>
<path fill-rule="evenodd" clip-rule="evenodd" d="M958.792 299.432L1070.19 211.415L1181.58 299.432V351.692L1070.19 263.675L958.792 351.692V299.432Z" stroke="#2F094B"/>
<path fill-rule="evenodd" clip-rule="evenodd" d="M1404.38 89.0168L1515.77 1L1627.17 89.0168V141.277L1515.77 53.26L1404.38 141.277V89.0168Z" stroke="#2F094B"/>
<path fill-rule="evenodd" clip-rule="evenodd" d="M1404.38 299.432L1515.77 211.415L1627.17 299.432V351.692L1515.77 263.675L1404.38 351.692V299.432Z" stroke="#2F094B"/>
</g>
</g>
</svg>
