<svg width="37" height="36" viewBox="0 0 37 36" fill="none" xmlns="http://www.w3.org/2000/svg">
<path d="M18.0586 6C15.6852 6 13.3651 6.70379 11.3918 8.02236C9.41837 9.34094 7.8803 11.2151 6.97204 13.4078C6.06379 15.6005 5.82615 18.0133 6.28918 20.3411C6.7522 22.6689 7.89509 24.8071 9.57332 26.4853C11.2515 28.1635 13.3897 29.3064 15.7175 29.7694C18.0453 30.2324 20.4581 29.9948 22.6508 29.0866C24.8435 28.1783 26.7177 26.6402 28.0362 24.6668C29.3548 22.6935 30.0586 20.3734 30.0586 18C30.0586 14.8174 28.7943 11.7652 26.5439 9.51472C24.2934 7.26428 21.2412 6 18.0586 6ZM18.0586 28C16.0808 28 14.1474 27.4135 12.5029 26.3147C10.8584 25.2159 9.57668 23.6541 8.8198 21.8268C8.06293 19.9996 7.86489 17.9889 8.25075 16.0491C8.6366 14.1093 9.58901 12.3275 10.9875 10.9289C12.3861 9.53041 14.1679 8.578 16.1077 8.19215C18.0475 7.8063 20.0582 8.00433 21.8854 8.7612C23.7127 9.51808 25.2745 10.7998 26.3733 12.4443C27.4721 14.0888 28.0586 16.0222 28.0586 18C28.0586 19.3132 27.7999 20.6136 27.2974 21.8268C26.7948 23.0401 26.0583 24.1425 25.1297 25.0711C24.2011 25.9997 23.0987 26.7362 21.8854 27.2388C20.6722 27.7413 19.3718 28 18.0586 28Z" fill="white"/>
<path d="M16.3987 23.74L11.3987 18.74C11.2348 18.5487 11.1492 18.3026 11.1589 18.0509C11.1687 17.7993 11.273 17.5605 11.4511 17.3824C11.6292 17.2043 11.8679 17.1 12.1196 17.0903C12.3713 17.0806 12.6174 17.1662 12.8087 17.33L16.3987 20.92L23.1787 14.14C23.37 13.9762 23.616 13.8906 23.8677 13.9003C24.1194 13.91 24.3581 14.0143 24.5362 14.1924C24.7143 14.3705 24.8187 14.6093 24.8284 14.8609C24.8381 15.1126 24.7525 15.3587 24.5887 15.55L16.3987 23.74Z" fill="white"/>
</svg>
