<svg width="16" height="16" viewBox="0 0 16 16" fill="none" xmlns="http://www.w3.org/2000/svg">
<path d="M8 0C6.41775 0 4.87103 0.469192 3.55544 1.34824C2.23985 2.22729 1.21447 3.47672 0.608967 4.93853C0.00346629 6.40034 -0.15496 8.00887 0.153721 9.56072C0.462403 11.1126 1.22433 12.538 2.34315 13.6569C3.46197 14.7757 4.88743 15.5376 6.43928 15.8463C7.99113 16.155 9.59966 15.9965 11.0615 15.391C12.5233 14.7855 13.7727 13.7602 14.6518 12.4446C15.5308 11.129 16 9.58225 16 8C16 5.87827 15.1571 3.84344 13.6569 2.34315C12.1566 0.842855 10.1217 0 8 0ZM8 14.6667C6.68146 14.6667 5.39253 14.2757 4.2962 13.5431C3.19987 12.8106 2.34539 11.7694 1.84081 10.5512C1.33622 9.33305 1.2042 7.9926 1.46143 6.6994C1.71867 5.40619 2.35361 4.2183 3.28596 3.28595C4.21831 2.3536 5.40619 1.71867 6.6994 1.46143C7.99261 1.2042 9.33305 1.33622 10.5512 1.8408C11.7694 2.34539 12.8106 3.19987 13.5431 4.2962C14.2757 5.39253 14.6667 6.68146 14.6667 8C14.6667 8.87548 14.4942 9.74238 14.1592 10.5512C13.8242 11.3601 13.3331 12.095 12.714 12.714C12.095 13.3331 11.3601 13.8242 10.5512 14.1592C9.74239 14.4942 8.87548 14.6667 8 14.6667Z" fill="#BE2EA3"/>
<path d="M6.8933 11.8274L3.55996 8.49406C3.45075 8.36653 3.39367 8.20248 3.40016 8.03469C3.40664 7.86691 3.47619 7.70775 3.59492 7.58902C3.71365 7.47029 3.87281 7.40073 4.04059 7.39425C4.20838 7.38777 4.37243 7.44484 4.49996 7.55406L6.8933 9.94739L11.4133 5.42739C11.5408 5.31818 11.7049 5.26111 11.8727 5.26759C12.0404 5.27407 12.1996 5.34362 12.3183 5.46235C12.4371 5.58108 12.5066 5.74024 12.5131 5.90803C12.5196 6.07581 12.4625 6.23986 12.3533 6.36739L6.8933 11.8274Z" fill="#BE2EA3"/>
</svg>
