<svg width="151" height="151" viewBox="0 0 151 151" fill="none" xmlns="http://www.w3.org/2000/svg">
    <rect x="25" y="23.6216" width="5.9549" height="6.20654" rx="2.97745" fill="#FFDB93"/>
    <rect x="43.6089" y="35.2588" width="5.9549" height="6.20654" rx="2.97745" fill="#FFDB93"/>
    <rect x="103.158" y="74.0498" width="10.4211" height="10.8611" rx="5.21054" fill="#FFDB93"/>
    <rect x="118.045" y="43.0166" width="5.9549" height="6.20703" rx="2.97745" fill="#FFDB93"/>
    <rect x="118.045" y="27.501" width="2.97748" height="3.10083" rx="1.48874" fill="#FFDB93"/>
    <rect x="51.0527" y="19.7422" width="2.97748" height="3.10352" rx="1.48874" fill="#FFDB93"/>
    <rect x="80.8271" y="4.22656" width="2.97742" height="3.10303" rx="1.48871" fill="#FFDB93"/>
    <rect x="36.1655" y="74.0498" width="2.97748" height="3.10327" rx="1.48874" fill="#FFDB93"/>
    <g filter="url(#filter0_d)">
        <rect x="40.6318" y="20.5176" width="70" height="70" rx="35" fill="white"/>
    </g>
    <path d="M89.7588 69H59.9471C57.4765 69 55.5 67.0235 55.5 64.5529V45.4471C55.5 42.9765 57.4765 41 59.9471 41H89.6765C92.1471 41 94.1235 42.9765 94.1235 45.4471V64.4706C94.2059 67.0235 92.2294 69 89.7588 69ZM59.9471 42.6471C58.3824 42.6471 57.1471 43.8824 57.1471 45.4471V64.4706C57.1471 66.1176 58.3824 67.3529 59.9471 67.3529H89.6765C91.2412 67.3529 92.4765 66.1176 92.4765 64.5529V45.4471C92.4765 43.8824 91.2412 42.6471 89.6765 42.6471H59.9471Z" fill="#B20F93"/>
    <path d="M93.3826 47.5879H56.3237V49.2349H93.3826V47.5879Z" fill="#B20F93"/>
    <path d="M85.1017 57.0435C84.4688 57.0435 83.8826 57.2459 83.4031 57.5885C82.9236 57.246 82.3374 57.0435 81.7044 57.0435C80.0891 57.0435 78.7749 58.3576 78.7749 59.9729C78.7749 61.5882 80.0891 62.9024 81.7044 62.9024C82.3374 62.9024 82.9235 62.7 83.4031 62.3573C83.8826 62.6999 84.4688 62.9024 85.1017 62.9024C86.7171 62.9024 88.0312 61.5882 88.0312 59.9729C88.0312 58.3576 86.7171 57.0435 85.1017 57.0435ZM82.5698 61.4435C82.3158 61.5935 82.0201 61.68 81.7044 61.68C80.7632 61.68 79.9974 60.9142 79.9974 59.9729C79.9974 59.0317 80.7632 58.2659 81.7044 58.2659C82.0201 58.2659 82.3158 58.3524 82.5698 58.5024C82.3176 58.9349 82.1723 59.4371 82.1723 59.9729C82.1723 60.5087 82.3176 61.011 82.5698 61.4435ZM85.1017 61.68C84.1605 61.68 83.3947 60.9142 83.3947 59.9729C83.3947 59.0317 84.1605 58.2659 85.1017 58.2659C86.043 58.2659 86.8088 59.0317 86.8088 59.9729C86.8088 60.9142 86.043 61.68 85.1017 61.68Z" fill="#B20F93"/>
    <defs>
        <filter id="filter0_d" x="0.631836" y="0.517578" width="150" height="150" filterUnits="userSpaceOnUse" color-interpolation-filters="sRGB">
            <feFlood flood-opacity="0" result="BackgroundImageFix"/>
            <feColorMatrix in="SourceAlpha" type="matrix" values="0 0 0 0 0 0 0 0 0 0 0 0 0 0 0 0 0 0 127 0"/>
            <feOffset dy="20"/>
            <feGaussianBlur stdDeviation="20"/>
            <feColorMatrix type="matrix" values="0 0 0 0 0.807681 0 0 0 0 0.855688 0 0 0 0 0.892459 0 0 0 1 0"/>
            <feBlend mode="normal" in2="BackgroundImageFix" result="effect1_dropShadow"/>
            <feBlend mode="normal" in="SourceGraphic" in2="effect1_dropShadow" result="shape"/>
        </filter>
    </defs>
</svg>
