<svg width="21" height="13" viewBox="0 0 21 13" fill="none" xmlns="http://www.w3.org/2000/svg">
    <path fill-rule="evenodd" clip-rule="evenodd" d="M10.1359 12.0037C16.2186 12.0037 20.3976 6.00183 20.3976 6.00183C20.3976 6.00183 16.2928 0 10.1359 0C3.97901 0 0 6.25316 0 6.25316C0 6.25316 4.0532 12.0037 10.1359 12.0037ZM10.1988 10.2031C12.3971 10.2031 14.1792 8.32213 14.1792 6.00183C14.1792 3.68153 12.3971 1.80055 10.1988 1.80055C8.00054 1.80055 6.21848 3.68153 6.21848 6.00183C6.21848 8.32213 8.00054 10.2031 10.1988 10.2031ZM10.1988 7.80238C11.1409 7.80238 11.9047 6.99625 11.9047 6.00183C11.9047 5.00742 11.1409 4.20128 10.1988 4.20128C9.2567 4.20128 8.49296 5.00742 8.49296 6.00183C8.49296 6.99625 9.2567 7.80238 10.1988 7.80238Z" fill="#BDBDBD"/>
</svg>