<svg width="151" height="150" viewBox="0 0 151 150" fill="none" xmlns="http://www.w3.org/2000/svg">
    <rect x="43.4434" y="44.7412" width="5.9549" height="6.20654" rx="2.97745" fill="#FFDB93"/>
    <rect x="102.992" y="73.5322" width="10.4211" height="10.8611" rx="5.21054" fill="#FFDB93"/>
    <rect x="117.88" y="42.499" width="5.9549" height="6.20703" rx="2.97745" fill="#FFDB93"/>
    <rect x="36" y="83.5322" width="2.97748" height="3.10327" rx="1.48874" fill="#FFDB93"/>
    <g filter="url(#filter0_d)">
        <rect x="40.4658" y="20" width="70" height="70" rx="35" fill="white"/>
    </g>
    <g clip-path="url(#clip0)">
        <path d="M94.2002 50.5021L71.536 41.0532C71.3249 40.9651 71.084 40.9885 70.8938 41.1153C70.7037 41.242 70.5894 41.4556 70.5894 41.6841V60.582C70.5894 61.0605 71.0925 61.398 71.536 61.2129L94.2002 51.7639C94.4549 51.6577 94.6207 51.4089 94.6207 51.133C94.6207 50.8571 94.4549 50.6082 94.2002 50.5021ZM71.9565 59.5564V42.7097L92.1607 51.133L71.9565 59.5564Z" fill="#B20F93"/>
        <path d="M73.8509 46.0344L76.2962 47.0539C76.3822 47.0897 76.4713 47.1066 76.559 47.1066C76.8266 47.1066 77.0808 46.9484 77.1902 46.6859C77.3355 46.3374 77.1707 45.9372 76.8222 45.7919L74.3769 44.7725C74.0286 44.6274 73.6283 44.7919 73.4829 45.1404C73.3377 45.4889 73.5025 45.8891 73.8509 46.0344Z" fill="#B20F93"/>
        <path d="M79.3358 48.3202L87.5952 51.7635C87.6812 51.7994 87.7703 51.8163 87.858 51.8163C88.1256 51.8163 88.3798 51.6581 88.4892 51.3956C88.6345 51.0471 88.4697 50.6469 88.1212 50.5016L79.8618 47.0582C79.5135 46.9129 79.1132 47.0776 78.9679 47.4262C78.8225 47.7747 78.9873 48.1748 79.3358 48.3202Z" fill="#B20F93"/>
        <path d="M72.9912 74.6337H69.8424V41.6846C69.8424 41.3071 69.5363 41.001 69.1588 41.001C68.7813 41.001 68.4752 41.3071 68.4752 41.6846V74.6337H65.062C64.6845 74.6337 64.3784 74.9398 64.3784 75.3173C64.3784 75.6948 64.6845 76.0009 65.062 76.0009H69.1588H72.9912C73.3687 76.0009 73.6748 75.6948 73.6748 75.3173C73.6748 74.9398 73.3688 74.6337 72.9912 74.6337Z" fill="#B20F93"/>
        <path d="M76.8237 74.6338H76.0308C75.6533 74.6338 75.3472 74.9399 75.3472 75.3174C75.3472 75.6949 75.6533 76.001 76.0308 76.001H76.8237C77.2011 76.001 77.5073 75.6949 77.5073 75.3174C77.5073 74.9399 77.2011 74.6338 76.8237 74.6338Z" fill="#B20F93"/>
    </g>
    <defs>
        <filter id="filter0_d" x="0.46582" y="0" width="150" height="150" filterUnits="userSpaceOnUse" color-interpolation-filters="sRGB">
            <feFlood flood-opacity="0" result="BackgroundImageFix"/>
            <feColorMatrix in="SourceAlpha" type="matrix" values="0 0 0 0 0 0 0 0 0 0 0 0 0 0 0 0 0 0 127 0"/>
            <feOffset dy="20"/>
            <feGaussianBlur stdDeviation="20"/>
            <feColorMatrix type="matrix" values="0 0 0 0 0.807681 0 0 0 0 0.855688 0 0 0 0 0.892459 0 0 0 1 0"/>
            <feBlend mode="normal" in2="BackgroundImageFix" result="effect1_dropShadow"/>
            <feBlend mode="normal" in="SourceGraphic" in2="effect1_dropShadow" result="shape"/>
        </filter>
        <clipPath id="clip0">
            <rect width="35" height="35" fill="white" transform="translate(62 41)"/>
        </clipPath>
    </defs>
</svg>
