<svg width="13" height="16" viewBox="0 0 13 16" fill="none" xmlns="http://www.w3.org/2000/svg">
<path d="M10.816 6.51379H1.48267C0.663115 6.51379 -0.00177422 7.18046 3.55677e-06 8.00002V14.5156C3.55677e-06 15.3351 0.66667 16 1.48623 16L10.7271 15.9947C11.5467 15.9947 12.2116 15.3298 12.2098 14.5102V7.99291C12.2098 7.20535 11.5929 6.56179 10.816 6.51379Z" fill="#8A95A7"/>
<path d="M2.79781 5.85013C3.11639 5.85013 3.3747 5.59164 3.37452 5.27307L3.37363 4.32498C3.37292 2.81973 4.5971 1.59431 6.10234 1.5936C7.60759 1.59289 8.83301 2.81707 8.83372 4.32231L8.83461 5.27413C8.83496 5.59236 9.09292 5.85031 9.41132 5.85031H9.8515C10.1703 5.85031 10.4284 5.59182 10.4282 5.27324L10.4273 4.32142C10.4257 1.93725 8.48527 -0.00124385 6.10127 5.98833e-07C3.71727 0.00124504 1.77879 1.94151 1.78003 4.32569L1.78092 5.27413C1.78127 5.59236 2.03923 5.85031 2.35763 5.85031H2.79781V5.85013Z" fill="#8A95A7"/>
</svg>
