<svg width="64" height="40" viewBox="0 0 64 40" fill="none" xmlns="http://www.w3.org/2000/svg">
<g clip-path="url(#clip0)">
<path d="M22.1068 34.9416C22.1165 34.7859 22.1255 34.5541 22.1255 34.3507V31.5848H22.5374V33.0221H22.547C22.694 32.7666 22.9589 32.6012 23.3282 32.6012C23.8967 32.6012 24.2989 33.0743 24.2943 33.7688C24.2943 34.587 23.7781 34.9938 23.267 34.9938C22.9357 34.9938 22.6701 34.8663 22.5 34.5638H22.4858L22.4671 34.9423H22.1068V34.9416ZM22.538 34.0244C22.538 34.0765 22.5477 34.1287 22.5567 34.1756C22.6373 34.464 22.879 34.6629 23.1819 34.6629C23.6176 34.6629 23.878 34.3082 23.878 33.7836C23.878 33.3247 23.6414 32.9327 23.1961 32.9327C22.9118 32.9327 22.6469 33.1264 22.5619 33.4431C22.5522 33.4901 22.538 33.5474 22.538 33.6131V34.0244Z" fill="#5C2684"/>
<path d="M25.2837 32.6536L25.7858 34.006C25.838 34.1573 25.8947 34.3369 25.9328 34.474H25.9424C25.985 34.3369 26.0327 34.1618 26.0894 33.9964L26.5438 32.6536H26.984L26.3588 34.2848C26.0604 35.0694 25.8567 35.4717 25.5731 35.7176C25.3694 35.8972 25.1658 35.968 25.062 35.9873L24.9576 35.6372C25.062 35.6043 25.1993 35.538 25.3224 35.4337C25.4358 35.3436 25.5783 35.1833 25.673 34.9703C25.6917 34.9278 25.7059 34.8943 25.7059 34.8712C25.7059 34.8473 25.6962 34.8145 25.6775 34.7624L24.83 32.6536H25.2837Z" fill="#5C2684"/>
<path d="M28.3806 31.755H30.0996V32.1H28.7925V33.1595H29.9997V33.5H28.7925V34.9425H28.3806V31.755Z" fill="#5C2684"/>
<path d="M32.9167 34.8376C32.7653 34.9135 32.4623 34.9888 32.0737 34.9888C31.1739 34.9888 30.4972 34.4211 30.4972 33.3764C30.4972 32.3786 31.1739 31.7027 32.1639 31.7027C32.5616 31.7027 32.8123 31.7877 32.9212 31.8444L32.822 32.1804C32.666 32.1044 32.443 32.0478 32.1781 32.0478C31.4298 32.0478 30.9329 32.5254 30.9329 33.3622C30.9329 34.1424 31.3828 34.6438 32.1594 34.6438C32.4101 34.6438 32.666 34.5917 32.8317 34.5112L32.9167 34.8376Z" fill="#5C2684"/>
<path d="M36.122 33.5423C36.0981 33.0975 36.0698 32.5632 36.0749 32.1661H36.0607C35.9518 32.5394 35.819 32.9366 35.6585 33.3769L35.0952 34.923H34.7826L34.2664 33.4052C34.1149 32.9559 33.9873 32.5446 33.897 32.1661H33.8874C33.8777 32.5632 33.8545 33.0975 33.8261 33.5751L33.7411 34.9417H33.3479L33.5703 31.7547H34.0956L34.6402 33.2964C34.773 33.6891 34.8819 34.0386 34.9624 34.3701H34.9766C35.0572 34.0482 35.1706 33.6987 35.3131 33.2964L35.8816 31.7547H36.4068L36.606 34.9417H36.2038L36.122 33.5423Z" fill="#5C2684"/>
<path d="M37.2389 31.7973C37.4187 31.7594 37.703 31.731 37.9917 31.731C38.4036 31.731 38.6685 31.8019 38.8676 31.9628C39.0333 32.0857 39.1325 32.275 39.1325 32.5254C39.1325 32.8324 38.9289 33.1021 38.5931 33.2251V33.2347C38.896 33.3107 39.2511 33.5611 39.2511 34.0336C39.2511 34.3078 39.1422 34.5157 38.9811 34.6721C38.7587 34.8755 38.3984 34.9701 37.8776 34.9701C37.5934 34.9701 37.3756 34.9515 37.2383 34.9322V31.7973H37.2389ZM37.6514 33.1021H38.0252C38.4609 33.1021 38.7168 32.8749 38.7168 32.5679C38.7168 32.1945 38.4326 32.0478 38.0162 32.0478C37.8267 32.0478 37.7178 32.0619 37.6514 32.0761V33.1021ZM37.6514 34.6296C37.732 34.6438 37.8506 34.6483 37.9969 34.6483C38.4229 34.6483 38.8161 34.4925 38.8161 34.0291C38.8161 33.5939 38.4423 33.4143 37.9924 33.4143H37.6514V34.6296Z" fill="#5C2684"/>
<path fill-rule="evenodd" clip-rule="evenodd" d="M3.60293 10.1344C5.36185 10.1344 6.78691 11.5582 6.78691 13.3143C6.78691 15.0703 5.36121 16.4941 3.60293 16.4941C1.84465 16.4941 0.418945 15.0703 0.418945 13.3143C0.418945 11.5582 1.844 10.1344 3.60293 10.1344Z" fill="#AC3F95"/>
<path fill-rule="evenodd" clip-rule="evenodd" d="M2.53105 14.5188H3.05506V13.9801H3.81238L4.22359 14.5188H4.67476V13.9801H4.91969V13.4503H4.67476V13.1787H4.91969V12.6489H4.67476V12.1101H4.15076V12.6489H3.43082L3.02025 12.1101H2.53105V12.6489H2.28613V13.1787H2.53105V13.4503H2.28613V13.9801H2.53105V14.5188ZM3.05506 13.4503V13.1787H3.20072L3.40762 13.4503H3.05506ZM4.15076 13.1787V13.4503H4.04183L3.83494 13.1787H4.15076Z" fill="white"/>
<path fill-rule="evenodd" clip-rule="evenodd" d="M3.60292 11.1585C4.79466 11.1585 5.76146 12.1234 5.76146 13.3143C5.76146 14.5045 4.7953 15.47 3.60292 15.47C2.41119 15.47 1.44439 14.5051 1.44439 13.3143C1.44439 12.1241 2.41054 11.1585 3.60292 11.1585ZM3.60292 10.8547C4.96353 10.8547 6.06632 11.9561 6.06632 13.3149C6.06632 14.6738 4.96353 15.7751 3.60292 15.7751C2.24232 15.7751 1.13953 14.6738 1.13953 13.3149C1.13953 11.9561 2.24232 10.8547 3.60292 10.8547Z" fill="white"/>
<path fill-rule="evenodd" clip-rule="evenodd" d="M3.68739 10.4543H3.51916L3.50305 10.4562L3.51143 10.6892C3.56428 10.688 3.61907 10.6854 3.67256 10.688C3.72477 10.6899 3.77762 10.6957 3.82596 10.697L3.84401 10.4646L3.68739 10.4543Z" fill="white"/>
<path fill-rule="evenodd" clip-rule="evenodd" d="M5.44747 15.1888C5.43974 15.1933 5.432 15.2016 5.42556 15.2081L5.28247 15.3387L5.39462 15.4713C5.40235 15.481 5.42298 15.5074 5.43329 15.5138L5.50354 15.4546C5.52095 15.4385 5.60345 15.3638 5.61118 15.3529C5.60603 15.3419 5.58024 15.3188 5.57058 15.3098C5.54673 15.2853 5.46165 15.1965 5.44747 15.1888Z" fill="white"/>
<path fill-rule="evenodd" clip-rule="evenodd" d="M2.04882 15.7167C2.06043 15.7045 2.09974 15.6388 2.11263 15.6195C2.12681 15.597 2.16806 15.5403 2.17451 15.521L2.03658 15.4251C2.0282 15.4187 1.99984 15.3968 1.99146 15.3936C1.98566 15.4013 1.85546 15.5674 1.85095 15.5796C1.86384 15.586 2.0166 15.7045 2.04882 15.7167Z" fill="white"/>
<path fill-rule="evenodd" clip-rule="evenodd" d="M4.91846 15.5899C4.92232 15.604 4.96551 15.6716 4.97711 15.6916L5.03447 15.7913C5.04865 15.7868 5.07701 15.7682 5.09055 15.7598C5.10795 15.7495 5.12342 15.7392 5.14147 15.7276C5.15951 15.7167 5.17434 15.7064 5.19174 15.6948C5.20785 15.6838 5.2259 15.6697 5.24137 15.662C5.23299 15.6452 5.18981 15.5892 5.17369 15.5654L5.10666 15.4721L4.91846 15.5899Z" fill="white"/>
<path fill-rule="evenodd" clip-rule="evenodd" d="M4.09022 15.8965C4.08957 15.9159 4.12567 16.0884 4.13211 16.1251C4.16498 16.1218 4.34481 16.0826 4.36737 16.0703C4.36737 16.0562 4.31 15.8553 4.3042 15.8476C4.27069 15.8528 4.23201 15.8656 4.1985 15.8734C4.16369 15.8817 4.1276 15.8888 4.09022 15.8965Z" fill="white"/>
<path fill-rule="evenodd" clip-rule="evenodd" d="M0.817139 13.9856C0.82165 14.0042 0.871279 14.1986 0.886103 14.2192L1.1046 14.1458C1.10267 14.1285 1.09364 14.1079 1.08849 14.0911L1.04401 13.9296L0.817139 13.9856Z" fill="white"/>
<path fill-rule="evenodd" clip-rule="evenodd" d="M0.786987 12.7876C0.792144 12.7915 1.00419 12.8301 1.01708 12.8295C1.03126 12.7445 1.0564 12.6705 1.06671 12.6126L0.841128 12.552C0.83146 12.5907 0.821792 12.6274 0.812124 12.6673C0.801812 12.7078 0.795366 12.7477 0.786987 12.7876Z" fill="white"/>
<path fill-rule="evenodd" clip-rule="evenodd" d="M1.12085 11.8877L1.22075 11.9444C1.24331 11.9573 1.30583 11.9972 1.32452 12.0017C1.3387 11.9656 1.42056 11.851 1.44183 11.8156C1.43345 11.806 1.41153 11.7918 1.39542 11.7815L1.2504 11.6824C1.23622 11.6959 1.12987 11.862 1.12085 11.8877Z" fill="white"/>
<path fill-rule="evenodd" clip-rule="evenodd" d="M2.55933 10.6497L2.6444 10.8667C2.71272 10.8461 2.7688 10.8177 2.85581 10.7952L2.79007 10.5725C2.75978 10.5731 2.5922 10.6349 2.55933 10.6497Z" fill="white"/>
<path fill-rule="evenodd" clip-rule="evenodd" d="M6.03845 12.3197L6.1158 12.5289L6.22408 12.4935C6.24406 12.4871 6.3214 12.4645 6.33494 12.4555C6.32978 12.424 6.30851 12.3712 6.29691 12.3397C6.28917 12.3191 6.26275 12.2412 6.25244 12.2289L6.03845 12.3197Z" fill="white"/>
<path fill-rule="evenodd" clip-rule="evenodd" d="M1.39673 11.4892C1.41155 11.5046 1.57075 11.6353 1.57591 11.6372L1.60298 11.6076C1.62683 11.5774 1.69321 11.5033 1.72544 11.4763C1.72093 11.4621 1.69708 11.4435 1.68677 11.4332C1.67968 11.4261 1.67388 11.4203 1.66679 11.4132C1.65776 11.4042 1.65325 11.4016 1.64358 11.3933C1.6236 11.3759 1.5772 11.3212 1.55915 11.3115C1.54046 11.3238 1.43991 11.4403 1.41606 11.4667C1.41026 11.4724 1.40188 11.4821 1.39673 11.4892Z" fill="white"/>
<path fill-rule="evenodd" clip-rule="evenodd" d="M1.78542 15.2929C1.79638 15.28 1.81829 15.2613 1.8228 15.2497C1.817 15.242 1.81829 15.2452 1.81249 15.2401C1.80862 15.2362 1.80669 15.233 1.80347 15.2291C1.79767 15.2227 1.78864 15.2169 1.7822 15.2105C1.76866 15.1969 1.75706 15.1854 1.74353 15.1718L1.68487 15.1107C1.67972 15.1062 1.67907 15.1062 1.67456 15.101C1.66811 15.094 1.6752 15.0985 1.66554 15.0927L1.49731 15.2497C1.50698 15.2678 1.61591 15.3746 1.64491 15.4023C1.64942 15.4062 1.6636 15.4184 1.66876 15.4216L1.78542 15.2929Z" fill="white"/>
<path fill-rule="evenodd" clip-rule="evenodd" d="M2.52082 15.8386C2.52919 15.8187 2.56207 15.7434 2.56529 15.7285C2.54918 15.724 2.48085 15.6919 2.46281 15.6828C2.44605 15.6745 2.42865 15.6668 2.41318 15.6584C2.40093 15.6519 2.37773 15.6378 2.36291 15.6346C2.3571 15.6526 2.34486 15.6693 2.33583 15.688C2.32037 15.7182 2.26042 15.8238 2.2572 15.8418C2.2746 15.8476 2.29265 15.8599 2.3107 15.8689C2.34679 15.8869 2.44734 15.9365 2.47505 15.9442L2.52082 15.8386Z" fill="white"/>
<path fill-rule="evenodd" clip-rule="evenodd" d="M5.77701 15.1759C5.79828 15.1546 5.91623 15.0092 5.92654 14.9866C5.91688 14.9763 5.8434 14.9261 5.8318 14.9178C5.80279 14.8965 5.76799 14.8746 5.73963 14.8527C5.72932 14.8592 5.72609 14.8663 5.719 14.8753L5.59912 15.0285L5.77701 15.1759Z" fill="white"/>
<path fill-rule="evenodd" clip-rule="evenodd" d="M4.87964 11.0184C4.91702 11.0319 5.03884 11.1169 5.06913 11.1323C5.07107 11.1304 5.07107 11.131 5.07364 11.1278L5.16581 10.9881C5.17419 10.9746 5.19288 10.9514 5.19804 10.9366C5.17677 10.927 5.04786 10.8362 4.99179 10.8124C4.98792 10.8169 4.88415 11.0049 4.87964 11.0184Z" fill="white"/>
<path fill-rule="evenodd" clip-rule="evenodd" d="M6.46665 13.394V13.235L6.46342 13.1687L6.2301 13.1797C6.2301 13.2157 6.23333 13.253 6.23333 13.2904C6.23333 13.3258 6.23075 13.3708 6.23204 13.4043L6.46536 13.4095L6.46665 13.394Z" fill="white"/>
<path fill-rule="evenodd" clip-rule="evenodd" d="M0.970581 14.4446C0.987983 14.4845 1.05501 14.6339 1.07628 14.6622C1.08789 14.659 1.11367 14.6429 1.1272 14.6358C1.1446 14.6268 1.16201 14.6171 1.17941 14.6075C1.21421 14.5888 1.24837 14.5701 1.28124 14.5521C1.27544 14.5347 1.26384 14.518 1.25611 14.5026L1.20777 14.4021C1.20068 14.3867 1.19294 14.3648 1.18392 14.3513L0.970581 14.4446Z" fill="white"/>
<path fill-rule="evenodd" clip-rule="evenodd" d="M1.73584 11.1465C1.73842 11.151 1.73713 11.1484 1.73971 11.1523L1.75389 11.1703C1.76033 11.1786 1.76613 11.1832 1.77322 11.1909C1.79514 11.2147 1.87119 11.31 1.88859 11.3222L2.04006 11.2012C2.04779 11.1954 2.05617 11.1909 2.06197 11.1838L1.92533 10.9971C1.91438 11.001 1.74615 11.1304 1.73584 11.1465Z" fill="white"/>
<path fill-rule="evenodd" clip-rule="evenodd" d="M1.20007 14.8697C1.20394 14.8781 1.20136 14.8761 1.20781 14.8858C1.21039 14.889 1.21296 14.8935 1.21619 14.8974C1.22263 14.907 1.22714 14.9141 1.23359 14.9231L1.338 15.0673C1.35218 15.0615 1.5088 14.9353 1.52234 14.9238C1.51783 14.9147 1.51138 14.9089 1.50558 14.8999L1.39343 14.7429C1.37796 14.75 1.21039 14.862 1.20007 14.8697Z" fill="white"/>
<path fill-rule="evenodd" clip-rule="evenodd" d="M6.27318 14.3517C6.28801 14.3092 6.34666 14.156 6.34988 14.1212L6.12687 14.0581C6.11721 14.0781 6.08756 14.1785 6.07273 14.2184C6.06822 14.2306 6.05662 14.257 6.05469 14.2693L6.27318 14.3517Z" fill="white"/>
<path fill-rule="evenodd" clip-rule="evenodd" d="M2.9332 16.0955C2.939 16.0865 2.98541 15.8844 2.98541 15.8702C2.97445 15.8644 2.85779 15.8355 2.82428 15.8245C2.80752 15.8194 2.78754 15.811 2.77207 15.8084L2.70117 16.0305C2.75338 16.0415 2.87648 16.0904 2.9332 16.0955Z" fill="white"/>
<path fill-rule="evenodd" clip-rule="evenodd" d="M6.18103 13.8452L6.4092 13.889C6.41693 13.8433 6.44916 13.6849 6.44593 13.6489L6.21455 13.6231C6.21326 13.6849 6.18103 13.8143 6.18103 13.8452Z" fill="white"/>
<path fill-rule="evenodd" clip-rule="evenodd" d="M0.770839 13.7495L1.00094 13.7153C0.999002 13.6812 0.990623 13.6387 0.987401 13.6046C0.983533 13.566 0.979666 13.53 0.977733 13.4913L0.771483 13.5074C0.736034 13.5094 0.739257 13.4881 0.756014 13.6355C0.760526 13.6741 0.766327 13.7108 0.770839 13.7495Z" fill="white"/>
<path fill-rule="evenodd" clip-rule="evenodd" d="M6.17151 12.7413C6.17538 12.7773 6.19793 12.8732 6.20567 12.9337C6.20889 12.9582 6.20696 12.9588 6.21469 12.9601L6.44028 12.9292C6.43963 12.8964 6.42739 12.8385 6.42159 12.8069C6.4145 12.767 6.40547 12.7284 6.39838 12.6898L6.17151 12.7413Z" fill="white"/>
<path fill-rule="evenodd" clip-rule="evenodd" d="M4.59994 15.9958C4.62572 15.9913 4.68695 15.963 4.71338 15.952C4.75011 15.9366 4.78685 15.9205 4.82359 15.9031L4.72304 15.6933L4.62121 15.7377C4.59349 15.7493 4.54257 15.7724 4.5155 15.7782L4.59994 15.9958Z" fill="white"/>
<path fill-rule="evenodd" clip-rule="evenodd" d="M4.55047 10.6157L4.47571 10.8339L4.68325 10.9163L4.77735 10.7026L4.66456 10.6562C4.64651 10.6492 4.56272 10.6144 4.55047 10.6157Z" fill="white"/>
<path fill-rule="evenodd" clip-rule="evenodd" d="M6.0593 14.7849C6.08766 14.745 6.12247 14.6723 6.14889 14.6259C6.15598 14.613 6.17145 14.5841 6.17532 14.5712L5.96649 14.4714C5.95424 14.485 5.92588 14.5493 5.91364 14.5712L5.8595 14.6665L6.0593 14.7849Z" fill="white"/>
<path fill-rule="evenodd" clip-rule="evenodd" d="M5.24915 11.2634C5.25172 11.2666 5.24979 11.2653 5.25366 11.2685C5.28653 11.2988 5.33551 11.3342 5.37354 11.3715L5.41608 11.4095C5.42704 11.405 5.52178 11.2982 5.53596 11.2833C5.55014 11.2685 5.56174 11.255 5.57528 11.2409C5.56819 11.2299 5.55078 11.2177 5.54305 11.2113C5.53789 11.2067 5.53725 11.2048 5.53209 11.1997L5.39352 11.0825C5.38579 11.0877 5.36516 11.1166 5.35807 11.1256C5.34582 11.1417 5.33422 11.1552 5.32133 11.172L5.24915 11.2634Z" fill="white"/>
<path fill-rule="evenodd" clip-rule="evenodd" d="M2.12695 10.8632C2.13082 10.8755 2.2333 11.039 2.2449 11.0615L2.34416 11.0068C2.36285 10.9958 2.43117 10.9649 2.44213 10.9546L2.33771 10.7474C2.30162 10.7615 2.14758 10.8465 2.12695 10.8632Z" fill="white"/>
<path fill-rule="evenodd" clip-rule="evenodd" d="M0.915283 12.3244L1.13507 12.4048C1.14216 12.3752 1.16343 12.3282 1.17567 12.2999L1.21886 12.1995L1.00938 12.1004C0.995205 12.119 0.921729 12.2967 0.915283 12.3244Z" fill="white"/>
<path fill-rule="evenodd" clip-rule="evenodd" d="M5.57129 11.5692L5.67699 11.6979C5.68473 11.7082 5.70342 11.7352 5.71244 11.7423L5.89549 11.6007C5.8884 11.5872 5.86971 11.564 5.86004 11.5518C5.8465 11.5344 5.83684 11.5235 5.82266 11.5061C5.81363 11.4951 5.75047 11.4224 5.74725 11.4134C5.72856 11.4179 5.67635 11.4745 5.65701 11.4893L5.57129 11.5692Z" fill="white"/>
<path fill-rule="evenodd" clip-rule="evenodd" d="M3.40885 16.1687C3.41014 16.1661 3.4095 16.17 3.41143 16.1623L3.4153 16.1114C3.41916 16.0618 3.4211 15.9724 3.4269 15.935C3.34955 15.935 3.27157 15.9164 3.20518 15.9119C3.20325 15.9151 3.20454 15.9112 3.2026 15.9183L3.19873 15.9402C3.19422 15.9704 3.16973 16.1359 3.17231 16.1397C3.17875 16.1507 3.39661 16.1681 3.40885 16.1687Z" fill="white"/>
<path fill-rule="evenodd" clip-rule="evenodd" d="M3.65317 16.1733H3.72214L3.89423 16.1598L3.87103 15.9281C3.79691 15.9358 3.72214 15.9384 3.64673 15.9416L3.65317 16.1733Z" fill="white"/>
<path fill-rule="evenodd" clip-rule="evenodd" d="M4.04456 10.7247C4.11545 10.7331 4.19409 10.755 4.26176 10.7704L4.32106 10.5458C4.30301 10.5355 4.10127 10.493 4.08323 10.4956L4.04456 10.7247Z" fill="white"/>
<path fill-rule="evenodd" clip-rule="evenodd" d="M3.02295 10.5121L3.07129 10.74C3.10029 10.7393 3.22469 10.7097 3.29107 10.7059L3.26272 10.4748C3.19246 10.4761 3.08998 10.5037 3.02295 10.5121Z" fill="white"/>
<path fill-rule="evenodd" clip-rule="evenodd" d="M0.739868 13.1919V13.2685L0.9719 13.2717C0.9719 13.1996 0.977056 13.1178 0.98479 13.0477L0.752114 13.0271L0.739868 13.1919Z" fill="white"/>
<path fill-rule="evenodd" clip-rule="evenodd" d="M5.83545 11.9227C5.85027 11.9555 5.91473 12.054 5.94502 12.1177C5.94953 12.1165 6.1358 12.0218 6.15127 12.0096L6.03139 11.7998C5.99014 11.8216 5.85736 11.9163 5.83545 11.9227Z" fill="white"/>
<path fill-rule="evenodd" clip-rule="evenodd" d="M0.421523 16.9646H6.78369C7.01572 16.9646 7.20521 17.1538 7.20521 17.3855V17.6533C7.20521 17.885 7.01572 18.0743 6.78369 18.0743H0.421523C0.189492 18.0743 0 17.885 0 17.6533V17.3855C0 17.1545 0.189492 16.9646 0.421523 16.9646ZM0.421523 18.5493H6.78369C7.01572 18.5493 7.20521 18.7386 7.20521 18.9703V19.2381C7.20521 19.4698 7.01572 19.6591 6.78369 19.6591H0.421523C0.189492 19.6591 0 19.4698 0 19.2381V18.9703C0 18.7386 0.189492 18.5493 0.421523 18.5493ZM0.421523 20.1354H6.78369C7.01572 20.1354 7.20521 20.3247 7.20521 20.5564V20.8242C7.20521 21.0559 7.01572 21.2451 6.78369 21.2451H0.421523C0.189492 21.2451 0 21.0559 0 20.8242V20.5564C0 20.3247 0.189492 20.1354 0.421523 20.1354ZM0.421523 21.7215H6.78369C7.01572 21.7215 7.20521 21.9107 7.20521 22.1425V22.4102C7.20521 22.642 7.01572 22.8312 6.78369 22.8312H0.421523C0.189492 22.8312 0 22.642 0 22.4102V22.1431C0 21.9114 0.189492 21.7215 0.421523 21.7215ZM0.421523 23.3082H6.78369C7.01572 23.3082 7.20521 23.4974 7.20521 23.7292V23.997C7.20521 24.2287 7.01572 24.4179 6.78369 24.4179H0.421523C0.189492 24.4179 0 24.2287 0 23.997V23.7292C0 23.4974 0.189492 23.3082 0.421523 23.3082ZM0.421523 24.8943H6.78369C7.01572 24.8943 7.20521 25.0835 7.20521 25.3152V25.583C7.20521 25.8148 7.01572 26.004 6.78369 26.004H0.421523C0.189492 26.004 0 25.8148 0 25.583V25.3152C0 25.0842 0.189492 24.8943 0.421523 24.8943ZM0.421523 26.481H6.78369C7.01572 26.481 7.20521 26.6702 7.20521 26.902V27.1697C7.20521 27.4015 7.01572 27.5907 6.78369 27.5907H0.421523C0.189492 27.5907 0 27.4015 0 27.1697V26.902C0 26.6702 0.189492 26.481 0.421523 26.481ZM0.421523 28.0671H6.78369C7.01572 28.0671 7.20521 28.2563 7.20521 28.488V28.7558C7.20521 28.9875 7.01572 29.1768 6.78369 29.1768H0.421523C0.189492 29.1768 0 28.9875 0 28.7558V28.488C0 28.2569 0.189492 28.0671 0.421523 28.0671ZM0.421523 29.6538H6.78369C7.01572 29.6538 7.20521 29.843 7.20521 30.0747V30.3425C7.20521 30.5743 7.01572 30.7635 6.78369 30.7635H0.421523C0.189492 30.7635 0 30.5743 0 30.3425V30.0747C0 29.843 0.189492 29.6538 0.421523 29.6538Z" fill="#AC3F95"/>
<path fill-rule="evenodd" clip-rule="evenodd" d="M53.2358 30.7697H57.7526V14.4237H64.0001V10.2641H46.9877V14.4237H53.2358V30.7697Z" fill="#5C2684"/>
<path fill-rule="evenodd" clip-rule="evenodd" d="M26.9465 30.7697H42.5797V26.7563H31.4338V22.4506H41.1133V18.4371H31.4338V14.2776H42.4333V10.2641H26.9465V30.7697Z" fill="#5C2684"/>
<path fill-rule="evenodd" clip-rule="evenodd" d="M7.90637 30.7697H12.3646V17.7342L22.3078 30.7697H26.1505V10.2641H21.6916V22.8896L12.0713 10.2641H7.90637V30.7697Z" fill="#5C2684"/>
<path fill-rule="evenodd" clip-rule="evenodd" d="M52.3708 0.926924C52.9825 0.926924 53.4787 1.42193 53.4787 2.03344C53.4787 2.64431 52.9831 3.13996 52.3708 3.13996C51.7591 3.13996 51.2628 2.64495 51.2628 2.03344C51.2635 1.42193 51.7591 0.926924 52.3708 0.926924ZM43.2423 37.9498C43.97 37.7966 44.6435 37.6035 45.2262 37.3068C52.053 33.834 50.5416 25.231 48.1517 19.3663C46.8323 16.1285 45.2332 13.2325 44.9464 10.0803C44.6035 6.31853 45.9455 3.15798 50.7066 3.20368C51.0753 3.72508 51.6831 4.06559 52.3708 4.06559C53.4949 4.06559 54.4069 3.1554 54.4069 2.03215C54.4069 0.910188 53.4955 0 52.3708 0C51.4884 0 50.7369 0.56066 50.4546 1.34468C49.5258 1.29061 47.8591 1.30349 46.3289 2.24135C41.1089 5.44117 42.9497 12.2534 44.8388 16.6389C46.8381 21.2787 49.9183 28.6741 46.9322 33.2862C46.0396 34.6657 44.358 35.8295 42.3851 36.3084C42.0525 36.0722 41.6458 35.9331 41.2069 35.9331C40.0828 35.9331 39.1708 36.8433 39.1708 37.9666C39.1708 39.0892 40.0821 40 41.2069 40C42.3309 40 43.2429 39.0898 43.2429 37.9666C43.2429 37.9614 43.2423 37.9556 43.2423 37.9498ZM41.2069 36.8607C41.8185 36.8607 42.3148 37.3557 42.3148 37.9672C42.3148 38.5781 41.8192 39.0737 41.2069 39.0737C40.5952 39.0737 40.0989 38.5787 40.0989 37.9672C40.0989 37.3557 40.5952 36.8607 41.2069 36.8607Z" fill="#5C2684"/>
</g>
<defs>
<clipPath id="clip0">
<rect width="64" height="40" fill="white"/>
</clipPath>
</defs>
</svg>
