<svg width="106" height="66" viewBox="0 0 106 66" fill="none" xmlns="http://www.w3.org/2000/svg">
<g clip-path="url(#clip0)">
<path d="M36.6144 57.6538C36.6304 57.3968 36.6453 57.0145 36.6453 56.6788V52.115H37.3275V54.4867H37.3435C37.5869 54.065 38.0256 53.7921 38.6373 53.7921C39.5788 53.7921 40.245 54.5727 40.2375 55.7187C40.2375 57.0686 39.3824 57.7399 38.5359 57.7399C37.9872 57.7399 37.5474 57.5296 37.2656 57.0304H37.2421L37.2111 57.6549H36.6144V57.6538ZM37.3285 56.1403C37.3285 56.2264 37.3446 56.3124 37.3595 56.3899C37.4929 56.8658 37.8932 57.194 38.395 57.194C39.1166 57.194 39.5479 56.6087 39.5479 55.7431C39.5479 54.9858 39.1561 54.339 38.4185 54.339C37.9477 54.339 37.5089 54.6587 37.368 55.1813C37.352 55.2588 37.3285 55.3533 37.3285 55.4617V56.1403Z" fill="white"/>
<path d="M41.876 53.8787L42.7076 56.1101C42.7941 56.3597 42.888 56.656 42.951 56.8823H42.967C43.0375 56.656 43.1165 56.3672 43.2104 56.0942L43.963 53.8787H44.6921L43.6567 56.57C43.1624 57.8647 42.8251 58.5285 42.3554 58.9342C42.018 59.2306 41.6807 59.3474 41.5088 59.3793L41.3359 58.8015C41.5088 58.7473 41.7362 58.6379 41.9401 58.4659C42.128 58.3172 42.3639 58.0527 42.5208 57.7011C42.5518 57.6311 42.5753 57.5758 42.5753 57.5376C42.5753 57.4983 42.5592 57.4441 42.5283 57.3581L41.1245 53.8787H41.876Z" fill="white"/>
<path d="M47.0054 52.3958H49.8524V52.965H47.6875V54.7132H49.687V55.2751H47.6875V57.6553H47.0054V52.3958Z" fill="white"/>
<path d="M54.5184 57.482C54.2675 57.6073 53.7658 57.7316 53.1221 57.7316C51.6319 57.7316 50.511 56.7948 50.511 55.071C50.511 53.4248 51.6319 52.3096 53.2715 52.3096C53.9302 52.3096 54.3454 52.4498 54.5258 52.5432L54.3614 53.0976C54.1031 52.9723 53.7338 52.8789 53.295 52.8789C52.0556 52.8789 51.2326 53.6669 51.2326 55.0477C51.2326 56.3349 51.9777 57.1623 53.2641 57.1623C53.6793 57.1623 54.1031 57.0763 54.3774 56.9435L54.5184 57.482Z" fill="white"/>
<path d="M59.827 55.3447C59.7875 54.6108 59.7405 53.7293 59.749 53.0739H59.7255C59.5451 53.69 59.3252 54.3453 59.0594 55.0718L58.1264 57.6229H57.6087L56.7536 55.1185C56.5028 54.3771 56.2914 53.6985 56.1419 53.0739H56.1259C56.1099 53.7293 56.0715 54.6108 56.0245 55.3989L55.8836 57.6537H55.2324L55.6007 52.3953H56.4707L57.3728 54.939C57.5927 55.5869 57.7731 56.1636 57.9065 56.7106H57.93C58.0634 56.1795 58.2513 55.6028 58.4872 54.939L59.4288 52.3953H60.2988L60.6287 57.6537H59.9625L59.827 55.3447Z" fill="white"/>
<path d="M61.677 52.4656C61.9748 52.4029 62.4456 52.3562 62.9238 52.3562C63.6059 52.3562 64.0447 52.473 64.3745 52.7386C64.6489 52.9414 64.8133 53.2537 64.8133 53.6668C64.8133 54.1735 64.4759 54.6185 63.9198 54.8213V54.8373C64.4215 54.9626 65.0097 55.3758 65.0097 56.1554C65.0097 56.6078 64.8293 56.9509 64.5624 57.209C64.1941 57.5446 63.5974 57.7007 62.7349 57.7007C62.2641 57.7007 61.9033 57.6699 61.6759 57.638V52.4656H61.677ZM62.3602 54.6185H62.9793C63.7009 54.6185 64.1247 54.2436 64.1247 53.7369C64.1247 53.1209 63.654 52.8788 62.9644 52.8788C62.6505 52.8788 62.4701 52.9021 62.3602 52.9255V54.6185ZM62.3602 57.1389C62.4936 57.1622 62.69 57.1697 62.9323 57.1697C63.638 57.1697 64.2891 56.9126 64.2891 56.1479C64.2891 55.4299 63.67 55.1336 62.9249 55.1336H62.3602V57.1389Z" fill="white"/>
<path fill-rule="evenodd" clip-rule="evenodd" d="M5.96732 16.7217C8.88054 16.7217 11.2408 19.071 11.2408 21.9685C11.2408 24.8659 8.87947 27.2152 5.96732 27.2152C3.05517 27.2152 0.693848 24.8659 0.693848 21.9685C0.693848 19.071 3.0541 16.7217 5.96732 16.7217Z" fill="#AC3F95"/>
<path fill-rule="evenodd" clip-rule="evenodd" d="M4.19203 23.9561H5.05991V23.0671H6.31423L6.99529 23.9561H7.74255V23.0671H8.1482V22.193H7.74255V21.7448H8.1482V20.8707H7.74255V19.9817H6.87467V20.8707H5.68226L5.00226 19.9817H4.19203V20.8707H3.78638V21.7448H4.19203V22.193H3.78638V23.0671H4.19203V23.9561ZM5.05991 22.193V21.7448H5.30117L5.64383 22.193H5.05991ZM6.87467 21.7448V22.193H6.69426L6.35159 21.7448H6.87467Z" fill="white"/>
<path fill-rule="evenodd" clip-rule="evenodd" d="M5.96733 18.4115C7.94114 18.4115 9.5424 20.0036 9.5424 21.9684C9.5424 23.9323 7.94221 25.5254 5.96733 25.5254C3.99351 25.5254 2.39226 23.9333 2.39226 21.9684C2.39226 20.0046 3.99245 18.4115 5.96733 18.4115ZM5.96733 17.9102C8.22083 17.9102 10.0473 19.7274 10.0473 21.9695C10.0473 24.2116 8.22083 26.0288 5.96733 26.0288C3.71383 26.0288 1.88733 24.2116 1.88733 21.9695C1.88733 19.7274 3.71383 17.9102 5.96733 17.9102Z" fill="white"/>
<path fill-rule="evenodd" clip-rule="evenodd" d="M6.10719 17.2495H5.82857L5.80188 17.2527L5.81576 17.6372C5.90329 17.6351 5.99403 17.6308 6.08263 17.6351C6.1691 17.6382 6.25664 17.6478 6.3367 17.6499L6.36659 17.2665L6.10719 17.2495Z" fill="white"/>
<path fill-rule="evenodd" clip-rule="evenodd" d="M9.02243 25.0615C9.00962 25.069 8.99681 25.0828 8.98613 25.0934L8.74915 25.309L8.93489 25.5278C8.9477 25.5437 8.98186 25.5873 8.99894 25.5979L9.1153 25.5002C9.14412 25.4736 9.28076 25.3504 9.29357 25.3324C9.28503 25.3143 9.24233 25.2761 9.22632 25.2612C9.18682 25.2208 9.04591 25.0743 9.02243 25.0615Z" fill="white"/>
<path fill-rule="evenodd" clip-rule="evenodd" d="M3.3934 25.9326C3.41261 25.9124 3.47773 25.8041 3.49908 25.7722C3.52257 25.735 3.59089 25.6416 3.60156 25.6097L3.37312 25.4515C3.35924 25.4408 3.31227 25.4047 3.29839 25.3994C3.28878 25.4122 3.07315 25.6862 3.06567 25.7064C3.08702 25.717 3.34002 25.9124 3.3934 25.9326Z" fill="white"/>
<path fill-rule="evenodd" clip-rule="evenodd" d="M8.14624 25.7232C8.15265 25.7465 8.22417 25.8581 8.24338 25.891L8.33839 26.0556C8.36188 26.0482 8.40885 26.0174 8.43127 26.0036C8.46009 25.9866 8.48571 25.9696 8.5156 25.9505C8.54549 25.9324 8.57004 25.9154 8.59886 25.8963C8.62555 25.8782 8.65544 25.8549 8.68106 25.8421C8.66719 25.8145 8.59566 25.7221 8.56897 25.6828L8.45795 25.5288L8.14624 25.7232Z" fill="white"/>
<path fill-rule="evenodd" clip-rule="evenodd" d="M6.77455 26.2294C6.77348 26.2613 6.83326 26.5459 6.84394 26.6064C6.89838 26.6011 7.19621 26.5363 7.23358 26.5162C7.23358 26.4928 7.13857 26.1614 7.12896 26.1487C7.07345 26.1572 7.0094 26.1784 6.95389 26.1912C6.89625 26.205 6.83647 26.2167 6.77455 26.2294Z" fill="white"/>
<path fill-rule="evenodd" clip-rule="evenodd" d="M1.35352 23.076C1.36099 23.1068 1.44319 23.4276 1.46774 23.4616L1.82962 23.3405C1.82642 23.3118 1.81147 23.2778 1.80293 23.2502L1.72928 22.9836L1.35352 23.076Z" fill="white"/>
<path fill-rule="evenodd" clip-rule="evenodd" d="M1.30334 21.0997C1.31188 21.106 1.66309 21.1698 1.68444 21.1687C1.70793 21.0285 1.74956 20.9064 1.76664 20.8108L1.39302 20.7109C1.377 20.7747 1.36099 20.8352 1.34498 20.901C1.3279 20.968 1.31722 21.0338 1.30334 21.0997Z" fill="white"/>
<path fill-rule="evenodd" clip-rule="evenodd" d="M1.85645 19.6147L2.02191 19.7082C2.05927 19.7294 2.16282 19.7953 2.19378 19.8027C2.21726 19.7432 2.35284 19.5542 2.38806 19.4957C2.37419 19.4798 2.33789 19.4564 2.3112 19.4394L2.07101 19.2759C2.04753 19.2982 1.87139 19.5722 1.85645 19.6147Z" fill="white"/>
<path fill-rule="evenodd" clip-rule="evenodd" d="M4.23889 17.572L4.3798 17.93C4.49296 17.896 4.58583 17.8492 4.72994 17.8121L4.62106 17.4446C4.57089 17.4456 4.29333 17.5476 4.23889 17.572Z" fill="white"/>
<path fill-rule="evenodd" clip-rule="evenodd" d="M10.0012 20.3275L10.1293 20.6727L10.3087 20.6143C10.3418 20.6036 10.4699 20.5665 10.4923 20.5516C10.4837 20.4995 10.4485 20.4125 10.4293 20.3604C10.4165 20.3264 10.3727 20.1979 10.3556 20.1777L10.0012 20.3275Z" fill="white"/>
<path fill-rule="evenodd" clip-rule="evenodd" d="M2.31335 18.9572C2.33791 18.9827 2.60158 19.1983 2.61012 19.2015L2.65496 19.1526C2.69445 19.1027 2.80441 18.9806 2.85778 18.936C2.85031 18.9126 2.81081 18.8818 2.79373 18.8648C2.78199 18.8531 2.77238 18.8436 2.76064 18.8319C2.74569 18.817 2.73822 18.8128 2.72221 18.7989C2.68912 18.7703 2.61226 18.68 2.58237 18.6641C2.55141 18.6842 2.38488 18.8765 2.34538 18.92C2.33577 18.9296 2.32189 18.9455 2.31335 18.9572Z" fill="white"/>
<path fill-rule="evenodd" clip-rule="evenodd" d="M2.95703 25.2334C2.97518 25.2122 3.01148 25.1814 3.01895 25.1622C3.00934 25.1495 3.01148 25.1548 3.00187 25.1463C2.99546 25.1399 2.99226 25.1346 2.98692 25.1282C2.97732 25.1176 2.96237 25.1081 2.9517 25.0974C2.92928 25.0751 2.91006 25.056 2.88764 25.0337L2.7905 24.9328C2.78196 24.9254 2.78089 24.9254 2.77342 24.9169C2.76275 24.9052 2.77449 24.9126 2.75848 24.9031L2.47986 25.1622C2.49587 25.192 2.67628 25.3683 2.72432 25.414C2.73179 25.4203 2.75527 25.4405 2.76381 25.4458L2.95703 25.2334Z" fill="white"/>
<path fill-rule="evenodd" clip-rule="evenodd" d="M4.17514 26.1338C4.18901 26.1009 4.24346 25.9766 4.24879 25.9522C4.22211 25.9447 4.10895 25.8916 4.07906 25.8768C4.0513 25.863 4.02248 25.8502 3.99686 25.8364C3.97658 25.8258 3.93815 25.8024 3.9136 25.7971C3.90399 25.8269 3.88371 25.8545 3.86876 25.8853C3.84314 25.9352 3.74386 26.1094 3.73853 26.1391C3.76735 26.1487 3.79724 26.1688 3.82713 26.1837C3.88691 26.2135 4.05344 26.2952 4.09934 26.308L4.17514 26.1338Z" fill="white"/>
<path fill-rule="evenodd" clip-rule="evenodd" d="M9.56819 25.0403C9.60342 25.0052 9.79877 24.7652 9.81585 24.728C9.79984 24.711 9.67815 24.6282 9.65893 24.6144C9.61089 24.5793 9.55325 24.5432 9.50628 24.5071C9.4892 24.5177 9.48386 24.5294 9.47212 24.5443L9.27356 24.797L9.56819 25.0403Z" fill="white"/>
<path fill-rule="evenodd" clip-rule="evenodd" d="M8.08191 18.1805C8.14382 18.2028 8.34558 18.343 8.39576 18.3685C8.39896 18.3653 8.39896 18.3663 8.40323 18.361L8.55588 18.1305C8.56976 18.1082 8.60072 18.07 8.60926 18.0456C8.57403 18.0296 8.36053 17.8799 8.26766 17.8406C8.26125 17.848 8.08938 18.1582 8.08191 18.1805Z" fill="white"/>
<path fill-rule="evenodd" clip-rule="evenodd" d="M10.7103 22.1V21.8377L10.7049 21.7283L10.3185 21.7463C10.3185 21.8058 10.3238 21.8674 10.3238 21.929C10.3238 21.9874 10.3195 22.0618 10.3217 22.117L10.7081 22.1255L10.7103 22.1Z" fill="white"/>
<path fill-rule="evenodd" clip-rule="evenodd" d="M1.60754 23.8337C1.63637 23.8995 1.74739 24.146 1.78261 24.1927C1.80183 24.1874 1.84453 24.1608 1.86695 24.1491C1.89577 24.1343 1.92459 24.1183 1.95342 24.1024C2.01106 24.0716 2.06764 24.0408 2.12208 24.0111C2.11247 23.9824 2.09326 23.9548 2.08045 23.9293L2.00039 23.7636C1.98864 23.7381 1.97583 23.702 1.96089 23.6797L1.60754 23.8337Z" fill="white"/>
<path fill-rule="evenodd" clip-rule="evenodd" d="M2.87488 18.3917C2.87915 18.3991 2.87701 18.3949 2.88128 18.4012L2.90477 18.431C2.91544 18.4448 2.92505 18.4522 2.93679 18.465C2.97309 18.5043 3.09905 18.6614 3.12788 18.6816L3.37874 18.4819C3.39155 18.4724 3.40543 18.465 3.41504 18.4533L3.18872 18.1453C3.17058 18.1516 2.89196 18.3651 2.87488 18.3917Z" fill="white"/>
<path fill-rule="evenodd" clip-rule="evenodd" d="M1.98767 24.5349C1.99408 24.5487 1.98981 24.5455 2.00048 24.5615C2.00475 24.5668 2.00902 24.5742 2.01436 24.5806C2.02503 24.5965 2.03251 24.6082 2.04318 24.6231L2.21612 24.861C2.2396 24.8514 2.49901 24.6432 2.52142 24.6241C2.51395 24.6093 2.50328 24.5997 2.49367 24.5848L2.30792 24.3257C2.2823 24.3374 2.00475 24.5222 1.98767 24.5349Z" fill="white"/>
<path fill-rule="evenodd" clip-rule="evenodd" d="M10.39 23.6804C10.4145 23.6103 10.5117 23.3575 10.517 23.3001L10.1476 23.196C10.1316 23.229 10.0825 23.3947 10.058 23.4605C10.0505 23.4807 10.0313 23.5242 10.0281 23.5444L10.39 23.6804Z" fill="white"/>
<path fill-rule="evenodd" clip-rule="evenodd" d="M4.85818 26.5577C4.86779 26.5428 4.94465 26.2093 4.94465 26.1859C4.9265 26.1764 4.73328 26.1286 4.67777 26.1105C4.65001 26.102 4.61692 26.0882 4.5913 26.084L4.47388 26.4504C4.56034 26.4685 4.76424 26.5492 4.85818 26.5577Z" fill="white"/>
<path fill-rule="evenodd" clip-rule="evenodd" d="M10.2374 22.8445L10.6153 22.9167C10.6281 22.8413 10.6815 22.58 10.6762 22.5205L10.2929 22.478C10.2908 22.58 10.2374 22.7935 10.2374 22.8445Z" fill="white"/>
<path fill-rule="evenodd" clip-rule="evenodd" d="M1.27668 22.6866L1.65778 22.6304C1.65457 22.5741 1.6407 22.504 1.63536 22.4477C1.62895 22.3839 1.62255 22.3245 1.61935 22.2607L1.27775 22.2873C1.21903 22.2905 1.22437 22.2554 1.25213 22.4987C1.2596 22.5624 1.26921 22.6229 1.27668 22.6866Z" fill="white"/>
<path fill-rule="evenodd" clip-rule="evenodd" d="M10.2214 21.0232C10.2278 21.0827 10.2652 21.2409 10.278 21.3408C10.2834 21.3811 10.2801 21.3822 10.293 21.3843L10.6666 21.3333C10.6655 21.2792 10.6452 21.1836 10.6356 21.1315C10.6239 21.0657 10.6089 21.002 10.5972 20.9382L10.2214 21.0232Z" fill="white"/>
<path fill-rule="evenodd" clip-rule="evenodd" d="M7.61873 26.3932C7.66143 26.3858 7.76284 26.3391 7.80661 26.321C7.86746 26.2955 7.92831 26.269 7.98915 26.2403L7.82262 25.894L7.65395 25.9673C7.60805 25.9864 7.52372 26.0247 7.47888 26.0342L7.61873 26.3932Z" fill="white"/>
<path fill-rule="evenodd" clip-rule="evenodd" d="M7.53667 17.5159L7.41284 17.876L7.75658 18.0119L7.91244 17.6593L7.72562 17.5828C7.69573 17.5712 7.55696 17.5138 7.53667 17.5159Z" fill="white"/>
<path fill-rule="evenodd" clip-rule="evenodd" d="M10.0358 24.3952C10.0827 24.3293 10.1404 24.2093 10.1841 24.1328C10.1959 24.1116 10.2215 24.0638 10.2279 24.0426L9.88204 23.8779C9.86176 23.9002 9.81479 24.0064 9.7945 24.0426L9.70483 24.1997L10.0358 24.3952Z" fill="white"/>
<path fill-rule="evenodd" clip-rule="evenodd" d="M8.69385 18.5846C8.69812 18.5899 8.69491 18.5878 8.70132 18.5931C8.75576 18.643 8.83689 18.7014 8.89987 18.763L8.97033 18.8257C8.98848 18.8182 9.1454 18.6419 9.16888 18.6175C9.19237 18.5931 9.21158 18.5708 9.234 18.5474C9.22226 18.5294 9.19344 18.5092 9.18063 18.4986C9.17209 18.4911 9.17102 18.4879 9.16248 18.4794L8.93297 18.2861C8.92016 18.2946 8.886 18.3424 8.87425 18.3573C8.85397 18.3838 8.83476 18.4062 8.81341 18.4338L8.69385 18.5846Z" fill="white"/>
<path fill-rule="evenodd" clip-rule="evenodd" d="M3.52271 17.9243C3.52911 17.9445 3.69884 18.2143 3.71806 18.2515L3.88245 18.1612C3.91341 18.1431 4.02657 18.0921 4.04471 18.0752L3.87178 17.7332C3.812 17.7565 3.55687 17.8967 3.52271 17.9243Z" fill="white"/>
<path fill-rule="evenodd" clip-rule="evenodd" d="M1.51587 20.3352L1.87989 20.4679C1.89163 20.4191 1.92686 20.3416 1.94714 20.2948L2.01866 20.1291L1.67172 19.9656C1.64824 19.9964 1.52654 20.2895 1.51587 20.3352Z" fill="white"/>
<path fill-rule="evenodd" clip-rule="evenodd" d="M9.22742 19.0891L9.40249 19.3015C9.4153 19.3185 9.44626 19.3631 9.4612 19.3748L9.76437 19.1411C9.75263 19.1188 9.72167 19.0806 9.70566 19.0604C9.68324 19.0317 9.66723 19.0136 9.64375 18.985C9.6288 18.9669 9.52418 18.8469 9.51885 18.832C9.48789 18.8395 9.40142 18.9329 9.3694 18.9574L9.22742 19.0891Z" fill="white"/>
<path fill-rule="evenodd" clip-rule="evenodd" d="M5.64599 26.6784C5.64813 26.6742 5.64706 26.6805 5.65026 26.6678L5.65667 26.5839C5.66307 26.5021 5.66628 26.3545 5.67588 26.2929C5.54778 26.2929 5.41862 26.2621 5.30866 26.2546C5.30546 26.2599 5.3076 26.2536 5.30439 26.2653L5.29799 26.3014C5.29052 26.3513 5.24995 26.6242 5.25422 26.6306C5.2649 26.6487 5.62571 26.6774 5.64599 26.6784Z" fill="white"/>
<path fill-rule="evenodd" clip-rule="evenodd" d="M6.05071 26.6859H6.16494L6.44996 26.6636L6.41153 26.2812C6.28877 26.294 6.16494 26.2982 6.04004 26.3036L6.05071 26.6859Z" fill="white"/>
<path fill-rule="evenodd" clip-rule="evenodd" d="M6.69873 17.6957C6.81616 17.7095 6.94639 17.7456 7.05848 17.7711L7.15669 17.4004C7.1268 17.3834 6.79267 17.3133 6.76278 17.3176L6.69873 17.6957Z" fill="white"/>
<path fill-rule="evenodd" clip-rule="evenodd" d="M5.00671 17.345L5.08678 17.721C5.13481 17.72 5.34084 17.6711 5.4508 17.6647L5.40383 17.2834C5.28747 17.2856 5.11773 17.3312 5.00671 17.345Z" fill="white"/>
<path fill-rule="evenodd" clip-rule="evenodd" d="M1.22534 21.7665V21.8929L1.60964 21.8982C1.60964 21.7793 1.61818 21.6444 1.63099 21.5286L1.24562 21.4946L1.22534 21.7665Z" fill="white"/>
<path fill-rule="evenodd" clip-rule="evenodd" d="M9.66504 19.6726C9.68959 19.7268 9.79634 19.8893 9.84652 19.9944C9.85399 19.9923 10.1625 19.8362 10.1881 19.816L9.98956 19.4697C9.92124 19.5058 9.70133 19.662 9.66504 19.6726Z" fill="white"/>
<path fill-rule="evenodd" clip-rule="evenodd" d="M0.698148 27.9915H11.2355C11.6198 27.9915 11.9336 28.3037 11.9336 28.6861V29.1279C11.9336 29.5103 11.6198 29.8225 11.2355 29.8225H0.698148C0.313846 29.8225 0 29.5103 0 29.1279V28.6861C0 28.3048 0.313846 27.9915 0.698148 27.9915ZM0.698148 30.6063H11.2355C11.6198 30.6063 11.9336 30.9186 11.9336 31.301V31.7428C11.9336 32.1251 11.6198 32.4374 11.2355 32.4374H0.698148C0.313846 32.4374 0 32.1251 0 31.7428V31.301C0 30.9186 0.313846 30.6063 0.698148 30.6063ZM0.698148 33.2234H11.2355C11.6198 33.2234 11.9336 33.5356 11.9336 33.918V34.3598C11.9336 34.7422 11.6198 35.0544 11.2355 35.0544H0.698148C0.313846 35.0544 0 34.7422 0 34.3598V33.918C0 33.5356 0.313846 33.2234 0.698148 33.2234ZM0.698148 35.8404H11.2355C11.6198 35.8404 11.9336 36.1526 11.9336 36.535V36.9768C11.9336 37.3592 11.6198 37.6714 11.2355 37.6714H0.698148C0.313846 37.6714 0 37.3592 0 36.9768V36.5361C0 36.1537 0.313846 35.8404 0.698148 35.8404ZM0.698148 38.4585H11.2355C11.6198 38.4585 11.9336 38.7707 11.9336 39.1531V39.5949C11.9336 39.9773 11.6198 40.2895 11.2355 40.2895H0.698148C0.313846 40.2895 0 39.9773 0 39.5949V39.1531C0 38.7707 0.313846 38.4585 0.698148 38.4585ZM0.698148 41.0755H11.2355C11.6198 41.0755 11.9336 41.3877 11.9336 41.7701V42.2119C11.9336 42.5943 11.6198 42.9065 11.2355 42.9065H0.698148C0.313846 42.9065 0 42.5943 0 42.2119V41.7701C0 41.3888 0.313846 41.0755 0.698148 41.0755ZM0.698148 43.6935H11.2355C11.6198 43.6935 11.9336 44.0058 11.9336 44.3882V44.83C11.9336 45.2124 11.6198 45.5246 11.2355 45.5246H0.698148C0.313846 45.5246 0 45.2124 0 44.83V44.3882C0 44.0058 0.313846 43.6935 0.698148 43.6935ZM0.698148 46.3106H11.2355C11.6198 46.3106 11.9336 46.6228 11.9336 47.0052V47.447C11.9336 47.8294 11.6198 48.1416 11.2355 48.1416H0.698148C0.313846 48.1416 0 47.8294 0 47.447V47.0052C0 46.6239 0.313846 46.3106 0.698148 46.3106ZM0.698148 48.9286H11.2355C11.6198 48.9286 11.9336 49.2409 11.9336 49.6233V50.0651C11.9336 50.4474 11.6198 50.7597 11.2355 50.7597H0.698148C0.313846 50.7597 0 50.4474 0 50.0651V49.6233C0 49.2409 0.313846 48.9286 0.698148 48.9286Z" fill="#AC3F95"/>
<path fill-rule="evenodd" clip-rule="evenodd" d="M88.1718 50.7701H95.6528V23.7991H106V16.9358H77.8234V23.7991H88.1718V50.7701Z" fill="white"/>
<path fill-rule="evenodd" clip-rule="evenodd" d="M44.6301 50.7701H70.5225V44.1479H52.0621V37.0435H68.0939V30.4213H52.0621V23.558H70.2802V16.9358H44.6301V50.7701Z" fill="white"/>
<path fill-rule="evenodd" clip-rule="evenodd" d="M13.095 50.7701H20.4789V29.2615L36.9473 50.7701H43.3117V16.9358H35.9267V37.7678L19.9932 16.9358H13.095V50.7701Z" fill="white"/>
<path fill-rule="evenodd" clip-rule="evenodd" d="M86.7391 1.52942C87.7522 1.52942 88.5741 2.34618 88.5741 3.35518C88.5741 4.36311 87.7532 5.18093 86.7391 5.18093C85.726 5.18093 84.9041 4.36417 84.9041 3.35518C84.9051 2.34618 85.726 1.52942 86.7391 1.52942ZM71.62 62.6172C72.8252 62.3644 73.9408 62.0458 74.9058 61.5562C86.2128 55.8261 83.7095 41.6312 79.7512 31.9544C77.566 26.612 74.9175 21.8336 74.4425 16.6325C73.8746 10.4256 76.0971 5.21067 83.9828 5.28608C84.5934 6.14638 85.6001 6.70823 86.7391 6.70823C88.6008 6.70823 90.1114 5.20642 90.1114 3.35305C90.1114 1.50181 88.6019 0 86.7391 0C85.2777 0 84.033 0.92509 83.5654 2.21873C82.0271 2.12951 79.2666 2.15075 76.7323 3.69823C68.0866 8.97794 71.1354 20.2181 74.2642 27.4542C77.5756 35.1099 82.6772 47.3123 77.7315 54.9223C76.253 57.1984 73.4679 59.1186 70.2002 59.9089C69.6494 59.5191 68.9758 59.2896 68.2488 59.2896C66.3871 59.2896 64.8766 60.7915 64.8766 62.6448C64.8766 64.4971 66.386 66 68.2488 66C70.1106 66 71.6211 64.4982 71.6211 62.6448C71.6211 62.6363 71.62 62.6268 71.62 62.6172ZM68.2488 60.8201C69.2619 60.8201 70.0839 61.6369 70.0839 62.6459C70.0839 63.6538 69.263 64.4716 68.2488 64.4716C67.2358 64.4716 66.4138 63.6549 66.4138 62.6459C66.4138 61.6369 67.2358 60.8201 68.2488 60.8201Z" fill="white"/>
</g>
<defs>
<clipPath id="clip0">
<rect width="106" height="66" fill="white"/>
</clipPath>
</defs>
</svg>
