<svg width="417" height="340" viewBox="0 0 417 340" fill="none" xmlns="http://www.w3.org/2000/svg">
    <path d="M330 72.2249C330 80.9249 337.1 87.9249 345.7 87.9249H392.9C401.6 87.9249 408.6 80.8249 408.6 72.2249C408.6 63.6249 401.6 56.5249 392.9 56.5249H345.7C337 56.5249 330 63.5249 330 72.2249Z" fill="#4F0A82" fill-opacity="0.15" style="mix-blend-mode:multiply"/>
    <path d="M102.8 198.225C102.8 189.525 95.7 182.525 87.1 182.525H15.7C7.1 182.525 0 189.525 0 198.225C0 206.925 7.1 213.925 15.7 213.925H87C95.8 214.025 102.8 206.925 102.8 198.225Z" fill="#4F0A82" fill-opacity="0.15" style="mix-blend-mode:multiply"/>
    <path d="M389.069 214.845H401.66C410.152 214.845 416.984 207.912 416.984 199.515C416.984 191.02 410.054 184.184 401.66 184.184H356.273C347.781 184.184 340.948 177.251 340.948 168.854C340.948 160.359 347.879 153.524 356.273 153.524H379.991C388.483 153.524 395.316 146.591 395.316 138.193C395.316 129.698 388.386 122.863 379.991 122.863H218.549C210.057 122.863 203.224 115.93 203.224 107.532C203.224 99.0372 210.155 92.202 218.549 92.202H281.896C290.193 92.202 297.318 85.855 297.708 77.5551C298.099 68.767 291.071 61.4435 282.384 61.4435C274.185 61.4435 267.45 54.8036 267.45 46.5037V45.6249C267.45 37.4226 274.087 30.6851 282.384 30.6851H345.829C354.321 30.6851 361.153 23.7522 361.153 15.3547C361.153 6.85951 354.223 0.0243066 345.829 0.0243066H67.8431C59.3513 -0.463922 52.5188 6.46893 52.5188 14.8665C52.5188 23.3617 59.4489 30.1969 67.8431 30.1969H107.569C116.061 30.1969 122.894 37.1297 122.894 45.5272C122.894 54.0224 115.964 60.8576 107.569 60.8576H35.8279C27.5313 60.8576 20.4059 67.2046 20.0155 75.5045C19.6251 84.2926 26.6528 91.6161 35.3399 91.6161H56.6183C65.1101 91.6161 71.9426 98.5489 71.9426 106.946C71.9426 115.442 65.0125 122.277 56.6183 122.277H46.1743C37.6824 122.277 30.8499 129.21 30.8499 137.607C30.8499 146.102 37.78 152.938 46.1743 152.938H160.082C168.574 152.938 175.406 159.87 175.406 168.268C175.406 176.763 168.476 183.598 160.082 183.598H152.957C144.465 183.598 137.632 190.531 137.632 198.929C137.632 207.424 144.562 214.259 152.957 214.259H252.028C260.52 214.259 267.352 221.192 267.352 229.59C267.352 238.085 260.422 244.92 252.028 244.92H93.709C85.4124 244.92 78.2871 251.267 77.8967 259.567C77.5062 268.355 84.534 275.678 93.221 275.678H130.214C138.706 275.678 145.539 282.611 145.539 291.009C145.539 299.504 138.608 306.339 130.214 306.339H42.9532C34.4614 306.339 27.6289 313.272 27.6289 321.67C27.6289 330.165 34.559 337 42.9532 337H274.673C283.165 337 289.997 330.067 289.997 321.67C289.997 313.174 283.067 306.339 274.673 306.339H250.076C241.584 306.339 234.752 299.406 234.752 291.009C234.752 282.514 241.682 275.678 250.076 275.678H401.172C409.469 275.678 416.594 269.331 416.984 261.032C417.375 252.243 410.347 244.92 401.66 244.92H389.069C380.577 244.92 373.744 237.987 373.744 229.59C373.647 221.68 380.577 214.845 389.069 214.845Z" fill="#4F0A82" fill-opacity="0.15" style="mix-blend-mode:multiply"/>
    <path d="M377.1 308.525H340.3C331.6 308.525 324.6 315.625 324.6 324.225C324.6 332.925 331.7 339.925 340.3 339.925H377.1C385.8 339.925 392.8 332.825 392.8 324.225C392.9 315.525 385.8 308.525 377.1 308.525Z" fill="#4F0A82" fill-opacity="0.15" style="mix-blend-mode:multiply"/>
    <g filter="url(#filter0_b)">
        <path d="M326 92.1429V249.857C326 257.118 320.126 263 312.875 263H129.125C121.874 263 116 257.118 116 249.857V92.1429C116 84.8816 121.874 79 129.125 79H312.875C320.126 79 326 84.8816 326 92.1429Z" fill="white" fill-opacity="0.08"/>
    </g>
    <path d="M116 105.286H326V131.571H116V105.286Z" fill="#5C2275"/>
    <path d="M312.875 79H129.125C121.874 79 116 84.8816 116 92.1429V118.429H326V92.1429C326 84.8816 320.126 79 312.875 79Z" fill="white"/>
    <path d="M142.25 98.7145C142.25 95.0901 145.188 92.1431 148.812 92.1431C152.437 92.1431 155.375 95.0901 155.375 98.7145C155.375 102.339 152.437 105.286 148.812 105.286C145.188 105.286 142.25 102.339 142.25 98.7145Z" fill="#702084"/>
    <path d="M168.5 98.7145C168.5 95.0901 171.438 92.1431 175.062 92.1431C178.687 92.1431 181.625 95.0901 181.625 98.7145C181.625 102.339 178.687 105.286 175.062 105.286C171.438 105.286 168.5 102.339 168.5 98.7145Z" fill="#702084"/>
    <path d="M194.75 98.7145C194.75 95.0852 197.692 92.1431 201.321 92.1431H293.179C296.808 92.1431 299.75 95.0852 299.75 98.7145C299.75 102.344 296.808 105.286 293.179 105.286H201.321C197.692 105.286 194.75 102.344 194.75 98.7145Z" fill="#702084"/>
    <path d="M312.875 225H299.75V205.286C299.75 198.037 293.864 192.143 286.625 192.143C279.386 192.143 273.5 198.037 273.5 205.286V225H260.375V205.286C260.375 190.789 272.148 179 286.625 179C301.102 179 312.875 190.789 312.875 205.286V225Z" fill="#EFF2F3"/>
    <path d="M194.75 157.857C194.75 154.228 197.692 151.286 201.321 151.286H253.804C257.433 151.286 260.375 154.228 260.375 157.857C260.375 161.486 257.433 164.429 253.804 164.429H201.321C197.692 164.429 194.75 161.486 194.75 157.857Z" fill="#FFDB93"/>
    <path d="M247.25 184.142C247.25 187.767 244.312 190.714 240.688 190.714C237.063 190.714 234.125 187.767 234.125 184.142C234.125 180.518 237.063 177.571 240.688 177.571C244.312 177.571 247.25 180.518 247.25 184.142ZM221 184.142C221 187.772 218.058 190.714 214.429 190.714H201.321C197.692 190.714 194.75 187.772 194.75 184.142C194.75 180.513 197.692 177.571 201.321 177.571H214.429C218.058 177.571 221 180.513 221 184.142Z" fill="#FFDB93"/>
    <path d="M194.75 210.428C194.75 206.799 197.692 203.856 201.321 203.856H227.554C231.183 203.856 234.125 206.799 234.125 210.428C234.125 214.057 231.183 216.999 227.554 216.999H201.321C197.692 216.999 194.75 214.057 194.75 210.428Z" fill="#FFDB93"/>
    <path d="M194.75 236.714C194.75 233.085 197.692 230.143 201.321 230.143H227.554C231.183 230.143 234.125 233.085 234.125 236.714C234.125 240.343 231.183 243.285 227.554 243.285H201.321C197.692 243.285 194.75 240.343 194.75 236.714Z" fill="#FFDB93"/>
    <path d="M312.875 271H260.375C253.124 271 247.25 265.119 247.25 257.857V231.572C247.25 224.31 253.124 218.429 260.375 218.429H312.875C320.126 218.429 326 224.31 326 231.572V257.857C326 265.119 320.126 271 312.875 271Z" fill="#D10EAC"/>
    <path d="M280.062 244.714C280.062 241.09 283.001 238.143 286.625 238.143C290.249 238.143 293.188 241.09 293.188 244.714C293.188 248.338 290.249 251.285 286.625 251.285C283.001 251.285 280.062 248.338 280.062 244.714Z" fill="white"/>
    <path d="M312.875 257.857H260.375C253.124 257.857 247.25 251.975 247.25 244.714V257.857C247.25 265.118 253.124 271 260.375 271H312.875C320.126 271 326 265.118 326 257.857V244.714C326 251.975 320.126 257.857 312.875 257.857Z" fill="#AE008D"/>
    <path d="M177.605 202.296C178.699 202.296 179.629 202.652 180.395 203.364C181.16 204.076 181.543 204.98 181.543 206.075C181.543 207.17 181.16 208.074 180.395 208.786C179.629 209.498 178.699 209.854 177.605 209.854H173.75V222.996C173.75 225.077 173.176 226.666 172.027 227.761C170.879 228.856 169.457 229.404 167.762 229.404C166.613 229.404 165.547 229.075 164.563 228.418C163.578 227.761 162.813 226.666 162.266 225.132L151.52 197.204V223.818C151.52 225.57 151.027 226.939 150.043 227.925C149.113 228.911 147.855 229.404 146.27 229.404C144.684 229.404 143.426 228.911 142.496 227.925C141.566 226.939 141.102 225.57 141.102 223.818V209.854H137.246C136.152 209.854 135.223 209.498 134.457 208.786C133.691 208.074 133.309 207.17 133.309 206.075C133.309 204.98 133.691 204.076 134.457 203.364C135.223 202.652 136.152 202.296 137.246 202.296H141.102V197.204H137.246C136.152 197.204 135.223 196.848 134.457 196.136C133.691 195.424 133.309 194.52 133.309 193.425C133.309 192.33 133.691 191.426 134.457 190.714C135.223 190.002 136.152 189.646 137.246 189.646H141.102V176.914C141.102 174.888 141.676 173.327 142.824 172.232C143.973 171.137 145.395 170.589 147.09 170.589C148.184 170.589 149.223 170.918 150.207 171.575C151.191 172.232 151.957 173.327 152.504 174.861L163.25 204.679V176.093C163.25 174.395 163.742 173.054 164.727 172.068C165.711 171.082 166.969 170.589 168.5 170.589C170.086 170.589 171.344 171.082 172.273 172.068C173.258 173.054 173.75 174.395 173.75 176.093V189.646H177.605C178.699 189.646 179.629 190.002 180.395 190.714C181.16 191.426 181.543 192.33 181.543 193.425C181.543 194.52 181.16 195.424 180.395 196.136C179.629 196.848 178.699 197.204 177.605 197.204H173.75V202.296H177.605Z" fill="#B92199"/>
    <defs>
        <filter id="filter0_b" x="108" y="71" width="226" height="200" filterUnits="userSpaceOnUse" color-interpolation-filters="sRGB">
            <feFlood flood-opacity="0" result="BackgroundImageFix"/>
            <feGaussianBlur in="BackgroundImage" stdDeviation="4"/>
            <feComposite in2="SourceAlpha" operator="in" result="effect1_backgroundBlur"/>
            <feBlend mode="normal" in="SourceGraphic" in2="effect1_backgroundBlur" result="shape"/>
        </filter>
    </defs>
</svg>
