<svg width="151" height="151" viewBox="0 0 151 151" fill="none" xmlns="http://www.w3.org/2000/svg">
    <rect x="25" y="23.6084" width="5.9549" height="6.20667" rx="2.97745" fill="#FFDB93"/>
    <rect x="43.6089" y="35.2461" width="5.9549" height="6.20679" rx="2.97745" fill="#FFDB93"/>
    <rect x="103.158" y="74.0371" width="10.4211" height="10.8616" rx="5.21053" fill="#FFDB93"/>
    <rect x="118.045" y="43.0044" width="5.9549" height="6.20667" rx="2.97745" fill="#FFDB93"/>
    <rect x="118.045" y="27.4878" width="2.97745" height="3.10327" rx="1.48872" fill="#FFDB93"/>
    <rect x="51.0527" y="19.7295" width="2.97745" height="3.10315" rx="1.48872" fill="#FFDB93"/>
    <rect x="80.8271" y="4.21289" width="2.97745" height="3.10315" rx="1.48872" fill="#FFDB93"/>
    <rect x="36.1655" y="74.0371" width="2.97745" height="3.10303" rx="1.48872" fill="#FFDB93"/>
    <g filter="url(#filter0_d)">
        <rect x="40.6318" y="20.5054" width="70" height="70" rx="35" fill="white"/>
    </g>
    <path d="M77.7201 48.4697C75.6091 48.0572 73.4251 48.2371 71.4101 48.9897C71.3123 49.0284 71.223 49.086 71.1474 49.1593C71.0719 49.2325 71.0115 49.3199 70.9697 49.4165C70.8853 49.6115 70.8818 49.8321 70.9601 50.0297C71.0383 50.2272 71.1919 50.3857 71.3869 50.47C71.5819 50.5544 71.8025 50.5579 72.0001 50.4797C73.7351 49.8237 75.6171 49.6576 77.4401 49.9997C77.547 50.0278 77.6585 50.0335 77.7677 50.0163C77.8768 49.9992 77.9813 49.9597 78.0744 49.9002C78.1675 49.8407 78.2473 49.7626 78.3087 49.6707C78.3701 49.5788 78.4119 49.4752 78.4313 49.3665C78.4507 49.2577 78.4473 49.146 78.4214 49.0386C78.3956 48.9312 78.3477 48.8303 78.2809 48.7423C78.2141 48.6543 78.1297 48.581 78.0332 48.5272C77.9367 48.4734 77.8301 48.4402 77.7201 48.4297V48.4697Z" fill="#B20F93"/>
    <path d="M83.38 56.0696C84.1311 56.0696 84.74 55.4607 84.74 54.7096C84.74 53.9585 84.1311 53.3496 83.38 53.3496C82.6289 53.3496 82.02 53.9585 82.02 54.7096C82.02 55.4607 82.6289 56.0696 83.38 56.0696Z" fill="#B20F93"/>
    <path d="M93.5101 56.6294C93.4174 56.4922 93.2922 56.3803 93.1456 56.3035C92.999 56.2267 92.8356 56.1875 92.6701 56.1894C91.8622 56.0772 91.1209 55.68 90.5801 55.0694C89.5394 53.9318 88.6549 52.6606 87.9501 51.2894L90.8301 46.7894C91.0049 46.5286 91.1119 46.2284 91.1416 45.9159C91.1713 45.6034 91.1227 45.2884 91.0001 44.9994C90.8774 44.7364 90.6919 44.5077 90.46 44.3333C90.228 44.1589 89.9568 44.0443 89.6701 43.9994C87.8387 43.7525 85.9746 44.0119 84.2801 44.7494C83.309 45.1771 82.3952 45.7247 81.5601 46.3794C79.9245 45.6459 78.1828 45.1768 76.4001 44.9894C69.3101 44.2994 62.8301 48.8994 62.0001 54.9994C61.6767 54.8539 61.387 54.6427 61.1494 54.3793C60.9118 54.1159 60.7316 53.8061 60.6201 53.4694C60.5488 53.2385 60.5245 52.9957 60.5485 52.7552C60.5726 52.5148 60.6445 52.2816 60.7601 52.0694C60.8638 51.8912 61.012 51.743 61.1901 51.6394C61.3116 51.5658 61.4174 51.4691 61.5015 51.3547C61.5856 51.2402 61.6463 51.1104 61.6802 50.9725C61.7141 50.8346 61.7205 50.6913 61.699 50.551C61.6776 50.4106 61.6287 50.2758 61.5551 50.1544C61.4816 50.0329 61.3848 49.9271 61.2704 49.843C61.156 49.7589 61.0261 49.6982 60.8882 49.6643C60.7503 49.6304 60.6071 49.624 60.4667 49.6455C60.3264 49.6669 60.1916 49.7158 60.0701 49.7894C59.586 50.0865 59.1866 50.5032 58.9101 50.9994C58.6531 51.465 58.4915 51.9773 58.4349 52.5061C58.3782 53.035 58.4276 53.5698 58.5801 54.0794C58.7679 54.6968 59.0792 55.2696 59.4952 55.763C59.9113 56.2564 60.4233 56.66 61.0001 56.9494L61.9201 57.4094C62.0351 59.8436 62.6548 62.2274 63.7401 64.4094L63.9101 64.7894C64.7775 66.6237 65.8837 68.3352 67.2001 69.8794C67.2938 69.986 67.4092 70.0715 67.5385 70.1301C67.6678 70.1888 67.8081 70.2192 67.9501 70.2194H72.4701C72.6339 70.2185 72.795 70.1775 72.9392 70.0999C73.0834 70.0222 73.2063 69.9104 73.2972 69.7741C73.388 69.6378 73.444 69.4813 73.4602 69.3183C73.4764 69.1553 73.4524 68.9909 73.3901 68.8394L73.0001 67.9394L74.1801 68.0694C75.5102 68.2009 76.85 68.2009 78.1801 68.0694C78.5501 68.6694 78.9501 69.2694 79.3901 69.8594C79.4822 69.9854 79.6025 70.0881 79.7415 70.1593C79.8804 70.2305 80.034 70.2682 80.1901 70.2694H84.5301C84.6952 70.2692 84.8576 70.2282 85.003 70.1501C85.1483 70.0719 85.2721 69.9589 85.3632 69.8213C85.4543 69.6837 85.5099 69.5256 85.5251 69.3613C85.5402 69.1969 85.5145 69.0313 85.4501 68.8794C85.2801 68.4794 85.1101 68.0494 84.9801 67.6794C84.8001 67.1494 84.6601 66.6794 84.5501 66.2294C85.6545 65.6331 86.6681 64.8822 87.5601 63.9994C88.5565 64.1198 89.5637 64.1198 90.5601 63.9994C90.733 63.9732 90.896 63.9022 91.0328 63.7934C91.1697 63.6846 91.2757 63.5419 91.3401 63.3794L93.6001 57.5694C93.6637 57.4174 93.6888 57.2521 93.6731 57.0881C93.6574 56.9241 93.6014 56.7665 93.5101 56.6294ZM89.7301 62.0694C88.9451 62.1141 88.1575 62.0772 87.3801 61.9594C86.4948 61.8098 85.6401 61.5159 84.8501 61.0894C84.6161 60.9734 84.3461 60.9535 84.0976 61.034C83.8492 61.1145 83.6421 61.289 83.5206 61.5201C83.3992 61.7513 83.373 62.0209 83.4476 62.2711C83.5223 62.5214 83.6918 62.7325 83.9201 62.8594C84.3381 63.0785 84.7688 63.2722 85.2101 63.4394C84.6648 63.905 84.0594 64.2951 83.4101 64.5994L82.3501 65.0794C82.3501 65.0794 82.8401 67.2694 83.1701 68.2394H80.7901C80.5501 67.8994 79.3401 65.8794 79.3401 65.8794L78.6701 65.9694C77.2628 66.1723 75.8367 66.2126 74.4201 66.0894C73.7601 66.0294 72.6601 65.8894 71.8001 65.7394L70.2501 65.4694C70.2501 65.4694 70.8801 67.8994 71.0001 68.2094H68.4201C67.3662 66.9189 66.473 65.5052 65.7601 63.9994L65.5801 63.6094C64.2808 61.1083 63.7321 58.285 64.0001 55.4794C64.5401 50.2894 70.1201 46.3694 76.1901 46.9394C77.9559 47.1373 79.6743 47.638 81.2701 48.4194L81.8901 48.7094L82.3901 48.2394C83.1688 47.5435 84.0489 46.9703 85.0001 46.5394C86.2587 45.9935 87.6335 45.7701 89.0001 45.8894L85.6201 51.1794L85.8701 51.6794C86.7435 53.4385 87.8575 55.0675 89.1801 56.5194C89.7944 57.1198 90.5218 57.5922 91.3201 57.9094L89.7301 62.0694Z" fill="#B20F93"/>
    <defs>
        <filter id="filter0_d" x="0.631836" y="0.505371" width="150" height="150" filterUnits="userSpaceOnUse" color-interpolation-filters="sRGB">
            <feFlood flood-opacity="0" result="BackgroundImageFix"/>
            <feColorMatrix in="SourceAlpha" type="matrix" values="0 0 0 0 0 0 0 0 0 0 0 0 0 0 0 0 0 0 127 0"/>
            <feOffset dy="20"/>
            <feGaussianBlur stdDeviation="20"/>
            <feColorMatrix type="matrix" values="0 0 0 0 0 0 0 0 0 0 0 0 0 0 0 0 0 0 0.2 0"/>
            <feBlend mode="normal" in2="BackgroundImageFix" result="effect1_dropShadow"/>
            <feBlend mode="normal" in="SourceGraphic" in2="effect1_dropShadow" result="shape"/>
        </filter>
    </defs>
</svg>
