<svg xmlns="http://www.w3.org/2000/svg" width="417" height="340" viewBox="0 0 417 340" fill="none">
    <path d="M330 72.2249C330 80.9249 337.1 87.9249 345.7 87.9249H392.9C401.6 87.9249 408.6 80.8249 408.6 72.2249C408.6 63.6249 401.6 56.5249 392.9 56.5249H345.7C337 56.5249 330 63.5249 330 72.2249Z" fill="#4F0A82" fill-opacity="0.15" style="mix-blend-mode:multiply"/>
    <path d="M102.8 198.225C102.8 189.525 95.7 182.525 87.1 182.525H15.7C7.1 182.525 0 189.525 0 198.225C0 206.925 7.1 213.925 15.7 213.925H87C95.8 214.025 102.8 206.925 102.8 198.225Z" fill="#4F0A82" fill-opacity="0.15" style="mix-blend-mode:multiply"/>
    <path d="M389.069 214.845H401.66C410.152 214.845 416.984 207.912 416.984 199.515C416.984 191.02 410.054 184.184 401.66 184.184H356.273C347.781 184.184 340.948 177.251 340.948 168.854C340.948 160.359 347.879 153.524 356.273 153.524H379.991C388.483 153.524 395.316 146.591 395.316 138.193C395.316 129.698 388.386 122.863 379.991 122.863H218.549C210.057 122.863 203.224 115.93 203.224 107.532C203.224 99.0372 210.155 92.202 218.549 92.202H281.896C290.193 92.202 297.318 85.855 297.708 77.5551C298.099 68.767 291.071 61.4435 282.384 61.4435C274.185 61.4435 267.45 54.8036 267.45 46.5037V45.6249C267.45 37.4226 274.087 30.6851 282.384 30.6851H345.829C354.321 30.6851 361.153 23.7522 361.153 15.3547C361.153 6.85951 354.223 0.0243066 345.829 0.0243066H67.8431C59.3513 -0.463922 52.5188 6.46893 52.5188 14.8665C52.5188 23.3617 59.4489 30.1969 67.8431 30.1969H107.569C116.061 30.1969 122.894 37.1297 122.894 45.5272C122.894 54.0224 115.964 60.8576 107.569 60.8576H35.8279C27.5313 60.8576 20.4059 67.2046 20.0155 75.5045C19.6251 84.2926 26.6528 91.6161 35.3399 91.6161H56.6183C65.1101 91.6161 71.9426 98.5489 71.9426 106.946C71.9426 115.442 65.0125 122.277 56.6183 122.277H46.1743C37.6824 122.277 30.8499 129.21 30.8499 137.607C30.8499 146.102 37.78 152.938 46.1743 152.938H160.082C168.574 152.938 175.406 159.87 175.406 168.268C175.406 176.763 168.476 183.598 160.082 183.598H152.957C144.465 183.598 137.632 190.531 137.632 198.929C137.632 207.424 144.562 214.259 152.957 214.259H252.028C260.52 214.259 267.352 221.192 267.352 229.59C267.352 238.085 260.422 244.92 252.028 244.92H93.709C85.4124 244.92 78.2871 251.267 77.8967 259.567C77.5062 268.355 84.534 275.678 93.221 275.678H130.214C138.706 275.678 145.539 282.611 145.539 291.009C145.539 299.504 138.608 306.339 130.214 306.339H42.9532C34.4614 306.339 27.6289 313.272 27.6289 321.67C27.6289 330.165 34.559 337 42.9532 337H274.673C283.165 337 289.997 330.067 289.997 321.67C289.997 313.174 283.067 306.339 274.673 306.339H250.076C241.584 306.339 234.752 299.406 234.752 291.009C234.752 282.514 241.682 275.678 250.076 275.678H401.172C409.469 275.678 416.594 269.331 416.984 261.032C417.375 252.243 410.347 244.92 401.66 244.92H389.069C380.577 244.92 373.744 237.987 373.744 229.59C373.647 221.68 380.577 214.845 389.069 214.845Z" fill="#4F0A82" fill-opacity="0.15" style="mix-blend-mode:multiply"/>
    <path d="M377.1 308.525H340.3C331.6 308.525 324.6 315.625 324.6 324.225C324.6 332.925 331.7 339.925 340.3 339.925H377.1C385.8 339.925 392.8 332.825 392.8 324.225C392.9 315.525 385.8 308.525 377.1 308.525Z" fill="#4F0A82" fill-opacity="0.15" style="mix-blend-mode:multiply"/>
    <path d="M212.774 316.001C239.397 316.001 260.98 310.111 260.98 302.846C260.98 295.58 239.397 289.69 212.774 289.69C186.151 289.69 164.568 295.58 164.568 302.846C164.568 310.111 186.151 316.001 212.774 316.001Z" fill="#49166E"/>
    <path d="M211.732 282.258C238.315 282.258 259.864 274.505 259.864 264.941C259.864 255.377 238.315 247.624 211.732 247.624C185.15 247.624 163.601 255.377 163.601 264.941C163.601 274.505 185.15 282.258 211.732 282.258Z" fill="#DA9899"/>
    <path d="M259.789 82.7765C259.789 82.7765 359.399 199.76 265.443 276.61H212.03V66.5742C212.03 66.5742 240.745 66.5742 259.789 82.7765Z" fill="#DA9899"/>
    <path d="M164.271 82.7765C164.271 82.7765 64.661 199.76 158.617 276.61H212.03V66.5742C212.03 66.5742 183.315 66.5742 164.271 82.7765Z" fill="#DA9899"/>
    <path d="M198.045 276.61V302.325H186.737C186.737 302.325 144.408 269.698 132.952 247.624C132.952 247.624 191.87 249.185 198.045 276.61Z" fill="#DA9899"/>
    <path d="M225.569 276.61V302.325H236.877C236.877 302.325 279.205 269.698 290.662 247.624C290.662 247.624 231.744 249.185 225.569 276.61Z" fill="#DA9899"/>
    <path d="M182.497 72.2967C182.497 72.2967 127.894 117.485 141.284 194.632C154.675 271.853 246.473 296.008 290.662 248.739C290.662 248.739 330.089 200.8 282.181 116.073C282.181 116.073 258.897 45.0946 182.497 72.2967Z" fill="#DFAEB4"/>
    <path d="M198.045 302.325C198.045 302.325 191.126 309.311 188.746 309.311C186.291 309.311 188.746 305.818 188.746 305.818C188.746 305.818 186.96 308.122 183.315 307.379C179.67 306.636 186.737 302.325 186.737 302.325C186.737 302.325 194.771 301.21 198.045 302.325Z" fill="#CC7272"/>
    <path d="M225.569 302.325C225.569 302.325 232.488 309.311 234.868 309.311C237.323 309.311 234.868 305.818 234.868 305.818C234.868 305.818 236.654 308.122 240.299 307.379C243.944 306.636 236.877 302.325 236.877 302.325C236.877 302.325 228.843 301.21 225.569 302.325Z" fill="#CC7272"/>
    <path d="M236.877 302.325C236.877 302.325 230.777 304.555 225.569 302.325C225.569 302.325 233.232 293.778 236.877 302.325Z" fill="#DA9899"/>
    <path d="M186.663 302.325C186.663 302.325 192.763 304.555 197.97 302.325C198.045 302.325 190.382 293.778 186.663 302.325Z" fill="#DA9899"/>
    <path d="M164.792 82.6277L146.268 112.877C146.268 112.877 128.266 111.762 127.373 98.9787C126.555 87.533 122.686 78.8373 122.686 78.8373C122.686 78.8373 130.2 77.6481 136.077 74.3779C142.028 71.0334 155.79 69.0267 164.792 82.6277Z" fill="#DA9899"/>
    <path d="M151.848 96.5257C151.327 96.5257 150.881 96.2284 150.657 95.7081C146.715 85.6746 137.564 87.9786 137.193 88.1272C136.523 88.2759 135.779 87.9043 135.63 87.2354C135.407 86.5665 135.853 85.8232 136.523 85.6746C136.672 85.6746 148.277 82.553 153.112 94.8163C153.335 95.4852 153.038 96.2284 152.368 96.4514C152.145 96.4514 151.996 96.5257 151.848 96.5257Z" fill="#CC7272"/>
    <path d="M151.029 94.8167C150.881 94.8167 150.732 94.8167 150.583 94.7424C141.879 91.1749 137.788 94.3707 137.639 94.5194C137.118 94.9653 136.3 94.891 135.854 94.3708C135.407 93.8505 135.482 93.0329 136.002 92.587C136.225 92.4384 141.284 88.202 151.55 92.364C152.22 92.6613 152.517 93.4046 152.22 93.9991C152.071 94.5194 151.55 94.8167 151.029 94.8167Z" fill="#CC7272"/>
    <path d="M259.343 82.6277L277.866 112.877C277.866 112.877 295.869 111.762 296.762 98.9787C297.58 87.533 301.449 78.8373 301.449 78.8373C301.449 78.8373 293.935 77.6481 288.058 74.3779C282.107 71.0334 268.344 69.0267 259.343 82.6277Z" fill="#DFAEB4"/>
    <path d="M272.287 96.5257C272.138 96.5257 271.99 96.5257 271.841 96.4514C271.171 96.2284 270.874 95.4852 271.097 94.8163C275.858 82.553 287.537 85.6746 287.686 85.6746C288.356 85.8976 288.728 86.5665 288.579 87.2354C288.356 87.9043 287.686 88.2759 287.017 88.1272C286.645 88.0529 277.494 85.6746 273.552 95.7081C273.254 96.2284 272.808 96.5257 272.287 96.5257Z" fill="#CC7272"/>
    <path d="M273.031 94.8163C272.51 94.8163 272.064 94.519 271.841 93.9987C271.543 93.3298 271.915 92.5866 272.51 92.3636C282.776 88.2016 287.835 92.3636 288.058 92.5866C288.579 93.0325 288.653 93.8501 288.207 94.3703C287.761 94.8906 286.942 94.9649 286.421 94.519C286.198 94.3703 282.181 91.1745 273.477 94.742C273.403 94.742 273.18 94.8163 273.031 94.8163Z" fill="#CC7272"/>
    <path d="M231.521 138.147C231.521 143.052 222.817 146.991 212.105 146.991C201.392 146.991 192.688 143.052 192.688 138.147C192.688 133.241 201.392 141.491 212.105 141.491C222.817 141.491 231.521 133.316 231.521 138.147Z" fill="#DA9899"/>
    <path d="M206.6 137.775C208.12 137.775 209.352 135.679 209.352 133.093C209.352 130.507 208.12 128.411 206.6 128.411C205.079 128.411 203.847 130.507 203.847 133.093C203.847 135.679 205.079 137.775 206.6 137.775Z" fill="#454F55"/>
    <path d="M217.461 137.775C218.981 137.775 220.213 135.678 220.213 133.092C220.213 130.506 218.981 128.41 217.461 128.41C215.941 128.41 214.708 130.506 214.708 133.092C214.708 135.678 215.941 137.775 217.461 137.775Z" fill="#454F55"/>
    <path d="M212.03 147.363C199.607 147.363 189.49 140.971 189.49 133.019C189.49 125.14 199.607 118.674 212.03 118.674C224.453 118.674 234.571 125.066 234.571 133.019C234.645 140.971 224.528 147.363 212.03 147.363ZM212.03 121.276C201.02 121.276 192.019 126.553 192.019 133.019C192.019 139.485 201.02 144.762 212.03 144.762C223.04 144.762 232.041 139.485 232.041 133.019C232.041 126.553 223.114 121.276 212.03 121.276Z" fill="#CC7272"/>
    <path d="M222.371 68.655C222.371 68.655 201.095 66.9456 194.251 73.6347C189.118 78.6886 216.717 64.8646 249.449 79.5805C259.715 84.1141 246.399 69.9928 222.371 68.655Z" fill="white"/>
    <path d="M189.192 73.1885C190.085 73.0398 192.093 72.5196 192.317 73.4114C192.465 74.3033 190.754 76.31 189.862 76.4587C188.969 76.6073 188.076 76.087 187.927 75.1209C187.704 74.229 188.299 73.3371 189.192 73.1885Z" fill="white"/>
    <path d="M211.584 122.613C211.584 122.613 201.095 121.796 197.747 125.066C195.218 127.519 208.831 120.755 224.974 127.965C230.033 130.269 223.486 123.282 211.584 122.613Z" fill="white"/>
    <path d="M212.03 254.313C237.092 254.313 257.409 234.015 257.409 208.976C257.409 183.937 237.092 163.639 212.03 163.639C186.968 163.639 166.651 183.937 166.651 208.976C166.651 234.015 186.968 254.313 212.03 254.313Z" fill="#DA9899"/>
    <path d="M212.03 250.819C238.037 250.819 259.12 229.756 259.12 203.773C259.12 177.79 238.037 156.727 212.03 156.727C186.023 156.727 164.94 177.79 164.94 203.773C164.94 229.756 186.023 250.819 212.03 250.819Z" fill="#E4AF70"/>
    <path d="M212.03 246.657C238.037 246.657 259.12 226.625 259.12 201.915C259.12 177.205 238.037 157.173 212.03 157.173C186.023 157.173 164.94 177.205 164.94 201.915C164.94 226.625 186.023 246.657 212.03 246.657Z" fill="#EFCE79"/>
    <path d="M212.03 240.86C233.559 240.86 251.011 223.424 251.011 201.915C251.011 180.407 233.559 162.97 212.03 162.97C190.501 162.97 173.049 180.407 173.049 201.915C173.049 223.424 190.501 240.86 212.03 240.86Z" fill="#EEDEA7"/>
    <path d="M231.844 207.103C232.644 207.103 233.324 207.363 233.884 207.883C234.444 208.403 234.724 209.063 234.724 209.863C234.724 210.663 234.444 211.323 233.884 211.843C233.324 212.363 232.644 212.623 231.844 212.623H229.024V222.223C229.024 223.743 228.604 224.903 227.764 225.703C226.924 226.503 225.884 226.903 224.644 226.903C223.804 226.903 223.024 226.663 222.304 226.183C221.584 225.703 221.024 224.903 220.624 223.783L212.764 203.383V222.823C212.764 224.103 212.404 225.103 211.684 225.823C211.004 226.543 210.084 226.903 208.924 226.903C207.764 226.903 206.844 226.543 206.164 225.823C205.484 225.103 205.144 224.103 205.144 222.823V212.623H202.324C201.524 212.623 200.844 212.363 200.284 211.843C199.724 211.323 199.444 210.663 199.444 209.863C199.444 209.063 199.724 208.403 200.284 207.883C200.844 207.363 201.524 207.103 202.324 207.103H205.144V203.383H202.324C201.524 203.383 200.844 203.123 200.284 202.603C199.724 202.083 199.444 201.423 199.444 200.623C199.444 199.823 199.724 199.163 200.284 198.643C200.844 198.123 201.524 197.863 202.324 197.863H205.144V188.563C205.144 187.083 205.564 185.943 206.404 185.143C207.244 184.343 208.284 183.943 209.524 183.943C210.324 183.943 211.084 184.183 211.804 184.663C212.524 185.143 213.084 185.943 213.484 187.063L221.344 208.843V187.963C221.344 186.723 221.704 185.743 222.424 185.023C223.144 184.303 224.064 183.943 225.184 183.943C226.344 183.943 227.264 184.303 227.944 185.023C228.664 185.743 229.024 186.723 229.024 187.963V197.863H231.844C232.644 197.863 233.324 198.123 233.884 198.643C234.444 199.163 234.724 199.823 234.724 200.623C234.724 201.423 234.444 202.083 233.884 202.603C233.324 203.123 232.644 203.383 231.844 203.383H229.024V207.103H231.844Z" fill="#B92199"/>
    <path d="M257.186 204.59C257.186 204.59 259.12 187.794 245.878 173.226C240.894 167.726 267.005 198.868 249.746 224.063C244.539 231.644 257.26 224.286 257.186 204.59Z" fill="white"/>
    <path d="M133.027 168.99C133.027 168.99 138.904 185.118 151.104 195.077C165.312 206.672 190.085 216.557 194.474 220.867C194.474 220.867 199.161 224.212 197.152 231.421C197.152 231.421 171.338 259.738 122.761 215.219C122.686 215.219 127.447 182.666 133.027 168.99Z" fill="#DA9899"/>
    <path d="M197.078 231.422C197.078 231.422 200.425 232.908 204.517 231.273C208.608 229.712 198.64 226.294 198.64 226.294C198.64 226.294 203.252 223.692 203.103 219.679C202.955 215.74 194.4 220.794 194.4 220.794C194.4 220.794 197.003 224.212 197.078 231.422Z" fill="#CC7272"/>
    <path d="M242.456 129.154C240.448 127.37 237.77 127.742 237.621 127.742C236.951 127.816 236.43 128.485 236.505 129.154C236.579 129.823 237.249 130.343 237.918 130.269C237.918 130.269 238.365 130.194 238.885 130.269C238.811 142.606 226.685 152.565 211.807 152.565C197.003 152.565 184.877 142.606 184.729 130.343C185.472 130.194 186.068 130.269 186.068 130.269C186.737 130.343 187.407 129.897 187.481 129.154C187.555 128.485 187.109 127.816 186.365 127.742C186.216 127.742 183.538 127.37 181.53 129.154C180.191 130.343 179.521 132.127 179.521 134.431C179.521 135.1 180.116 135.694 180.786 135.694C181.455 135.694 182.05 135.1 182.05 134.431C182.05 133.762 182.125 133.167 182.274 132.647C183.761 145.282 196.408 155.167 211.733 155.167C227.355 155.167 240.15 144.91 241.266 131.978C241.638 132.647 241.787 133.464 241.787 134.431C241.787 135.1 242.382 135.694 243.051 135.694C243.721 135.694 244.316 135.1 244.316 134.431C244.465 132.127 243.795 130.343 242.456 129.154Z" fill="#CC7272"/>
    <path d="M261.947 146.099C270.575 146.099 277.569 139.111 277.569 130.491C277.569 121.871 270.575 114.883 261.947 114.883C253.319 114.883 246.325 121.871 246.325 130.491C246.325 139.111 253.319 146.099 261.947 146.099Z" fill="#CF8483"/>
    <path d="M162.188 146.099C170.816 146.099 177.81 139.111 177.81 130.492C177.81 121.872 170.816 114.884 162.188 114.884C153.56 114.884 146.566 121.872 146.566 130.492C146.566 139.111 153.56 146.099 162.188 146.099Z" fill="#CF8483"/>
    <path d="M240.522 124.694C244.672 124.694 248.036 119.337 248.036 112.728C248.036 106.12 244.672 100.762 240.522 100.762C236.373 100.762 233.009 106.12 233.009 112.728C233.009 119.337 236.373 124.694 240.522 124.694Z" fill="#454F55"/>
    <path d="M241.936 111.539C243.661 111.539 245.06 110.141 245.06 108.417C245.06 106.693 243.661 105.296 241.936 105.296C240.21 105.296 238.811 106.693 238.811 108.417C238.811 110.141 240.21 111.539 241.936 111.539Z" fill="white"/>
    <path d="M183.613 124.695C187.762 124.695 191.126 119.337 191.126 112.729C191.126 106.12 187.762 100.763 183.613 100.763C179.463 100.763 176.099 106.12 176.099 112.729C176.099 119.337 179.463 124.695 183.613 124.695Z" fill="#454F55"/>
    <path d="M183.985 111.539C185.71 111.539 187.109 110.141 187.109 108.417C187.109 106.693 185.71 105.295 183.985 105.295C182.259 105.295 180.86 106.693 180.86 108.417C180.86 110.141 182.259 111.539 183.985 111.539Z" fill="white"/>
    <path d="M169.032 163.49H166.949V161.409C166.949 160.666 166.354 159.997 165.536 159.997C164.792 159.997 164.122 160.592 164.122 161.409V163.49H162.039C161.295 163.49 160.626 164.085 160.626 164.828C160.626 165.571 161.221 166.24 162.039 166.24H164.122V168.321C164.122 169.064 164.717 169.733 165.536 169.733C166.279 169.733 166.949 169.139 166.949 168.321V166.24H169.032C169.776 166.24 170.445 165.646 170.445 164.828C170.371 164.085 169.776 163.49 169.032 163.49Z" fill="#FEFAEF"/>
    <path d="M262.021 238.779H259.938V236.698C259.938 235.955 259.343 235.286 258.525 235.286C257.781 235.286 257.111 235.881 257.111 236.698V238.779H255.028C254.284 238.779 253.615 239.374 253.615 240.191C253.615 241.009 254.21 241.529 255.028 241.529H257.111V243.61C257.111 244.353 257.706 244.948 258.525 244.948C259.269 244.948 259.938 244.353 259.938 243.61V241.529H262.021C262.765 241.529 263.36 240.935 263.36 240.191C263.36 239.448 262.765 238.779 262.021 238.779Z" fill="#FEFAEF"/>
    <path d="M288.877 222.206C288.877 222.206 283.074 206.078 270.874 196.044C256.665 184.376 231.967 174.417 227.652 170.106C227.652 170.106 222.966 166.761 225.049 159.552C225.049 159.552 254.805 133.093 299.366 176.052C299.366 175.977 294.53 208.531 288.877 222.206Z" fill="#DFAEB4"/>
    <path d="M227.057 158.437C227.057 158.437 224.528 155.762 220.139 155.613C215.75 155.465 223.561 162.525 223.561 162.525C223.561 162.525 218.279 163.12 216.866 166.836C215.452 170.552 226.462 169.066 226.462 169.066C226.462 169.066 224.305 165.126 227.057 158.437Z" fill="#CC7272"/>
    <path d="M279.131 157.62C279.131 157.62 262.691 149.147 237.993 153.235C219.246 156.282 223.784 171.072 232.265 173.971C244.093 178.059 268.196 192.18 273.403 198.2C273.403 198.2 265.592 184.896 251.978 179.991C234.124 173.525 228.396 172.559 227.876 164.532C227.28 156.58 249.226 151.005 279.131 157.62Z" fill="#DA9899"/>
    <path d="M287.24 129.822C287.835 131.309 289.174 134.505 287.761 135.099C286.273 135.694 282.553 133.315 281.958 131.903C281.363 130.417 282.107 128.782 283.595 128.262C285.082 127.593 286.719 128.336 287.24 129.822Z" fill="white"/>
    <path d="M301.895 183.632C301.895 183.632 296.613 144.612 287.984 138.369C278.164 131.234 306.805 170.328 297.134 226.07C293.861 244.799 305.094 212.469 301.895 183.632Z" fill="white"/>
    <path d="M255.103 132.796C254.805 132.796 254.433 132.647 254.21 132.424C253.689 131.904 253.689 131.087 254.21 130.641L256.591 128.262C257.111 127.742 257.93 127.742 258.376 128.262C258.897 128.783 258.897 129.6 258.376 130.046L255.995 132.424C255.772 132.647 255.4 132.796 255.103 132.796Z" fill="#CC7272"/>
    <path d="M261.5 132.795C261.203 132.795 260.831 132.647 260.608 132.424C260.087 131.904 260.087 131.086 260.608 130.64L262.988 128.262C263.509 127.742 264.327 127.742 264.774 128.262C265.294 128.782 265.294 129.6 264.774 130.046L262.393 132.424C262.095 132.647 261.798 132.795 261.5 132.795Z" fill="#CC7272"/>
    <path d="M267.749 132.795C267.452 132.795 267.08 132.647 266.856 132.424C266.336 131.904 266.336 131.086 266.856 130.64L269.237 128.262C269.758 127.742 270.576 127.742 271.022 128.262C271.543 128.782 271.543 129.6 271.022 130.046L268.642 132.424C268.344 132.647 268.047 132.795 267.749 132.795Z" fill="#CC7272"/>
    <path d="M154.674 132.796C154.377 132.796 154.005 132.647 153.782 132.424C153.261 131.904 153.261 131.087 153.782 130.641L156.162 128.262C156.683 127.742 157.501 127.742 157.948 128.262C158.468 128.783 158.468 129.6 157.948 130.046L155.567 132.424C155.344 132.647 154.972 132.796 154.674 132.796Z" fill="#CC7272"/>
    <path d="M161.072 132.795C160.775 132.795 160.403 132.647 160.179 132.424C159.659 131.904 159.659 131.086 160.179 130.64L162.56 128.262C163.081 127.742 163.899 127.742 164.345 128.262C164.866 128.782 164.866 129.6 164.345 130.046L161.965 132.424C161.667 132.647 161.37 132.795 161.072 132.795Z" fill="#CC7272"/>
    <path d="M167.247 132.795C166.949 132.795 166.577 132.647 166.354 132.424C165.833 131.904 165.833 131.086 166.354 130.64L168.734 128.262C169.255 127.742 170.074 127.742 170.52 128.262C171.041 128.782 171.041 129.6 170.52 130.046L168.139 132.424C167.916 132.647 167.619 132.795 167.247 132.795Z" fill="#CC7272"/>
    <path d="M336.338 102.249H334.255V100.168C334.255 99.4243 333.66 98.7554 332.842 98.7554C332.098 98.7554 331.428 99.35 331.428 100.168V102.249H329.345C328.601 102.249 327.932 102.843 327.932 103.661C327.932 104.478 328.527 104.998 329.345 104.998H331.428V107.08C331.428 107.823 332.023 108.417 332.842 108.417C333.586 108.417 334.255 107.823 334.255 107.08V104.998H336.338C337.082 104.998 337.677 104.404 337.677 103.661C337.677 102.917 337.082 102.249 336.338 102.249Z" fill="#FFDB93"/>
    <path d="M347.422 203.252H345.339V201.171C345.339 200.428 344.744 199.759 343.926 199.759C343.182 199.759 342.513 200.354 342.513 201.171V203.252H340.504C339.76 203.252 339.091 203.847 339.091 204.665C339.091 205.408 339.686 206.002 340.504 206.002H342.587V208.083C342.587 208.827 343.182 209.421 344 209.421C344.744 209.421 345.414 208.827 345.414 208.083V206.002H347.497C348.241 206.002 348.836 205.408 348.836 204.665C348.761 203.921 348.166 203.252 347.422 203.252Z" fill="#FFDB93"/>
    <path d="M254.508 59.8843H252.425V57.8032C252.425 57.06 251.829 56.3911 251.011 56.3911C250.267 56.3911 249.598 56.9857 249.598 57.8032V59.8843H247.515C246.771 59.8843 246.101 60.4789 246.101 61.2964C246.101 62.0396 246.696 62.6342 247.515 62.6342H249.598V64.7152C249.598 65.4585 250.193 66.0531 251.011 66.0531C251.755 66.0531 252.425 65.4585 252.425 64.7152V62.6342H254.508C255.251 62.6342 255.847 62.0396 255.847 61.2964C255.847 60.5532 255.251 59.8843 254.508 59.8843Z" fill="#FFDB93"/>
    <path d="M111.528 73.3369H109.445V71.2559C109.445 70.5126 108.849 69.8438 108.031 69.8438C107.287 69.8438 106.618 70.4383 106.618 71.2559V73.3369H104.535C103.791 73.3369 103.121 73.9315 103.121 74.749C103.121 75.4923 103.716 76.0868 104.535 76.0868H106.618V78.1679C106.618 78.9111 107.213 79.5057 108.031 79.5057C108.775 79.5057 109.445 78.9111 109.445 78.1679V76.0868H111.528C112.271 76.0868 112.867 75.4923 112.867 74.749C112.941 73.9315 112.271 73.3369 111.528 73.3369Z" fill="#FFDB93"/>
    <path d="M74.2574 193.442H72.1745V191.361C72.1745 190.618 71.5793 189.949 70.761 189.949C70.0171 189.949 69.3476 190.543 69.3476 191.361V193.442H67.4134C66.6695 193.442 66 194.036 66 194.854C66 195.597 66.5951 196.192 67.4134 196.192H69.4964V198.273C69.4964 199.016 70.0915 199.611 70.9098 199.611C71.6537 199.611 72.3233 199.016 72.3233 198.273V196.192H74.4062C75.1501 196.192 75.7453 195.597 75.7453 194.854C75.6709 194.036 75.0757 193.442 74.2574 193.442Z" fill="#FFDB93"/>
    <path d="M117.181 263.528H115.098V261.447C115.098 260.704 114.503 260.035 113.685 260.035C112.941 260.035 112.271 260.629 112.271 261.447V263.528H110.188C109.445 263.528 108.775 264.122 108.775 264.94C108.775 265.683 109.37 266.278 110.188 266.278H112.271V268.359C112.271 269.102 112.867 269.697 113.685 269.697C114.429 269.697 115.098 269.102 115.098 268.359V266.278H117.181C117.925 266.278 118.52 265.683 118.52 264.94C118.595 264.197 117.925 263.528 117.181 263.528Z" fill="#FFDB93"/>
    <path d="M314.244 249.481H312.161V247.4C312.161 246.657 311.566 245.988 310.747 245.988C310.004 245.988 309.334 246.583 309.334 247.4V249.481H307.251C306.507 249.481 305.838 250.076 305.838 250.894C305.838 251.637 306.433 252.231 307.251 252.231H309.334V254.312C309.334 255.056 309.929 255.65 310.747 255.65C311.491 255.65 312.161 255.056 312.161 254.312V252.231H314.244C314.988 252.231 315.583 251.637 315.583 250.894C315.583 250.076 314.988 249.481 314.244 249.481Z" fill="#FFDB93"/>
    <path d="M90.7723 192.773C91.5529 192.773 92.1858 192.141 92.1858 191.361C92.1858 190.581 91.5529 189.949 90.7723 189.949C89.9917 189.949 89.3589 190.581 89.3589 191.361C89.3589 192.141 89.9917 192.773 90.7723 192.773Z" fill="#FFDB93"/>
    <path d="M84.821 114.214C85.6016 114.214 86.2345 113.582 86.2345 112.802C86.2345 112.022 85.6016 111.39 84.821 111.39C84.0404 111.39 83.4076 112.022 83.4076 112.802C83.4076 113.582 84.0404 114.214 84.821 114.214Z" fill="#FFDB93"/>
    <path d="M127.001 120.16C127.781 120.16 128.414 119.527 128.414 118.748C128.414 117.968 127.781 117.335 127.001 117.335C126.22 117.335 125.587 117.968 125.587 118.748C125.587 119.527 126.22 120.16 127.001 120.16Z" fill="#FFDB93"/>
    <path d="M180.935 54.3843C181.715 54.3843 182.348 53.7521 182.348 52.9722C182.348 52.1923 181.715 51.5601 180.935 51.5601C180.154 51.5601 179.521 52.1923 179.521 52.9722C179.521 53.7521 180.154 54.3843 180.935 54.3843Z" fill="#FFDB93"/>
    <path d="M299.366 62.7085C300.146 62.7085 300.779 62.0763 300.779 61.2964C300.779 60.5165 300.146 59.8843 299.366 59.8843C298.585 59.8843 297.952 60.5165 297.952 61.2964C297.952 62.0763 298.585 62.7085 299.366 62.7085Z" fill="#FFDB93"/>
    <path d="M339.09 129.079C339.871 129.079 340.504 128.446 340.504 127.667C340.504 126.887 339.871 126.254 339.09 126.254C338.31 126.254 337.677 126.887 337.677 127.667C337.677 128.446 338.31 129.079 339.09 129.079Z" fill="#FFDB93"/>
    <path d="M302.49 120.16C303.271 120.16 303.903 119.527 303.903 118.748C303.903 117.968 303.271 117.335 302.49 117.335C301.709 117.335 301.077 117.968 301.077 118.748C301.077 119.527 301.709 120.16 302.49 120.16Z" fill="#FFDB93"/>
    <path d="M318.41 171.74C318.862 171.74 319.228 171.374 319.228 170.922C319.228 170.471 318.862 170.104 318.41 170.104C317.958 170.104 317.591 170.471 317.591 170.922C317.591 171.374 317.958 171.74 318.41 171.74Z" fill="#FFDB93"/>
    <path d="M322.501 83.5931C322.953 83.5931 323.32 83.2271 323.32 82.7756C323.32 82.324 322.953 81.958 322.501 81.958C322.049 81.958 321.683 82.324 321.683 82.7756C321.683 83.2271 322.049 83.5931 322.501 83.5931Z" fill="#FFDB93"/>
    <path d="M202.508 53.7894C202.96 53.7894 203.326 53.4234 203.326 52.9718C203.326 52.5203 202.96 52.1543 202.508 52.1543C202.056 52.1543 201.69 52.5203 201.69 52.9718C201.69 53.4234 202.056 53.7894 202.508 53.7894Z" fill="#FFDB93"/>
    <path d="M104.088 109.234C104.54 109.234 104.907 108.868 104.907 108.417C104.907 107.965 104.54 107.599 104.088 107.599C103.636 107.599 103.27 107.965 103.27 108.417C103.27 108.868 103.636 109.234 104.088 109.234Z" fill="#FFDB93"/>
    <path d="M75.671 218.191C76.1229 218.191 76.4893 217.825 76.4893 217.374C76.4893 216.922 76.1229 216.556 75.671 216.556C75.219 216.556 74.8527 216.922 74.8527 217.374C74.8527 217.825 75.219 218.191 75.671 218.191Z" fill="#FFDB93"/>
    <path d="M108.924 163.342C109.376 163.342 109.742 162.976 109.742 162.524C109.742 162.073 109.376 161.707 108.924 161.707C108.472 161.707 108.105 162.073 108.105 162.524C108.105 162.976 108.472 163.342 108.924 163.342Z" fill="#FFDB93"/>
    <path d="M112.941 241.678C113.393 241.678 113.759 241.312 113.759 240.86C113.759 240.409 113.393 240.042 112.941 240.042C112.489 240.042 112.123 240.409 112.123 240.86C112.123 241.312 112.489 241.678 112.941 241.678Z" fill="#FFDB93"/>
    <path d="M162.188 299.352C162.64 299.352 163.006 298.986 163.006 298.534C163.006 298.083 162.64 297.717 162.188 297.717C161.736 297.717 161.37 298.083 161.37 298.534C161.37 298.986 161.736 299.352 162.188 299.352Z" fill="#FFDB93"/>
    <path d="M294.976 257.285C295.428 257.285 295.795 256.919 295.795 256.467C295.795 256.016 295.428 255.65 294.976 255.65C294.524 255.65 294.158 256.016 294.158 256.467C294.158 256.919 294.524 257.285 294.976 257.285Z" fill="#FFDB93"/>
    <path d="M277.569 290.433C278.021 290.433 278.387 290.067 278.387 289.615C278.387 289.164 278.021 288.798 277.569 288.798C277.117 288.798 276.751 289.164 276.751 289.615C276.751 290.067 277.117 290.433 277.569 290.433Z" fill="#FFDB93"/>
    <path d="M150.657 55.202C151.109 55.202 151.476 54.836 151.476 54.3844C151.476 53.9329 151.109 53.5669 150.657 53.5669C150.205 53.5669 149.839 53.9329 149.839 54.3844C149.839 54.836 150.205 55.202 150.657 55.202Z" fill="#FFDB93"/>
    <path d="M340.578 219.827C341.03 219.827 341.397 219.46 341.397 219.009C341.397 218.557 341.03 218.191 340.578 218.191C340.126 218.191 339.76 218.557 339.76 219.009C339.76 219.46 340.126 219.827 340.578 219.827Z" fill="#FFDB93"/>
    <path d="M349.58 160.814C350.032 160.814 350.398 160.448 350.398 159.996C350.398 159.545 350.032 159.179 349.58 159.179C349.128 159.179 348.761 159.545 348.761 159.996C348.761 160.448 349.128 160.814 349.58 160.814Z" fill="#FFDB93"/>
    <path d="M89.3588 240.86C89.8108 240.86 90.1771 240.494 90.1771 240.042C90.1771 239.591 89.8108 239.225 89.3588 239.225C88.9069 239.225 88.5405 239.591 88.5405 240.042C88.5405 240.494 88.9069 240.86 89.3588 240.86Z" fill="#FFDB93"/>
    <path d="M112.123 217.374C112.575 217.374 112.941 217.008 112.941 216.556C112.941 216.105 112.575 215.739 112.123 215.739C111.671 215.739 111.304 216.105 111.304 216.556C111.304 217.008 111.671 217.374 112.123 217.374Z" fill="#FFDB93"/>
    <path d="M310.748 131.308C311.199 131.308 311.566 130.942 311.566 130.491C311.566 130.039 311.199 129.673 310.748 129.673C310.296 129.673 309.929 130.039 309.929 130.491C309.929 130.942 310.296 131.308 310.748 131.308Z" fill="#FFDB93"/>
    <path d="M276.751 56.0194C277.202 56.0194 277.569 55.6533 277.569 55.2018C277.569 54.7503 277.202 54.3843 276.751 54.3843C276.299 54.3843 275.932 54.7503 275.932 55.2018C275.932 55.6533 276.299 56.0194 276.751 56.0194Z" fill="#FFDB93"/>
    <path d="M321.088 211.799C321.868 211.799 322.501 211.167 322.501 210.387C322.501 209.607 321.868 208.975 321.088 208.975C320.307 208.975 319.674 209.607 319.674 210.387C319.674 211.167 320.307 211.799 321.088 211.799Z" fill="#FFDB93"/>
    <path d="M75.6709 153.531C76.4515 153.531 77.0843 152.899 77.0843 152.119C77.0843 151.339 76.4515 150.707 75.6709 150.707C74.8903 150.707 74.2574 151.339 74.2574 152.119C74.2574 152.899 74.8903 153.531 75.6709 153.531Z" fill="#FFDB93"/>
    <path d="M297.952 276.386C298.733 276.386 299.366 275.754 299.366 274.974C299.366 274.194 298.733 273.562 297.952 273.562C297.172 273.562 296.539 274.194 296.539 274.974C296.539 275.754 297.172 276.386 297.952 276.386Z" fill="#FFDB93"/>
    <path d="M132.952 285.082C133.733 285.082 134.366 284.449 134.366 283.669C134.366 282.89 133.733 282.257 132.952 282.257C132.172 282.257 131.539 282.89 131.539 283.669C131.539 284.449 132.172 285.082 132.952 285.082Z" fill="#FFDB93"/>
    <path d="M340.578 194.26C341.359 194.26 341.992 193.628 341.992 192.848C341.992 192.068 341.359 191.436 340.578 191.436C339.798 191.436 339.165 192.068 339.165 192.848C339.165 193.628 339.798 194.26 340.578 194.26Z" fill="#FFDB93"/>
    <path d="M260.161 294.595C260.942 294.595 261.575 293.963 261.575 293.183C261.575 292.403 260.942 291.771 260.161 291.771C259.381 291.771 258.748 292.403 258.748 293.183C258.748 293.963 259.381 294.595 260.161 294.595Z" fill="#FFDB93"/>
    <path d="M128.414 61.2217C129.195 61.2217 129.828 60.5895 129.828 59.8096C129.828 59.0297 129.195 58.3975 128.414 58.3975C127.634 58.3975 127.001 59.0297 127.001 59.8096C127.001 60.5895 127.634 61.2217 128.414 61.2217Z" fill="#FFDB93"/>
</svg>