<svg width="130" height="108" viewBox="0 0 130 108" fill="none" xmlns="http://www.w3.org/2000/svg">
<path d="M21.5929 66.9338C28.5223 66.5945 34.5008 68.4898 39.5283 72.6197C44.5558 76.7495 47.5872 82.455 48.6223 89.7363C49.7475 97.6506 48.3386 104.472 44.3955 110.2C40.4073 115.612 34.8381 118.826 27.6878 119.842C19.6048 120.992 12.6487 118.912 6.8194 113.605C1.30099 108.253 -2.35838 99.2451 -4.15871 86.5821C-7.62435 62.2058 -2.68987 40.0265 10.6447 20.0442C13.3035 16.4364 16.6536 14.3452 20.6951 13.7707C24.1148 13.2845 27.2482 14.1309 30.0954 16.3099C32.8975 18.1723 34.5236 20.6864 34.9737 23.8522C35.4688 27.3345 34.6528 30.5188 32.5258 33.405C25.6581 43.1017 22.0137 54.2779 21.5929 66.9338ZM99.0029 55.9282C105.932 55.5889 111.911 57.4842 116.938 61.6141C121.966 65.7439 124.997 71.4495 126.032 78.7307C127.158 86.6451 125.749 93.4664 121.805 99.1946C117.817 104.606 112.248 107.82 105.098 108.837C97.0148 109.986 90.0587 107.907 84.2294 102.599C78.711 97.2471 75.0516 88.2396 73.2513 75.5766C69.7856 51.2003 74.7201 29.0209 88.0547 9.03858C90.7135 5.43084 94.0636 3.33967 98.1051 2.76509C101.525 2.2789 104.658 3.12531 107.505 5.30432C110.307 7.16675 111.934 9.68083 112.384 12.8466C112.879 16.3289 112.063 19.5132 109.936 22.3994C103.068 32.0961 99.4237 43.2723 99.0029 55.9282Z" fill="white" fill-opacity="0.05"/>
</svg>
