<svg width="834" height="171" viewBox="0 0 834 171" fill="none" xmlns="http://www.w3.org/2000/svg">
<path d="M55.9766 20.1367C56.0677 23.9648 54.7005 26.0156 51.875 26.2891C49.0495 26.5625 46.9531 25.0586 45.5859 21.7773C46.1328 20.319 46.3607 18.9518 46.2695 17.6758C46.0872 16.3997 45.7227 15.306 45.1758 14.3945C43.9909 12.4805 42.2135 11.2044 39.8438 10.5664C37.474 9.92839 35.1953 10.0195 33.0078 10.8398C31.9141 11.2956 30.8659 12.0247 29.8633 13.0273C28.9518 13.9388 28.2682 15.1693 27.8125 16.7188C27.0833 18.9062 27.1289 21.4128 27.9492 24.2383C28.6784 26.9727 29.9544 29.8893 31.7773 32.9883C35.1497 38.8216 39.6159 45.1107 45.1758 51.8555C50.8268 58.6003 55.8398 65.3451 60.2148 72.0898C63.1315 76.556 65.5469 80.931 67.4609 85.2148C69.0104 89.043 69.8307 92.7344 69.9219 96.2891C69.9219 96.7448 69.8763 97.2005 69.7852 97.6562C69.5117 103.125 68.5091 107.773 66.7773 111.602C65.0456 115.43 62.8125 118.574 60.0781 121.035C54.974 125.501 48.7305 127.78 41.3477 127.871H40.1172C33.099 127.871 26.3086 126.641 19.7461 124.18C16.6471 123.086 14.0039 121.491 11.8164 119.395C9.62891 117.389 7.76042 115.111 6.21094 112.559C3.47656 107.91 1.74479 102.897 1.01562 97.5195C0.377604 93.5091 0.0585938 90.1367 0.0585938 87.4023C0.0585938 86.4909 0.104167 85.625 0.195312 84.8047C0.377604 83.2552 0.742188 81.888 1.28906 80.7031C1.92708 79.5182 2.61068 78.5156 3.33984 77.6953C5.80078 75.1432 8.6263 74.0951 11.8164 74.5508C15.0065 75.0065 16.556 76.875 16.4648 80.1562C13.8216 81.7969 12.5456 84.3945 12.6367 87.9492C12.819 91.5039 14.0039 94.9674 16.1914 98.3398C17.6497 100.618 19.4727 102.624 21.6602 104.355C23.8477 106.178 26.263 107.454 28.9062 108.184C31.0938 108.822 33.418 108.958 35.8789 108.594C38.3398 108.229 40.8008 107.227 43.2617 105.586C44.9023 104.492 45.9961 103.171 46.543 101.621C47.0898 99.9805 47.181 98.1576 46.8164 96.1523C46.3607 92.4154 44.7201 88.0404 41.8945 83.0273C39.1602 78.0143 36.0612 72.7279 32.5977 67.168C29.7721 62.5195 26.901 57.7799 23.9844 52.9492C21.1589 48.1185 18.7435 43.4245 16.7383 38.8672C14.7331 34.401 13.3659 30.1628 12.6367 26.1523C11.8164 22.1419 11.9531 18.4505 13.0469 15.0781C14.0495 12.2526 15.4167 9.83724 17.1484 7.83203C18.8802 5.91797 20.8398 4.36849 23.0273 3.18359C25.3971 1.9987 27.9036 1.22396 30.5469 0.859375C31.7318 0.677083 32.9167 0.585938 34.1016 0.585938C35.5599 0.585938 36.9727 0.722656 38.3398 0.996094C43.1706 1.81641 47.3633 3.86719 50.918 7.14844C54.4727 10.5208 56.1589 14.8503 55.9766 20.1367Z" fill="#C4C4C4" fill-opacity="0.14"/>
<path d="M125.566 58.1445C126.113 55.5013 127.891 54.1797 130.898 54.1797H132.402C136.23 54.6354 138.965 56.3672 140.605 59.375C141.061 60.3776 141.335 61.5169 141.426 62.793C141.517 63.9779 141.289 65.2995 140.742 66.7578C139.193 68.3984 137.643 72.3633 136.094 78.6523C134.635 85.0326 133.405 91.9596 132.402 99.4336C131.947 102.715 131.536 105.951 131.172 109.141C130.898 112.331 130.671 115.43 130.488 118.438C130.215 123.815 130.215 128.418 130.488 132.246C130.762 135.983 131.445 138.034 132.539 138.398C134.544 139.036 137.461 136.484 141.289 130.742C145.026 125 148.854 118.392 152.773 110.918C155.326 105.905 157.786 100.938 160.156 96.0156C162.435 91.0938 164.349 86.901 165.898 83.4375C166.81 83.0729 167.767 82.8906 168.77 82.8906C169.772 82.8906 170.684 82.9818 171.504 83.1641C169.863 86.901 167.767 91.6862 165.215 97.5195C162.754 103.353 159.974 109.232 156.875 115.156C153.867 120.99 150.677 126.458 147.305 131.562C143.932 136.667 140.514 140.54 137.051 143.184C135.228 144.642 133.405 145.69 131.582 146.328C130.671 146.602 129.759 146.738 128.848 146.738C127.936 146.738 127.07 146.602 126.25 146.328C123.151 145.326 120.645 143.639 118.73 141.27C116.816 138.991 115.358 136.393 114.355 133.477C112.533 127.917 111.803 122.038 112.168 115.84C112.533 109.551 112.988 104.948 113.535 102.031C113.262 102.122 112.441 103.49 111.074 106.133C109.707 108.685 107.884 111.374 105.605 114.199C104.329 115.749 102.962 117.161 101.504 118.438C99.9544 119.805 98.3594 120.898 96.7188 121.719C94.6224 122.721 92.3893 123.177 90.0195 123.086C87.6497 123.086 85.1888 122.174 82.6367 120.352C80.8138 119.076 79.3555 117.435 78.2617 115.43C77.2591 113.424 76.5755 111.191 76.2109 108.73C75.9375 107.272 75.8008 105.723 75.8008 104.082C75.8008 100.801 76.2565 97.2461 77.168 93.418C78.5352 87.8581 80.5859 82.526 83.3203 77.4219C86.0547 72.2266 89.3359 67.7604 93.1641 64.0234C96.9922 60.1953 100.957 57.9622 105.059 57.3242C106.061 57.1419 107.292 57.0508 108.75 57.0508C110.208 57.0508 111.712 57.1419 113.262 57.3242C116.087 57.5977 118.822 58.2357 121.465 59.2383C122.832 59.7852 123.926 60.4232 124.746 61.1523C125.111 59.8763 125.384 58.8737 125.566 58.1445ZM119.277 65.3906C117.637 65.3906 115.996 65.8008 114.355 66.6211C111.712 67.8971 109.251 69.9935 106.973 72.9102C104.694 75.918 102.734 79.1536 101.094 82.6172C98.6328 87.8125 97.1289 92.9622 96.582 98.0664C95.944 103.079 96.8555 106.224 99.3164 107.5C100.957 108.32 103.008 106.999 105.469 103.535C107.93 100.072 110.391 95.7878 112.852 90.6836C115.951 84.3945 118.73 77.9232 121.191 71.2695C121.921 69.3555 122.513 67.6693 122.969 66.2109C121.784 65.6641 120.553 65.3906 119.277 65.3906Z" fill="#C4C4C4" fill-opacity="0.14"/>
<path d="M176.562 56.0938C174.922 56.6406 174.512 59.1927 175.332 63.75C176.152 68.3073 177.611 73.5482 179.707 79.4727C181.348 84.1211 183.171 88.8151 185.176 93.5547C187.272 98.3854 189.186 102.487 190.918 105.859C191.921 107.773 192.832 109.414 193.652 110.781C194.473 112.057 195.156 113.014 195.703 113.652C196.159 113.014 197.07 110.781 198.438 106.953C199.167 104.583 199.941 102.077 200.762 99.4336C198.483 97.793 196.569 95.013 195.02 91.0938C193.014 85.9896 192.012 80.6576 192.012 75.0977C191.921 72.181 192.194 69.3555 192.832 66.6211C193.379 63.8867 194.336 61.5625 195.703 59.6484C196.615 58.2812 197.754 57.1875 199.121 56.3672C200.488 55.5469 202.038 55.0456 203.77 54.8633C207.78 54.681 210.833 55.4102 212.93 57.0508C215.026 58.7826 216.439 61.1523 217.168 64.1602C217.897 67.2591 217.988 70.9049 217.441 75.0977C216.895 79.3815 215.938 83.8021 214.57 88.3594C213.75 91.3672 212.793 94.375 211.699 97.3828L211.562 97.6562C211.745 97.5651 211.927 97.5195 212.109 97.5195C213.932 97.2461 215.71 96.7448 217.441 96.0156C220.723 94.5573 223.639 92.4609 226.191 89.7266C228.743 87.0833 230.475 84.8047 231.387 82.8906C232.48 82.6172 233.392 82.4349 234.121 82.3438C234.941 82.2526 235.807 82.4805 236.719 83.0273C235.534 85.944 233.483 89.1797 230.566 92.7344C227.65 96.2891 224.004 98.9323 219.629 100.664C217.259 101.576 214.707 102.077 211.973 102.168H209.922L208.281 106.133C206.094 111.328 203.906 116.022 201.719 120.215C199.531 124.408 197.799 127.37 196.523 129.102C196.068 129.375 195.339 129.512 194.336 129.512C193.698 129.512 192.923 129.466 192.012 129.375C189.824 129.01 187.591 128.418 185.312 127.598C184.036 127.233 182.852 126.777 181.758 126.23C180.664 125.684 179.753 125.091 179.023 124.453C176.289 120.26 173.783 115.794 171.504 111.055C169.225 106.315 167.174 101.576 165.352 96.8359C161.888 88.0859 159.29 79.9284 157.559 72.3633C156.1 65.8008 155.371 61.0156 155.371 58.0078V56.7773C155.371 54.4987 156.875 52.6302 159.883 51.1719C161.797 50.2604 163.711 49.8047 165.625 49.8047C166.901 49.8047 168.177 49.987 169.453 50.3516C170.82 50.7161 172.142 51.3997 173.418 52.4023C174.603 53.3138 175.651 54.5443 176.562 56.0938ZM206.23 77.9688C207.142 72.9557 207.051 70.5404 205.957 70.7227C205.046 70.8138 204.316 72.3633 203.77 75.3711C203.223 78.4701 202.995 81.7057 203.086 85.0781C203.086 86.7188 203.223 88.3138 203.496 89.8633C204.59 85.6706 205.501 81.7057 206.23 77.9688Z" fill="#C4C4C4" fill-opacity="0.14"/>
<path d="M250.527 67.0312C250.618 68.8542 250.482 71.7253 250.117 75.6445C249.661 79.5638 249.16 83.8021 248.613 88.3594C248.34 90.7292 248.066 93.1445 247.793 95.6055C247.611 97.9753 247.428 100.299 247.246 102.578C247.064 106.68 247.155 110.234 247.52 113.242C247.793 116.25 248.659 118.027 250.117 118.574C251.484 119.03 253.034 118.757 254.766 117.754C256.406 116.842 258.138 115.43 259.961 113.516C263.242 109.87 266.569 105.13 269.941 99.2969C273.314 93.4635 276.23 87.9948 278.691 82.8906C279.512 82.7083 280.378 82.5716 281.289 82.4805C282.109 82.4805 282.93 82.7539 283.75 83.3008C282.565 86.3997 280.97 89.9089 278.965 93.8281C277.051 97.7474 274.863 101.667 272.402 105.586C270.853 108.138 269.167 110.599 267.344 112.969C265.612 115.339 263.789 117.572 261.875 119.668C258.32 123.405 254.583 126.276 250.664 128.281C248.294 129.466 245.879 130.059 243.418 130.059C241.868 130.059 240.365 129.831 238.906 129.375C236.263 128.555 234.258 127.005 232.891 124.727C231.523 122.539 230.566 119.896 230.02 116.797C229.564 114.154 229.336 111.328 229.336 108.32C229.336 107.5 229.382 106.68 229.473 105.859C229.564 101.94 229.837 97.9753 230.293 93.9648C231.204 86.4909 232.116 79.6549 233.027 73.457C234.03 67.3503 233.757 63.7956 232.207 62.793C232.845 60.1497 235.033 58.5547 238.77 58.0078C239.59 57.9167 240.319 57.8711 240.957 57.8711C243.783 57.8711 246.152 58.7826 248.066 60.6055C248.887 61.2435 249.525 62.1094 249.98 63.2031C250.345 64.2969 250.527 65.5729 250.527 67.0312ZM252.988 33.6719V34.082C252.988 35.5404 252.214 36.9531 250.664 38.3203C249.023 39.6875 247.428 40.3711 245.879 40.3711H245.605C243.053 40.2799 240.319 39.5964 237.402 38.3203C234.395 37.1354 232.799 35.2669 232.617 32.7148V32.3047C232.617 30.1172 233.893 28.2031 236.445 26.5625C239.089 25.013 241.549 24.2383 243.828 24.2383H244.238C246.426 24.3294 248.385 25.3776 250.117 27.3828C251.849 29.4792 252.806 31.5755 252.988 33.6719Z" fill="#C4C4C4" fill-opacity="0.14"/>
<path d="M274.18 57.1875C275.182 56.276 276.413 55.7292 277.871 55.5469C279.329 55.3646 280.879 55.4102 282.52 55.6836C284.798 56.1393 286.986 57.0052 289.082 58.2812C291.087 59.5573 292.272 60.9701 292.637 62.5195C292.637 64.2513 292.728 66.8945 292.91 70.4492C293.457 69.5378 294.915 67.5326 297.285 64.4336C299.564 61.3346 302.389 58.6458 305.762 56.3672C307.585 55.0911 309.544 54.1341 311.641 53.4961C312.917 53.1315 314.193 52.9492 315.469 52.9492C316.289 52.9492 317.155 52.9948 318.066 53.0859C322.35 53.9062 325.312 57.5065 326.953 63.8867C328.594 70.2669 329.596 77.4219 329.961 85.3516C330.234 91.7318 330.326 98.0208 330.234 104.219C330.143 110.417 330.234 115.566 330.508 119.668C330.599 121.947 330.781 123.77 331.055 125.137C331.419 126.504 331.875 127.279 332.422 127.461C334.427 128.19 337.161 126.139 340.625 121.309C344.18 116.387 347.598 110.918 350.879 104.902C353.158 100.892 355.208 97.0182 357.031 93.2812C358.854 89.5443 360.221 86.6276 361.133 84.5312C362.044 84.2578 362.956 84.0755 363.867 83.9844C364.688 83.9844 365.553 84.349 366.465 85.0781C365.462 87.3568 363.867 90.7747 361.68 95.332C359.583 99.8893 357.122 104.629 354.297 109.551C352.747 112.103 351.152 114.655 349.512 117.207C347.871 119.759 346.23 122.129 344.59 124.316C341.4 128.418 338.164 131.608 334.883 133.887C332.604 135.527 330.371 136.348 328.184 136.348C327.272 136.348 326.361 136.211 325.449 135.938C321.986 134.753 319.251 132.839 317.246 130.195C315.15 127.552 313.555 124.453 312.461 120.898C311.276 117.161 310.547 113.151 310.273 108.867C310 104.492 309.954 100.117 310.137 95.7422C310.501 87.7214 311.139 80.5664 312.051 74.2773C312.962 67.9883 312.871 64.707 311.777 64.4336C309.772 63.8867 307.448 65.0716 304.805 67.9883C302.161 70.9049 299.837 74.3229 297.832 78.2422C296.465 80.8854 295.371 83.5286 294.551 86.1719C293.73 88.724 293.32 90.9115 293.32 92.7344C293.411 97.9297 293.548 105.677 293.73 115.977C292.637 118.255 290.768 119.987 288.125 121.172C285.482 122.266 282.93 122.493 280.469 121.855C279.102 121.582 277.871 120.944 276.777 119.941C275.592 119.03 274.681 117.754 274.043 116.113C274.043 112.65 274.18 108.822 274.453 104.629C274.635 100.436 274.863 96.1523 275.137 91.7773C275.592 83.7565 275.866 76.3281 275.957 69.4922C276.139 62.6562 275.547 58.5547 274.18 57.1875Z" fill="#C4C4C4" fill-opacity="0.14"/>
<path d="M396.133 58.0078C396.224 56.9141 396.497 56.0026 396.953 55.2734C397.409 54.5443 397.956 53.9974 398.594 53.6328C400.508 52.5391 402.832 52.8125 405.566 54.4531C408.392 56.0938 409.941 58.418 410.215 61.4258C410.124 74.0951 409.987 85.3971 409.805 95.332C409.714 100.527 409.577 105.358 409.395 109.824C411.035 108.001 412.767 106.087 414.59 104.082C420.605 97.4284 425.299 90.6836 428.672 83.8477C429.674 83.5742 430.586 83.4375 431.406 83.4375C432.227 83.5286 433.092 83.7565 434.004 84.1211C432.09 88.3138 429.72 92.4609 426.895 96.5625C423.978 100.664 420.924 104.629 417.734 108.457C414.818 112.012 411.901 115.384 408.984 118.574C408.893 119.668 408.848 120.716 408.848 121.719C408.118 135.938 406.706 146.647 404.609 153.848C402.513 160.957 399.277 165.788 394.902 168.34C392.259 169.798 389.889 170.527 387.793 170.527C386.061 170.527 384.557 169.98 383.281 168.887C380.365 166.426 378.861 162.643 378.77 157.539C378.77 154.805 379.18 151.842 380 148.652C380.911 145.371 382.324 142.044 384.238 138.672C385.514 136.484 387.292 134.023 389.57 131.289C391.211 129.375 393.034 127.324 395.039 125.137C394.948 120.488 394.811 116.159 394.629 112.148C394.447 108.047 394.355 104.993 394.355 102.988C393.991 104.72 392.624 107.363 390.254 110.918C387.793 114.473 384.831 117.344 381.367 119.531C379.909 120.443 378.359 121.126 376.719 121.582C375.169 122.038 373.574 122.083 371.934 121.719C367.923 120.898 364.596 119.395 361.953 117.207C359.31 115.02 357.305 112.422 355.938 109.414C354.388 106.315 353.477 102.852 353.203 99.0234C353.112 97.7474 353.066 96.4714 353.066 95.1953C353.066 92.6432 353.294 90 353.75 87.2656C354.844 79.8828 357.259 72.9557 360.996 66.4844C364.642 59.9219 368.698 55.5469 373.164 53.3594C375.716 52.1745 378.268 51.582 380.82 51.582C383.099 51.582 385.378 52.0833 387.656 53.0859C391.758 55 394.583 57.3242 396.133 60.0586V58.0078ZM392.031 63.0664C390.755 62.7018 389.525 62.8841 388.34 63.6133C386.243 64.8893 384.284 67.5781 382.461 71.6797C380.638 75.8724 379.134 80.3385 377.949 85.0781C376.491 91.0026 375.671 96.5169 375.488 101.621C375.306 106.725 376.035 109.551 377.676 110.098C379.681 110.645 382.142 108.639 385.059 104.082C388.066 99.5247 390.573 93.4635 392.578 85.8984C393.763 81.7969 394.674 77.3763 395.312 72.6367C395.586 70.6315 395.768 68.6263 395.859 66.6211C394.583 64.707 393.307 63.5221 392.031 63.0664ZM388.75 142.637C387.656 144.824 386.882 146.921 386.426 148.926C385.97 151.022 385.742 152.891 385.742 154.531C385.742 157.812 386.289 160.273 387.383 161.914C388.477 163.555 389.57 163.828 390.664 162.734C392.852 160.273 394.173 155.397 394.629 148.105C394.902 143.366 395.039 138.581 395.039 133.75C392.122 137.122 390.026 140.085 388.75 142.637Z" fill="#C4C4C4" fill-opacity="0.14"/>
<path d="M449.863 63.4766C449.134 65.7552 447.949 66.9401 446.309 67.0312C444.668 67.1224 442.982 66.849 441.25 66.2109C441.432 64.0234 441.296 62.2461 440.84 60.8789C440.384 59.4206 439.701 58.2812 438.789 57.4609C437.148 56.0026 435.234 55.5013 433.047 55.957C430.768 56.3216 429.173 57.4154 428.262 59.2383C427.533 60.6055 427.533 62.0182 428.262 63.4766C428.991 64.8438 430.267 66.3477 432.09 67.9883C435.371 70.9049 439.746 74.1406 445.215 77.6953C450.775 81.25 455.788 85.3516 460.254 90C463.171 93.099 465.54 96.3802 467.363 99.8438C468.548 99.1146 469.688 98.3854 470.781 97.6562C477.435 93.2812 481.582 89.043 483.223 84.9414C484.225 84.5768 485.091 84.3945 485.82 84.3945C486.641 84.3034 487.643 84.4401 488.828 84.8047C487.188 88.9062 484.043 92.9167 479.395 96.8359C476.204 99.5703 472.878 102.214 469.414 104.766C470.143 107.135 470.508 109.642 470.508 112.285C470.508 116.569 469.779 120.443 468.32 123.906C466.953 127.279 465.13 130.195 462.852 132.656C460.938 134.661 458.841 136.393 456.562 137.852C454.284 139.31 451.96 140.449 449.59 141.27C446.4 142.363 443.346 142.91 440.43 142.91C439.245 142.91 438.014 142.773 436.738 142.5C432.637 141.862 429.72 140.13 427.988 137.305C426.712 135.299 426.439 133.294 427.168 131.289C427.897 129.193 429.31 127.051 431.406 124.863C433.594 122.585 436.328 120.26 439.609 117.891C440.977 116.888 442.435 115.885 443.984 114.883V114.746C444.167 113.379 444.258 112.057 444.258 110.781C444.258 109.505 444.167 108.275 443.984 107.09C443.529 105.358 442.799 103.581 441.797 101.758C440.703 100.026 439.427 98.2487 437.969 96.4258C435.326 93.1445 432.318 89.8177 428.945 86.4453C425.664 83.0729 422.975 79.6094 420.879 76.0547C419.147 73.0469 418.099 69.9023 417.734 66.6211C417.643 66.1654 417.598 65.7096 417.598 65.2539C417.598 62.4284 418.509 59.5117 420.332 56.5039C421.243 54.9544 422.383 53.724 423.75 52.8125C425.117 51.8099 426.576 51.0807 428.125 50.625C429.766 50.1693 431.452 49.9414 433.184 49.9414C434.642 49.9414 436.146 50.1237 437.695 50.4883C440.977 51.2174 443.711 52.6758 445.898 54.8633C447.083 55.957 448.04 57.2331 448.77 58.6914C449.408 60.1497 449.772 61.7448 449.863 63.4766ZM436.191 126.367C434.642 127.643 433.503 128.828 432.773 129.922C432.044 130.924 431.862 131.79 432.227 132.52C433.32 134.434 434.688 134.616 436.328 133.066C437.969 131.517 439.473 129.193 440.84 126.094C441.387 124.818 441.888 123.451 442.344 121.992C439.883 123.633 437.832 125.091 436.191 126.367Z" fill="#C4C4C4" fill-opacity="0.14"/>
<path d="M615.43 85.0781C616.523 84.8047 617.617 84.668 618.711 84.668C619.805 84.668 620.579 84.8047 621.035 85.0781C618.939 90.1823 616.022 94.5573 612.285 98.2031C608.457 101.94 604.401 105.13 600.117 107.773C597.656 109.232 595.241 110.599 592.871 111.875C591.595 116.068 590 119.896 588.086 123.359C585.26 128.372 581.888 131.654 577.969 133.203C576.966 133.659 575.326 133.887 573.047 133.887C570.768 133.887 568.672 133.385 566.758 132.383C565.755 131.836 564.844 131.107 564.023 130.195C563.294 129.284 562.793 128.099 562.52 126.641C562.337 125.729 562.656 124.727 563.477 123.633C564.297 122.63 565.482 121.536 567.031 120.352C569.766 118.438 573.229 116.387 577.422 114.199C578.151 112.194 578.88 110.052 579.609 107.773C580.703 103.945 581.478 99.9349 581.934 95.7422C582.389 91.6406 582.207 87.8581 581.387 84.3945C580.84 82.207 580.02 80.2018 578.926 78.3789C577.832 76.556 576.374 75.0977 574.551 74.0039C568.9 70.4492 564.844 76.7383 562.383 92.8711C559.922 108.913 559.831 133.294 562.109 166.016C561.654 167.383 560.332 168.385 558.145 169.023C556.686 169.479 555.182 169.707 553.633 169.707C552.812 169.707 551.992 169.661 551.172 169.57C549.896 169.388 548.665 169.069 547.48 168.613C546.296 168.066 545.293 167.383 544.473 166.562C543.652 165.742 543.06 164.785 542.695 163.691C542.422 162.507 542.422 161.185 542.695 159.727C544.518 160.365 545.931 158.952 546.934 155.488C547.845 151.934 548.483 147.194 548.848 141.27C549.03 138.079 549.121 134.616 549.121 130.879C549.121 127.142 549.076 123.314 548.984 119.395C548.711 110.371 548.21 101.257 547.48 92.0508C546.66 82.9362 545.84 75.2799 545.02 69.082L543.652 60.8789C543.197 58.7826 542.741 57.5521 542.285 57.1875C544.564 55 546.706 53.9062 548.711 53.9062C549.44 53.9062 550.124 54.043 550.762 54.3164C553.405 55.319 555.729 57.4609 557.734 60.7422C558.464 64.0234 558.919 67.8516 559.102 72.2266C559.193 76.6927 559.284 79.7461 559.375 81.3867C559.557 81.2044 560.013 79.8828 560.742 77.4219C561.562 74.8698 562.793 72.181 564.434 69.3555C565.345 67.806 566.348 66.3477 567.441 64.9805C568.626 63.5221 569.902 62.2917 571.27 61.2891C573.092 60.1042 575.098 59.375 577.285 59.1016C579.564 58.737 582.07 59.1016 584.805 60.1953C586.81 61.0156 588.542 62.3828 590 64.2969C591.458 66.1198 592.643 68.3073 593.555 70.8594C595.286 75.599 596.198 81.1589 596.289 87.5391C596.38 93.4635 595.879 99.2057 594.785 104.766C598.887 102.122 602.806 99.3424 606.543 96.4258C610.736 92.9622 613.698 89.1797 615.43 85.0781ZM572.5 121.035C570.951 121.855 569.811 122.63 569.082 123.359C568.353 124.089 568.216 124.772 568.672 125.41C569.583 126.96 571.224 125.866 573.594 122.129C574.049 121.4 574.46 120.671 574.824 119.941C574.004 120.306 573.229 120.671 572.5 121.035Z" fill="#C4C4C4" fill-opacity="0.14"/>
<path d="M639.629 22.4609C639.72 23.2812 639.674 24.5117 639.492 26.1523C639.31 27.8841 639.082 29.9349 638.809 32.3047C638.171 36.7708 637.35 42.194 636.348 48.5742C635.345 55.0456 634.342 61.7904 633.34 68.8086C632.702 73.3659 632.109 77.9688 631.562 82.6172C631.016 87.2656 630.605 91.6862 630.332 95.8789C629.694 103.717 629.603 110.417 630.059 115.977C630.423 121.445 631.745 124.544 634.023 125.273C636.667 126.094 639.72 124.089 643.184 119.258C646.647 114.336 650.02 108.685 653.301 102.305C655.033 98.8411 656.719 95.4232 658.359 92.0508C659.909 88.6784 661.322 85.625 662.598 82.8906C663.509 82.7083 664.375 82.5716 665.195 82.4805C666.016 82.4805 666.882 82.7539 667.793 83.3008C665.697 88.5872 662.598 95.2865 658.496 103.398C654.395 111.51 649.792 118.574 644.688 124.59C641.315 128.6 637.76 131.699 634.023 133.887C631.562 135.254 629.147 135.938 626.777 135.938C625.41 135.938 624.089 135.755 622.812 135.391C620.716 134.753 618.939 133.568 617.48 131.836C616.022 130.104 614.837 127.962 613.926 125.41C612.467 120.944 611.738 115.43 611.738 108.867V107.91C611.829 100.892 612.331 93.5091 613.242 85.7617C614.336 76.4648 615.749 67.2591 617.48 58.1445C619.212 49.0299 620.443 41.4648 621.172 35.4492C621.536 32.2591 621.673 29.6615 621.582 27.6562C621.582 25.651 621.172 24.5117 620.352 24.2383C620.99 21.5951 623.268 19.1797 627.188 16.9922C629.557 15.625 631.654 14.9414 633.477 14.9414C634.661 14.9414 635.801 15.2604 636.895 15.8984C637.715 16.4453 638.353 17.2656 638.809 18.3594C639.355 19.362 639.629 20.7292 639.629 22.4609Z" fill="#C4C4C4" fill-opacity="0.14"/>
<path d="M704.707 58.1445C705.254 55.5013 707.031 54.1797 710.039 54.1797H711.543C715.371 54.6354 718.105 56.3672 719.746 59.375C720.202 60.3776 720.475 61.5169 720.566 62.793C720.658 63.9779 720.43 65.2995 719.883 66.7578C718.333 68.3984 716.784 72.3633 715.234 78.6523C713.776 85.0326 712.546 91.9596 711.543 99.4336C711.087 102.715 710.677 105.951 710.312 109.141C710.039 112.331 709.811 115.43 709.629 118.438C709.355 123.815 709.355 128.418 709.629 132.246C709.902 135.983 710.586 138.034 711.68 138.398C713.685 139.036 716.602 136.484 720.43 130.742C724.167 125 727.995 118.392 731.914 110.918C734.466 105.905 736.927 100.938 739.297 96.0156C741.576 91.0938 743.49 86.901 745.039 83.4375C745.951 83.0729 746.908 82.8906 747.91 82.8906C748.913 82.8906 749.824 82.9818 750.645 83.1641C749.004 86.901 746.908 91.6862 744.355 97.5195C741.895 103.353 739.115 109.232 736.016 115.156C733.008 120.99 729.818 126.458 726.445 131.562C723.073 136.667 719.655 140.54 716.191 143.184C714.368 144.642 712.546 145.69 710.723 146.328C709.811 146.602 708.9 146.738 707.988 146.738C707.077 146.738 706.211 146.602 705.391 146.328C702.292 145.326 699.785 143.639 697.871 141.27C695.957 138.991 694.499 136.393 693.496 133.477C691.673 127.917 690.944 122.038 691.309 115.84C691.673 109.551 692.129 104.948 692.676 102.031C692.402 102.122 691.582 103.49 690.215 106.133C688.848 108.685 687.025 111.374 684.746 114.199C683.47 115.749 682.103 117.161 680.645 118.438C679.095 119.805 677.5 120.898 675.859 121.719C673.763 122.721 671.53 123.177 669.16 123.086C666.79 123.086 664.329 122.174 661.777 120.352C659.954 119.076 658.496 117.435 657.402 115.43C656.4 113.424 655.716 111.191 655.352 108.73C655.078 107.272 654.941 105.723 654.941 104.082C654.941 100.801 655.397 97.2461 656.309 93.418C657.676 87.8581 659.727 82.526 662.461 77.4219C665.195 72.2266 668.477 67.7604 672.305 64.0234C676.133 60.1953 680.098 57.9622 684.199 57.3242C685.202 57.1419 686.432 57.0508 687.891 57.0508C689.349 57.0508 690.853 57.1419 692.402 57.3242C695.228 57.5977 697.962 58.2357 700.605 59.2383C701.973 59.7852 703.066 60.4232 703.887 61.1523C704.251 59.8763 704.525 58.8737 704.707 58.1445ZM698.418 65.3906C696.777 65.3906 695.137 65.8008 693.496 66.6211C690.853 67.8971 688.392 69.9935 686.113 72.9102C683.835 75.918 681.875 79.1536 680.234 82.6172C677.773 87.8125 676.27 92.9622 675.723 98.0664C675.085 103.079 675.996 106.224 678.457 107.5C680.098 108.32 682.148 106.999 684.609 103.535C687.07 100.072 689.531 95.7878 691.992 90.6836C695.091 84.3945 697.871 77.9232 700.332 71.2695C701.061 69.3555 701.654 67.6693 702.109 66.2109C700.924 65.6641 699.694 65.3906 698.418 65.3906Z" fill="#C4C4C4" fill-opacity="0.14"/>
<path d="M741.348 57.1875C742.35 56.276 743.581 55.7292 745.039 55.5469C746.497 55.3646 748.047 55.4102 749.688 55.6836C751.966 56.1393 754.154 57.0052 756.25 58.2812C758.255 59.5573 759.44 60.9701 759.805 62.5195C759.805 64.2513 759.896 66.8945 760.078 70.4492C760.625 69.5378 762.083 67.5326 764.453 64.4336C766.732 61.3346 769.557 58.6458 772.93 56.3672C774.753 55.0911 776.712 54.1341 778.809 53.4961C780.085 53.1315 781.361 52.9492 782.637 52.9492C783.457 52.9492 784.323 52.9948 785.234 53.0859C789.518 53.9062 792.48 57.5065 794.121 63.8867C795.762 70.2669 796.764 77.4219 797.129 85.3516C797.402 91.7318 797.493 98.0208 797.402 104.219C797.311 110.417 797.402 115.566 797.676 119.668C797.767 121.947 797.949 123.77 798.223 125.137C798.587 126.504 799.043 127.279 799.59 127.461C801.595 128.19 804.329 126.139 807.793 121.309C811.348 116.387 814.766 110.918 818.047 104.902C820.326 100.892 822.376 97.0182 824.199 93.2812C826.022 89.5443 827.389 86.6276 828.301 84.5312C829.212 84.2578 830.124 84.0755 831.035 83.9844C831.855 83.9844 832.721 84.349 833.633 85.0781C832.63 87.3568 831.035 90.7747 828.848 95.332C826.751 99.8893 824.29 104.629 821.465 109.551C819.915 112.103 818.32 114.655 816.68 117.207C815.039 119.759 813.398 122.129 811.758 124.316C808.568 128.418 805.332 131.608 802.051 133.887C799.772 135.527 797.539 136.348 795.352 136.348C794.44 136.348 793.529 136.211 792.617 135.938C789.154 134.753 786.419 132.839 784.414 130.195C782.318 127.552 780.723 124.453 779.629 120.898C778.444 117.161 777.715 113.151 777.441 108.867C777.168 104.492 777.122 100.117 777.305 95.7422C777.669 87.7214 778.307 80.5664 779.219 74.2773C780.13 67.9883 780.039 64.707 778.945 64.4336C776.94 63.8867 774.616 65.0716 771.973 67.9883C769.329 70.9049 767.005 74.3229 765 78.2422C763.633 80.8854 762.539 83.5286 761.719 86.1719C760.898 88.724 760.488 90.9115 760.488 92.7344C760.579 97.9297 760.716 105.677 760.898 115.977C759.805 118.255 757.936 119.987 755.293 121.172C752.65 122.266 750.098 122.493 747.637 121.855C746.27 121.582 745.039 120.944 743.945 119.941C742.76 119.03 741.849 117.754 741.211 116.113C741.211 112.65 741.348 108.822 741.621 104.629C741.803 100.436 742.031 96.1523 742.305 91.7773C742.76 83.7565 743.034 76.3281 743.125 69.4922C743.307 62.6562 742.715 58.5547 741.348 57.1875Z" fill="#C4C4C4" fill-opacity="0.14"/>
</svg>
