<svg width="151" height="151" viewBox="0 0 151 151" fill="none" xmlns="http://www.w3.org/2000/svg">
    <rect x="25" y="23.6074" width="5.9549" height="6.20667" rx="2.97745" fill="#FFDB93"/>
    <rect x="43.6089" y="35.2451" width="5.9549" height="6.20679" rx="2.97745" fill="#FFDB93"/>
    <rect x="103.158" y="74.0361" width="10.4211" height="10.8616" rx="5.21053" fill="#FFDB93"/>
    <rect x="118.045" y="43.0034" width="5.9549" height="6.20667" rx="2.97745" fill="#FFDB93"/>
    <rect x="118.045" y="27.4868" width="2.97745" height="3.10327" rx="1.48872" fill="#FFDB93"/>
    <rect x="51.0527" y="19.7285" width="2.97745" height="3.10315" rx="1.48872" fill="#FFDB93"/>
    <rect x="80.8271" y="4.21191" width="2.97745" height="3.10315" rx="1.48872" fill="#FFDB93"/>
    <rect x="36.1655" y="74.0361" width="2.97745" height="3.10303" rx="1.48872" fill="#FFDB93"/>
    <g filter="url(#filter0_d)">
        <rect x="40.6318" y="20.5044" width="70" height="70" rx="35" fill="white"/>
    </g>
    <path fill-rule="evenodd" clip-rule="evenodd" d="M75.8496 70.1172C69.3164 70.1172 64.0078 64.5312 64.0078 57.6562C64.0078 51.1157 68.8169 45.7446 74.9419 45.2432V44.4077H72.7417C72.2197 44.4077 71.8115 43.978 71.8115 43.4287C71.8115 42.8799 72.2197 42.4502 72.7417 42.4502H78.8667C79.3887 42.4502 79.7969 42.8799 79.7969 43.4287C79.7969 43.978 79.3887 44.4077 78.8667 44.4077H76.8022V45.2432C79.0708 45.4341 81.1353 46.2695 82.8594 47.6064L83.8799 46.5322L83.4492 46.0786C83.0859 45.6968 83.0859 45.0762 83.4492 44.6943C83.812 44.312 84.4019 44.312 84.7646 44.6943L86.9199 46.9619C87.2827 47.3438 87.2827 47.9644 86.9199 48.3467C86.7383 48.5376 86.5117 48.6328 86.2622 48.6328C86.0127 48.6328 85.7856 48.5376 85.604 48.3467L85.1733 47.8931L84.2432 48.8716C86.3755 51.1157 87.6914 54.2427 87.6914 57.6562C87.6914 64.5312 82.3828 70.1172 75.8496 70.1172ZM85.854 57.6802C85.854 51.8794 81.3623 47.1528 75.8501 47.1528C70.3374 47.1528 65.8457 51.8555 65.8457 57.6802C65.8457 63.4805 70.3374 68.207 75.8501 68.207C81.3623 68.207 85.854 63.4805 85.854 57.6802Z" fill="#B41094"/>
    <path d="M75.8495 58.4677H79.8194C80.3412 58.4677 80.7495 58.038 80.7495 57.4889C80.7495 56.9399 80.3412 56.5102 79.8194 56.5102H76.7796V51.4734C76.7796 50.9243 76.3713 50.4946 75.8495 50.4946C75.3278 50.4946 74.9194 50.9243 74.9194 51.4734V57.5128C74.9194 58.038 75.3278 58.4677 75.8495 58.4677Z" fill="#B31094"/>
    <defs>
        <filter id="filter0_d" x="0.631836" y="0.504395" width="150" height="150" filterUnits="userSpaceOnUse" color-interpolation-filters="sRGB">
            <feFlood flood-opacity="0" result="BackgroundImageFix"/>
            <feColorMatrix in="SourceAlpha" type="matrix" values="0 0 0 0 0 0 0 0 0 0 0 0 0 0 0 0 0 0 127 0"/>
            <feOffset dy="20"/>
            <feGaussianBlur stdDeviation="20"/>
            <feColorMatrix type="matrix" values="0 0 0 0 0 0 0 0 0 0 0 0 0 0 0 0 0 0 0.2 0"/>
            <feBlend mode="normal" in2="BackgroundImageFix" result="effect1_dropShadow"/>
            <feBlend mode="normal" in="SourceGraphic" in2="effect1_dropShadow" result="shape"/>
        </filter>
    </defs>
</svg>